<?xml version="1.0" standalone="no"?>
<!DOCTYPE svg PUBLIC "-//W3C//DTD SVG 1.1//EN" "http://www.w3.org/Graphics/SVG/1.1/DTD/svg11.dtd">
<svg width="513mm" height="375mm" viewBox="-175 -255 513 375" xmlns="http://www.w3.org/2000/svg" version="1.1">
<title>OpenSCAD Model</title>
<path d="
M -155,-78.31 L -145,-78.31 L -145,-75 L -135,-75 L -135,-78.31 L -125,-78.31
 L -125,-75 L -115,-75 L -115,-78.31 L -105,-78.31 L -105,-75 L -95,-75
 L -95,-78.31 L -85,-78.31 L -85,-75 L -75,-75 L -75,-78.31 L -65,-78.31
 L -65,-75 L -55,-75 L -55,-78.31 L -45,-78.31 L -45,-75 L -35,-75
 L -35,-78.31 L -25,-78.31 L -25,-75 L -15,-75 L -15,-78.31 L -5,-78.31
 L -5,-75 L 5,-75 L 5,-78.31 L 15,-78.31 L 15,-75 L 25,-75
 L 25,-78.31 L 35,-78.31 L 35,-75 L 45,-75 L 45,-78.31 L 55,-78.31
 L 55,-75 L 65,-75 L 65,-78.31 L 75,-78.31 L 75,-75 L 85,-75
 L 85,-78.31 L 95,-78.31 L 95,-75 L 105,-75 L 105,-78.31 L 115,-78.31
 L 115,-75 L 125,-75 L 125,-78.31 L 135,-78.31 L 135,-75 L 145,-75
 L 145,-78.31 L 155,-78.31 L 155,-75 L 165,-75 L 165,-78.31 L 171.69,-78.31
 L 171.69,-94 L 175,-94 L 175,-104 L 171.69,-104 L 171.69,-114 L 175,-114
 L 175,-124 L 171.69,-124 L 171.69,-134 L 175,-134 L 175,-144 L 171.69,-144
 L 171.69,-154 L 175,-154 L 175,-164 L 171.69,-164 L 171.69,-183 L 175,-183
 L 175,-205 L 173.907,-215.396 L 170.677,-225.337 L 165.451,-234.389 L 158.457,-242.157 L 150,-248.301
 L 140.451,-252.553 L 130.226,-254.726 L -130.226,-254.726 L -140.451,-252.553 L -150,-248.301 L -158.457,-242.157
 L -165.451,-234.389 L -170.677,-225.337 L -173.907,-215.396 L -175,-205 L -175,-183 L -171.7,-183
 L -171.7,-164 L -175,-164 L -175,-154 L -171.7,-154 L -171.7,-144 L -175,-144
 L -175,-134 L -171.7,-134 L -171.7,-124 L -175,-124 L -175,-114 L -171.7,-114
 L -171.7,-104 L -175,-104 L -175,-94 L -171.7,-94 L -171.7,-78.31 L -165,-78.31
 L -165,-75 L -155,-75 z
M -158.4,-91.6 L -158.4,-204.13 L -157.581,-211.925 L -155.429,-218.548 L -155,-219.291 L -155,-207
 L -154.945,-205.955 L -154.727,-203.876 L -154.292,-201.831 L -153.646,-199.842 L -152.796,-197.933 L -151.75,-196.122
 L -150.522,-194.431 L -149.123,-192.877 L -147.569,-191.478 L -145.878,-190.25 L -144.067,-189.204 L -142.158,-188.354
 L -140.169,-187.708 L -138.124,-187.273 L -136.045,-187.055 L -133.955,-187.055 L -131.876,-187.273 L -129.831,-187.708
 L -127.842,-188.354 L -125.933,-189.204 L -124.122,-190.25 L -122.431,-191.478 L -120.877,-192.877 L -119.478,-194.431
 L -118.25,-196.122 L -117.204,-197.933 L -116.354,-199.842 L -115.708,-201.831 L -115.273,-203.876 L -115.055,-205.955
 L -115,-207 L -115,-235 L -115.219,-237.079 L -115.559,-238.126 L 115.505,-238.126 L 115.489,-238.09
 L 115,-235 L 115,-207 L 115.055,-205.955 L 115.273,-203.876 L 115.708,-201.831 L 116.354,-199.842
 L 117.204,-197.933 L 118.25,-196.122 L 119.478,-194.431 L 120.877,-192.877 L 122.431,-191.478 L 124.122,-190.25
 L 125.933,-189.204 L 127.842,-188.354 L 129.831,-187.708 L 131.876,-187.273 L 133.955,-187.055 L 136.045,-187.055
 L 138.124,-187.273 L 140.169,-187.708 L 142.158,-188.354 L 144.067,-189.204 L 145.878,-190.25 L 147.569,-191.478
 L 149.123,-192.877 L 150.522,-194.431 L 151.75,-196.122 L 152.796,-197.933 L 153.646,-199.842 L 154.292,-201.831
 L 154.727,-203.876 L 154.945,-205.955 L 155,-207 L 155,-219.291 L 155.429,-218.548 L 157.581,-211.925
 L 158.4,-204.13 L 158.4,-91.6 z
M -136.045,-197.055 L -138.09,-197.489 L -140,-198.34 L -141.691,-199.569 L -143.09,-201.122 L -144.135,-202.933
 L -144.781,-204.921 L -145,-207 L -145,-235 L -125,-235 L -125,-207 L -125.219,-204.921
 L -125.865,-202.933 L -126.91,-201.122 L -128.309,-199.569 L -130,-198.34 L -131.91,-197.489 L -133.955,-197.055
 z
M 133.955,-197.055 L 131.91,-197.489 L 130,-198.34 L 128.309,-199.569 L 126.91,-201.122 L 125.865,-202.933
 L 125.219,-204.921 L 125,-207 L 125,-235 L 145,-235 L 145,-207 L 144.781,-204.921
 L 144.135,-202.933 L 143.09,-201.122 L 141.691,-199.569 L 140,-198.34 L 138.09,-197.489 L 136.045,-197.055
 z
M 194.947,-118.23 L 195.284,-118.321 L 195.6,-118.468 L 195.886,-118.668 L 196.132,-118.914 L 196.332,-119.2
 L 196.479,-119.516 L 196.57,-119.853 L 196.6,-120.2 L 196.6,-152.2 L 196.57,-152.547 L 196.479,-152.884
 L 196.332,-153.2 L 196.132,-153.486 L 195.886,-153.732 L 195.6,-153.932 L 195.284,-154.079 L 194.947,-154.17
 L 194.6,-154.2 L 182,-154.2 L 181.653,-154.17 L 181.316,-154.079 L 181,-153.932 L 180.714,-153.732
 L 180.468,-153.486 L 180.268,-153.2 L 180.121,-152.884 L 180.03,-152.547 L 180,-152.2 L 180,-120.2
 L 180.03,-119.853 L 180.121,-119.516 L 180.268,-119.2 L 180.468,-118.914 L 180.714,-118.668 L 181,-118.468
 L 181.316,-118.321 L 181.653,-118.23 L 182,-118.2 L 194.6,-118.2 z
M 183.222,-120.171 L 182.846,-120.276 L 182.556,-120.45 L 182.349,-120.695 L 182.227,-121.009 L 182.678,-121.099
 L 182.716,-120.982 L 182.768,-120.877 L 182.835,-120.786 L 182.915,-120.709 L 183.009,-120.644 L 183.118,-120.592
 L 183.241,-120.551 L 183.378,-120.522 L 183.531,-120.505 L 183.698,-120.499 L 183.87,-120.505 L 184.026,-120.524
 L 184.165,-120.556 L 184.287,-120.6 L 184.393,-120.657 L 184.481,-120.726 L 184.55,-120.807 L 184.599,-120.9
 L 184.628,-121.005 L 184.638,-121.122 L 184.635,-121.188 L 184.626,-121.248 L 184.61,-121.304 L 184.589,-121.354
 L 184.561,-121.399 L 184.528,-121.44 L 184.49,-121.478 L 184.447,-121.513 L 184.399,-121.545 L 184.346,-121.574
 L 184.288,-121.601 L 184.226,-121.626 L 184.16,-121.65 L 184.089,-121.671 L 184.014,-121.691 L 183.433,-121.828
 L 183.294,-121.865 L 183.17,-121.901 L 183.062,-121.938 L 182.97,-121.974 L 182.89,-122.012 L 182.816,-122.051
 L 182.75,-122.092 L 182.69,-122.134 L 182.638,-122.178 L 182.591,-122.225 L 182.55,-122.274 L 182.512,-122.327
 L 182.479,-122.383 L 182.451,-122.442 L 182.428,-122.504 L 182.41,-122.57 L 182.397,-122.639 L 182.39,-122.712
 L 182.387,-122.788 L 182.4,-122.959 L 182.441,-123.113 L 182.508,-123.251 L 182.603,-123.373 L 182.724,-123.478
 L 182.871,-123.565 L 183.041,-123.633 L 183.234,-123.681 L 183.451,-123.71 L 183.691,-123.72 L 183.914,-123.713
 L 184.115,-123.691 L 184.294,-123.655 L 184.45,-123.605 L 184.585,-123.54 L 184.702,-123.458 L 184.803,-123.356
 L 184.89,-123.234 L 184.962,-123.092 L 185.019,-122.93 L 184.561,-122.849 L 184.525,-122.952 L 184.478,-123.043
 L 184.421,-123.123 L 184.352,-123.19 L 184.273,-123.245 L 184.182,-123.29 L 184.077,-123.324 L 183.96,-123.349
 L 183.829,-123.364 L 183.686,-123.369 L 183.529,-123.363 L 183.388,-123.347 L 183.262,-123.319 L 183.152,-123.279
 L 183.057,-123.229 L 182.979,-123.168 L 182.918,-123.096 L 182.875,-123.013 L 182.849,-122.918 L 182.84,-122.813
 L 182.843,-122.751 L 182.853,-122.693 L 182.87,-122.64 L 182.894,-122.591 L 182.924,-122.547 L 182.961,-122.506
 L 183.003,-122.468 L 183.051,-122.433 L 183.106,-122.399 L 183.166,-122.369 L 183.242,-122.338 L 183.343,-122.305
 L 183.47,-122.27 L 183.621,-122.231 L 183.798,-122.19 L 184.175,-122.098 L 184.297,-122.063 L 184.414,-122.023
 L 184.526,-121.978 L 184.58,-121.953 L 184.632,-121.926 L 184.683,-121.898 L 184.732,-121.868 L 184.778,-121.836
 L 184.822,-121.801 L 184.863,-121.763 L 184.901,-121.723 L 184.937,-121.68 L 184.969,-121.634 L 184.998,-121.585
 L 185.024,-121.533 L 185.046,-121.478 L 185.065,-121.42 L 185.08,-121.357 L 185.091,-121.291 L 185.097,-121.221
 L 185.099,-121.147 L 185.084,-120.963 L 185.039,-120.796 L 184.965,-120.647 L 184.861,-120.515 L 184.727,-120.4
 L 184.566,-120.305 L 184.382,-120.231 L 184.172,-120.178 L 183.939,-120.147 L 183.681,-120.136 z
M 194.947,-75.0304 L 195.284,-75.1206 L 195.6,-75.268 L 195.886,-75.4679 L 196.132,-75.7144 L 196.332,-76
 L 196.479,-76.316 L 196.57,-76.6527 L 196.6,-77 L 196.6,-109 L 196.57,-109.347 L 196.479,-109.684
 L 196.332,-110 L 196.132,-110.286 L 195.886,-110.532 L 195.6,-110.732 L 195.284,-110.879 L 194.947,-110.97
 L 194.6,-111 L 182,-111 L 181.653,-110.97 L 181.316,-110.879 L 181,-110.732 L 180.714,-110.532
 L 180.468,-110.286 L 180.268,-110 L 180.121,-109.684 L 180.03,-109.347 L 180,-109 L 180,-77
 L 180.03,-76.6527 L 180.121,-76.316 L 180.268,-76 L 180.468,-75.7144 L 180.714,-75.4679 L 181,-75.268
 L 181.316,-75.1206 L 181.653,-75.0304 L 182,-75 L 194.6,-75 z
M 183.222,-76.9709 L 182.846,-77.0757 L 182.556,-77.2503 L 182.349,-77.4947 L 182.227,-77.809 L 182.678,-77.899
 L 182.716,-77.7816 L 182.768,-77.6774 L 182.835,-77.5864 L 182.915,-77.5086 L 183.009,-77.444 L 183.118,-77.3918
 L 183.241,-77.3512 L 183.378,-77.3222 L 183.531,-77.3048 L 183.698,-77.299 L 183.87,-77.3053 L 184.026,-77.3243
 L 184.165,-77.3559 L 184.287,-77.4001 L 184.393,-77.457 L 184.481,-77.5262 L 184.55,-77.6072 L 184.599,-77.7002
 L 184.628,-77.8051 L 184.638,-77.922 L 184.635,-77.9878 L 184.626,-78.0484 L 184.61,-78.1038 L 184.589,-78.154
 L 184.561,-78.199 L 184.528,-78.2399 L 184.49,-78.2779 L 184.447,-78.3129 L 184.399,-78.3449 L 184.346,-78.374
 L 184.288,-78.4011 L 184.226,-78.4263 L 184.16,-78.4497 L 184.089,-78.4713 L 184.014,-78.491 L 183.433,-78.6284
 L 183.294,-78.6648 L 183.17,-78.7012 L 183.062,-78.7376 L 182.97,-78.774 L 182.89,-78.8116 L 182.816,-78.8508
 L 182.75,-78.8916 L 182.69,-78.934 L 182.638,-78.978 L 182.591,-79.0247 L 182.55,-79.0745 L 182.512,-79.1273
 L 182.479,-79.1831 L 182.451,-79.242 L 182.428,-79.3042 L 182.41,-79.3698 L 182.397,-79.439 L 182.39,-79.5117
 L 182.387,-79.588 L 182.4,-79.759 L 182.441,-79.9134 L 182.508,-80.0514 L 182.603,-80.173 L 182.724,-80.278
 L 182.871,-80.3651 L 183.041,-80.4329 L 183.234,-80.4813 L 183.451,-80.5103 L 183.691,-80.52 L 183.914,-80.5128
 L 184.115,-80.4912 L 184.294,-80.4552 L 184.45,-80.4048 L 184.585,-80.34 L 184.702,-80.2583 L 184.803,-80.1565
 L 184.89,-80.0345 L 184.962,-79.8923 L 185.019,-79.73 L 184.561,-79.649 L 184.525,-79.7522 L 184.478,-79.8434
 L 184.421,-79.9226 L 184.352,-79.9898 L 184.273,-80.045 L 184.182,-80.0896 L 184.077,-80.1244 L 183.96,-80.1492
 L 183.829,-80.164 L 183.686,-80.169 L 183.529,-80.1634 L 183.388,-80.1466 L 183.262,-80.1186 L 183.152,-80.0794
 L 183.057,-80.029 L 182.979,-79.9679 L 182.918,-79.8957 L 182.875,-79.8125 L 182.849,-79.7183 L 182.84,-79.613
 L 182.843,-79.5508 L 182.853,-79.4931 L 182.87,-79.44 L 182.894,-79.3912 L 182.924,-79.347 L 182.961,-79.3063
 L 183.003,-79.2681 L 183.051,-79.2325 L 183.106,-79.1995 L 183.166,-79.169 L 183.242,-79.1385 L 183.343,-79.1053
 L 183.47,-79.0695 L 183.621,-79.0311 L 183.798,-78.99 L 184.175,-78.8982 L 184.297,-78.863 L 184.414,-78.823
 L 184.526,-78.7776 L 184.58,-78.7525 L 184.632,-78.726 L 184.683,-78.698 L 184.732,-78.6683 L 184.778,-78.6359
 L 184.822,-78.6009 L 184.863,-78.5633 L 184.901,-78.523 L 184.937,-78.4799 L 184.969,-78.4339 L 184.998,-78.3849
 L 185.024,-78.3329 L 185.046,-78.278 L 185.065,-78.2196 L 185.08,-78.1573 L 185.091,-78.0912 L 185.097,-78.021
 L 185.099,-77.947 L 185.084,-77.7629 L 185.039,-77.5961 L 184.965,-77.4467 L 184.861,-77.3147 L 184.727,-77.2
 L 184.566,-77.1049 L 184.382,-77.031 L 184.172,-76.9782 L 183.939,-76.9466 L 183.681,-76.936 z
M -165,66.7 L -154.99,66.7 L -154.99,70 L -144.98,70 L -144.98,66.7 L -134.97,66.7
 L -134.97,70 L -124.96,70 L -124.96,66.7 L -114.95,66.7 L -114.95,70 L -104.94,70
 L -104.94,66.7 L -94.93,66.7 L -94.93,70 L -84.92,70 L -84.92,66.7 L -74.91,66.7
 L -74.91,70 L -64.9,70 L -64.9,66.7 L -54.89,66.7 L -54.89,70 L -44.88,70
 L -44.88,66.7 L -34.87,66.7 L -34.87,70 L -24.86,70 L -24.86,66.7 L -14.85,66.7
 L -14.85,70 L -4.84001,70 L -4.84001,66.7 L 5.17,66.7 L 5.17,70 L 15.18,70
 L 15.18,66.7 L 25.19,66.7 L 25.19,70 L 35.2,70 L 35.2,66.7 L 45.21,66.7
 L 45.21,70 L 55.22,70 L 55.22,66.7 L 65.23,66.7 L 65.23,70 L 75.24,70
 L 75.24,66.7 L 85.25,66.7 L 85.25,70 L 95.26,70 L 95.26,66.7 L 105.27,66.7
 L 105.27,70 L 115.28,70 L 115.28,66.7 L 125.29,66.7 L 125.29,70 L 135.3,70
 L 135.3,66.7 L 145.31,66.7 L 145.31,70 L 155.32,70 L 155.32,66.7 L 165.33,66.7
 L 165.33,70 L 171.69,70 L 171.69,55 L 175,55 L 175,45 L 171.69,45
 L 171.69,35 L 175,35 L 175,25 L 171.69,25 L 171.69,15 L 175,15
 L 175,5 L 171.69,5 L 171.69,-5 L 175,-5 L 175,-15 L 171.69,-15
 L 171.69,-25 L 175,-25 L 175,-35 L 171.69,-35 L 171.69,-45 L 175,-45
 L 175,-55 L 171.69,-55 L 171.69,-70 L 165.33,-70 L 165.33,-66.71 L 155.32,-66.71
 L 155.32,-70 L 145.31,-70 L 145.31,-66.71 L 135.3,-66.71 L 135.3,-70 L 125.29,-70
 L 125.29,-66.71 L 115.28,-66.71 L 115.28,-70 L 105.27,-70 L 105.27,-66.71 L 95.26,-66.71
 L 95.26,-70 L 85.25,-70 L 85.25,-66.71 L 75.24,-66.71 L 75.24,-70 L 65.23,-70
 L 65.23,-66.71 L 55.22,-66.71 L 55.22,-70 L 45.21,-70 L 45.21,-66.71 L 35.2,-66.71
 L 35.2,-70 L 25.19,-70 L 25.19,-66.71 L 15.18,-66.71 L 15.18,-70 L 5.17,-70
 L 5.17,-66.71 L -4.84001,-66.71 L -4.84001,-70 L -14.85,-70 L -14.85,-66.71 L -24.86,-66.71
 L -24.86,-70 L -34.87,-70 L -34.87,-66.71 L -44.88,-66.71 L -44.88,-70 L -54.89,-70
 L -54.89,-66.71 L -64.9,-66.71 L -64.9,-70 L -74.91,-70 L -74.91,-66.71 L -84.92,-66.71
 L -84.92,-70 L -94.93,-70 L -94.93,-66.71 L -104.94,-66.71 L -104.94,-70 L -114.95,-70
 L -114.95,-66.71 L -124.96,-66.71 L -124.96,-70 L -134.97,-70 L -134.97,-66.71 L -144.98,-66.71
 L -144.98,-70 L -154.99,-70 L -154.99,-66.71 L -165,-66.71 L -165,-70 L -171.7,-70
 L -171.7,-55 L -175,-55 L -175,-45 L -171.7,-45 L -171.7,-35 L -175,-35
 L -175,-25 L -171.7,-25 L -171.7,-15 L -175,-15 L -175,-5 L -171.7,-5
 L -171.7,5 L -175,5 L -175,15 L -171.7,15 L -171.7,25 L -175,25
 L -175,35 L -171.7,35 L -171.7,45 L -175,45 L -175,55 L -171.7,55
 L -171.7,70 L -165,70 z
M 197.5,66.69 L 207.5,66.69 L 207.5,70 L 225,70 L 288,-70 L 269,-70
 L 269,-66.7 L 259,-66.7 L 259,-70 L 249,-70 L 249,-66.7 L 239,-66.7
 L 239,-70 L 229,-70 L 229,-66.7 L 219,-66.7 L 219,-70 L 209,-70
 L 209,-66.7 L 199,-66.7 L 199,-70 L 180,-70 L 180,-55 L 183.31,-55
 L 183.31,-45 L 180,-45 L 180,-35 L 183.31,-35 L 183.31,-25 L 180,-25
 L 180,-15 L 183.31,-15 L 183.31,-4.99998 L 180,-4.99998 L 180,5 L 183.31,5
 L 183.31,15 L 180,15 L 180,25 L 183.31,25 L 183.31,35 L 180,35
 L 180,45 L 183.31,45 L 183.31,55 L 180,55 L 180,70 L 197.5,70
 z
M 193.3,56.7 L 193.3,-56.7 L 267.43,-56.7 L 216.4,56.7 z
M 269,66.7 L 279,66.7 L 279,70 L 289,70 L 289,66.7 L 299,66.7
 L 299,70 L 309,70 L 309,66.7 L 319,66.7 L 319,70 L 338,70
 L 338,55 L 334.69,55 L 334.69,45 L 338,45 L 338,35 L 334.69,35
 L 334.69,25 L 338,25 L 338,15 L 334.69,15 L 334.69,5 L 338,5
 L 338,-4.99998 L 334.69,-4.99998 L 334.69,-15 L 338,-15 L 338,-25 L 334.69,-25
 L 334.69,-35 L 338,-35 L 338,-45 L 334.69,-45 L 334.69,-55 L 338,-55
 L 338,-70 L 320.5,-70 L 320.5,-66.69 L 310.5,-66.69 L 310.5,-70 L 293,-70
 L 230,70 L 249,70 L 249,66.7 L 259,66.7 L 259,70 L 269,70
 z
M 250.57,56.7 L 301.6,-56.7 L 324.7,-56.7 L 324.7,56.7 z
M 171.7,102.5 L 175,102.5 L 175,92.5 L 171.7,92.5 L 171.7,78.3 L 165.165,78.3
 L 165.165,75 L 155.155,75 L 155.155,78.3 L 145.145,78.3 L 145.145,75 L 135.135,75
 L 135.135,78.3 L 125.125,78.3 L 125.125,75 L 115.115,75 L 115.115,78.3 L 105.105,78.3
 L 105.105,75 L 95.095,75 L 95.095,78.3 L 85.085,78.3 L 85.085,75 L 75.075,75
 L 75.075,78.3 L 65.065,78.3 L 65.065,75 L 55.055,75 L 55.055,78.3 L 45.045,78.3
 L 45.045,75 L 35.035,75 L 35.035,78.3 L 25.025,78.3 L 25.025,75 L 15.015,75
 L 15.015,78.3 L 5.005,78.3 L 5.005,75 L -5.00497,75 L -5.00497,78.3 L -15.015,78.3
 L -15.015,75 L -25.025,75 L -25.025,78.3 L -35.035,78.3 L -35.035,75 L -45.045,75
 L -45.045,78.3 L -55.055,78.3 L -55.055,75 L -65.065,75 L -65.065,78.3 L -75.075,78.3
 L -75.075,75 L -85.085,75 L -85.085,78.3 L -95.095,78.3 L -95.095,75 L -105.105,75
 L -105.105,78.3 L -115.115,78.3 L -115.115,75 L -125.125,75 L -125.125,78.3 L -135.135,78.3
 L -135.135,75 L -145.145,75 L -145.145,78.3 L -155.155,78.3 L -155.155,75 L -165.165,75
 L -165.165,78.3 L -171.69,78.3 L -171.69,92.5 L -175,92.5 L -175,102.5 L -171.69,102.5
 L -171.69,120 L 171.7,120 z
M -158.4,103.4 L -158.4,91.6 L 158.4,91.6 L 158.4,103.4 z
M 190,75 L 180,75 L 180,95 L 190,95 z
" stroke="black" fill="lightgray" stroke-width="0.5"/>
</svg>
