<?xml version="1.0" standalone="no"?>
<!DOCTYPE svg PUBLIC "-//W3C//DTD SVG 1.1//EN" "http://www.w3.org/Graphics/SVG/1.1/DTD/svg11.dtd">
<svg width="546mm" height="360mm" viewBox="-273 -250 546 360" xmlns="http://www.w3.org/2000/svg" version="1.1">
<title>OpenSCAD Model</title>
<path d="
M -135,-73.31 L -125,-73.31 L -125,-70 L -115,-70 L -115,-73.31 L -105,-73.31
 L -105,-70 L -95,-70 L -95,-73.31 L -85,-73.31 L -85,-70 L -75,-70
 L -75,-73.31 L -65,-73.31 L -65,-70 L -55,-70 L -55,-73.31 L -45,-73.31
 L -45,-70 L -35,-70 L -35,-73.31 L -25,-73.31 L -25,-70 L -15,-70
 L -15,-73.31 L -5,-73.31 L -5,-70 L 5,-70 L 5,-73.31 L 15,-73.31
 L 15,-70 L 25,-70 L 25,-73.31 L 35,-73.31 L 35,-70 L 45,-70
 L 45,-73.31 L 55,-73.31 L 55,-70 L 65,-70 L 65,-73.31 L 75,-73.31
 L 75,-70 L 85,-70 L 85,-73.31 L 95,-73.31 L 95,-70 L 105,-70
 L 105,-73.31 L 115,-73.31 L 115,-70 L 125,-70 L 125,-73.31 L 135,-73.31
 L 135,-70 L 145,-70 L 145,-73.31 L 156.69,-73.31 L 156.69,-89 L 160,-89
 L 160,-99 L 156.69,-99 L 156.69,-109 L 160,-109 L 160,-119 L 156.69,-119
 L 156.69,-129 L 160,-129 L 160,-139 L 156.69,-139 L 156.69,-149 L 160,-149
 L 160,-159 L 156.69,-159 L 156.69,-178 L 160,-178 L 160,-200 L 158.907,-210.396
 L 155.677,-220.337 L 150.451,-229.389 L 143.457,-237.157 L 135,-243.301 L 125.451,-247.553 L 115.226,-249.726
 L -115.226,-249.726 L -125.451,-247.553 L -135,-243.301 L -143.457,-237.157 L -150.451,-229.389 L -155.677,-220.337
 L -158.907,-210.396 L -160,-200 L -160,-178 L -156.7,-178 L -156.7,-159 L -160,-159
 L -160,-149 L -156.7,-149 L -156.7,-139 L -160,-139 L -160,-129 L -156.7,-129
 L -156.7,-119 L -160,-119 L -160,-109 L -156.7,-109 L -156.7,-99 L -160,-99
 L -160,-89 L -156.7,-89 L -156.7,-73.31 L -145,-73.31 L -145,-70 L -135,-70
 z
M -143.4,-86.6 L -143.4,-199.13 L -142.581,-206.925 L -140.429,-213.548 L -140,-214.291 L -140,-202
 L -139.945,-200.955 L -139.727,-198.876 L -139.292,-196.831 L -138.646,-194.842 L -137.796,-192.933 L -136.75,-191.122
 L -135.522,-189.431 L -134.123,-187.877 L -132.569,-186.478 L -130.878,-185.25 L -129.067,-184.204 L -127.158,-183.354
 L -125.169,-182.708 L -123.124,-182.273 L -121.045,-182.055 L -118.955,-182.055 L -116.876,-182.273 L -114.831,-182.708
 L -112.842,-183.354 L -110.933,-184.204 L -109.122,-185.25 L -107.431,-186.478 L -105.877,-187.877 L -104.478,-189.431
 L -103.25,-191.122 L -102.204,-192.933 L -101.354,-194.842 L -100.708,-196.831 L -100.273,-198.876 L -100.055,-200.955
 L -100,-202 L -100,-230 L -100.219,-232.079 L -100.559,-233.126 L 100.505,-233.126 L 100.489,-233.09
 L 100,-230 L 100,-202 L 100.055,-200.955 L 100.273,-198.876 L 100.708,-196.831 L 101.354,-194.842
 L 102.204,-192.933 L 103.25,-191.122 L 104.478,-189.431 L 105.877,-187.877 L 107.431,-186.478 L 109.122,-185.25
 L 110.933,-184.204 L 112.842,-183.354 L 114.831,-182.708 L 116.876,-182.273 L 118.955,-182.055 L 121.045,-182.055
 L 123.124,-182.273 L 125.169,-182.708 L 127.158,-183.354 L 129.067,-184.204 L 130.878,-185.25 L 132.569,-186.478
 L 134.123,-187.877 L 135.522,-189.431 L 136.75,-191.122 L 137.796,-192.933 L 138.646,-194.842 L 139.292,-196.831
 L 139.727,-198.876 L 139.945,-200.955 L 140,-202 L 140,-214.291 L 140.429,-213.548 L 142.581,-206.925
 L 143.4,-199.13 L 143.4,-86.6 z
M 118.955,-192.055 L 116.91,-192.489 L 115,-193.34 L 113.309,-194.569 L 111.91,-196.122 L 110.865,-197.933
 L 110.219,-199.921 L 110,-202 L 110,-230 L 130,-230 L 130,-202 L 129.781,-199.921
 L 129.135,-197.933 L 128.09,-196.122 L 126.691,-194.569 L 125,-193.34 L 123.09,-192.489 L 121.045,-192.055
 z
M -121.045,-192.055 L -123.09,-192.489 L -125,-193.34 L -126.691,-194.569 L -128.09,-196.122 L -129.135,-197.933
 L -129.781,-199.921 L -130,-202 L -130,-230 L -110,-230 L -110,-202 L -110.219,-199.921
 L -110.865,-197.933 L -111.91,-196.122 L -113.309,-194.569 L -115,-193.34 L -116.91,-192.489 L -118.955,-192.055
 z
M -145,61.7 L -134.99,61.7 L -134.99,65 L -124.98,65 L -124.98,61.7 L -114.97,61.7
 L -114.97,65 L -104.96,65 L -104.96,61.7 L -94.95,61.7 L -94.95,65 L -84.94,65
 L -84.94,61.7 L -74.93,61.7 L -74.93,65 L -64.92,65 L -64.92,61.7 L -54.91,61.7
 L -54.91,65 L -44.9,65 L -44.9,61.7 L -34.89,61.7 L -34.89,65 L -24.88,65
 L -24.88,61.7 L -14.87,61.7 L -14.87,65 L -4.86,65 L -4.86,61.7 L 5.14999,61.7
 L 5.14999,65 L 15.16,65 L 15.16,61.7 L 25.17,61.7 L 25.17,65 L 35.18,65
 L 35.18,61.7 L 45.19,61.7 L 45.19,65 L 55.2,65 L 55.2,61.7 L 65.21,61.7
 L 65.21,65 L 75.22,65 L 75.22,61.7 L 85.23,61.7 L 85.23,65 L 95.24,65
 L 95.24,61.7 L 105.25,61.7 L 105.25,65 L 115.26,65 L 115.26,61.7 L 125.27,61.7
 L 125.27,65 L 135.28,65 L 135.28,61.7 L 145.29,61.7 L 145.29,65 L 156.69,65
 L 156.69,55 L 160,55 L 160,45 L 156.69,45 L 156.69,35 L 160,35
 L 160,25 L 156.69,25 L 156.69,15 L 160,15 L 160,5 L 156.69,5
 L 156.69,-5 L 160,-5 L 160,-15 L 156.69,-15 L 156.69,-25 L 160,-25
 L 160,-35 L 156.69,-35 L 156.69,-45 L 160,-45 L 160,-55 L 156.69,-55
 L 156.69,-65 L 145.29,-65 L 145.29,-61.71 L 135.28,-61.71 L 135.28,-65 L 125.27,-65
 L 125.27,-61.71 L 115.26,-61.71 L 115.26,-65 L 105.25,-65 L 105.25,-61.71 L 95.24,-61.71
 L 95.24,-65 L 85.23,-65 L 85.23,-61.71 L 75.22,-61.71 L 75.22,-65 L 65.21,-65
 L 65.21,-61.71 L 55.2,-61.71 L 55.2,-65 L 45.19,-65 L 45.19,-61.71 L 35.18,-61.71
 L 35.18,-65 L 25.17,-65 L 25.17,-61.71 L 15.16,-61.71 L 15.16,-65 L 5.14999,-65
 L 5.14999,-61.71 L -4.86,-61.71 L -4.86,-65 L -14.87,-65 L -14.87,-61.71 L -24.88,-61.71
 L -24.88,-65 L -34.89,-65 L -34.89,-61.71 L -44.9,-61.71 L -44.9,-65 L -54.91,-65
 L -54.91,-61.71 L -64.92,-61.71 L -64.92,-65 L -74.93,-65 L -74.93,-61.71 L -84.94,-61.71
 L -84.94,-65 L -94.95,-65 L -94.95,-61.71 L -104.96,-61.71 L -104.96,-65 L -114.97,-65
 L -114.97,-61.71 L -124.98,-61.71 L -124.98,-65 L -134.99,-65 L -134.99,-61.71 L -145,-61.71
 L -145,-65 L -156.7,-65 L -156.7,-55 L -160,-55 L -160,-45 L -156.7,-45
 L -156.7,-35 L -160,-35 L -160,-25 L -156.7,-25 L -156.7,-15 L -160,-15
 L -160,-5 L -156.7,-5 L -156.7,5 L -160,5 L -160,15 L -156.7,15
 L -156.7,25 L -160,25 L -160,35 L -156.7,35 L -156.7,45 L -160,45
 L -160,55 L -156.7,55 L -156.7,65 L -145,65 z
M 180,61.69 L 190,61.69 L 190,65 L 205,65 L 273,-65 L 254,-65
 L 254,-61.7 L 244,-61.7 L 244,-65 L 234,-65 L 234,-61.7 L 224,-61.7
 L 224,-65 L 214,-65 L 214,-61.7 L 204,-61.7 L 204,-65 L 194,-65
 L 194,-61.7 L 184,-61.7 L 184,-65 L 165,-65 L 165,-55 L 168.31,-55
 L 168.31,-45 L 165,-45 L 165,-35 L 168.31,-35 L 168.31,-25 L 165,-25
 L 165,-15 L 168.31,-15 L 168.31,-4.99998 L 165,-4.99998 L 165,5 L 168.31,5
 L 168.31,15 L 165,15 L 165,25 L 168.31,25 L 168.31,35 L 165,35
 L 165,45 L 168.31,45 L 168.31,55 L 165,55 L 165,65 L 180,65
 z
M 178.3,51.7 L 178.3,-51.7 L 251.033,-51.7 L 196.947,51.7 z
M -190,61.69 L -180,61.69 L -180,65 L -165,65 L -165,55 L -168.31,55
 L -168.31,45 L -165,45 L -165,35 L -168.31,35 L -168.31,25 L -165,25
 L -165,15 L -168.31,15 L -168.31,4.99998 L -165,4.99998 L -165,-5 L -168.31,-5
 L -168.31,-15 L -165,-15 L -165,-25 L -168.31,-25 L -168.31,-35 L -165,-35
 L -165,-45 L -168.31,-45 L -168.31,-55 L -165,-55 L -165,-65 L -184,-65
 L -184,-61.7 L -194,-61.7 L -194,-65 L -204,-65 L -204,-61.7 L -214,-61.7
 L -214,-65 L -224,-65 L -224,-61.7 L -234,-61.7 L -234,-65 L -244,-65
 L -244,-61.7 L -254,-61.7 L -254,-65 L -273,-65 L -205,65 L -190,65
 z
M -196.947,51.7 L -251.033,-51.7 L -178.3,-51.7 L -178.3,51.7 z
M 156.7,95 L 160,95 L 160,85 L 156.7,85 L 156.7,73.3 L 145.145,73.3
 L 145.145,70 L 135.135,70 L 135.135,73.3 L 125.125,73.3 L 125.125,70 L 115.115,70
 L 115.115,73.3 L 105.105,73.3 L 105.105,70 L 95.095,70 L 95.095,73.3 L 85.085,73.3
 L 85.085,70 L 75.075,70 L 75.075,73.3 L 65.065,73.3 L 65.065,70 L 55.055,70
 L 55.055,73.3 L 45.045,73.3 L 45.045,70 L 35.035,70 L 35.035,73.3 L 25.025,73.3
 L 25.025,70 L 15.015,70 L 15.015,73.3 L 5.005,73.3 L 5.005,70 L -5.00497,70
 L -5.00497,73.3 L -15.015,73.3 L -15.015,70 L -25.025,70 L -25.025,73.3 L -35.035,73.3
 L -35.035,70 L -45.045,70 L -45.045,73.3 L -55.055,73.3 L -55.055,70 L -65.065,70
 L -65.065,73.3 L -75.075,73.3 L -75.075,70 L -85.085,70 L -85.085,73.3 L -95.095,73.3
 L -95.095,70 L -105.105,70 L -105.105,73.3 L -115.115,73.3 L -115.115,70 L -125.125,70
 L -125.125,73.3 L -135.135,73.3 L -135.135,70 L -145.145,70 L -145.145,73.3 L -156.69,73.3
 L -156.69,85 L -160,85 L -160,95 L -156.69,95 L -156.69,110 L 156.7,110
 z
M -143.4,93.4 L -143.4,86.6 L 143.4,86.6 L 143.4,93.4 z
" stroke="black" fill="lightgray" stroke-width="0.5"/>
</svg>
