<?xml version="1.0" encoding="UTF-8" standalone="no"?>
<svg
   xmlns:dc="http://purl.org/dc/elements/1.1/"
   xmlns:cc="http://creativecommons.org/ns#"
   xmlns:rdf="http://www.w3.org/1999/02/22-rdf-syntax-ns#"
   xmlns:svg="http://www.w3.org/2000/svg"
   xmlns="http://www.w3.org/2000/svg"
   xmlns:sodipodi="http://sodipodi.sourceforge.net/DTD/sodipodi-0.dtd"
   xmlns:inkscape="http://www.inkscape.org/namespaces/inkscape"
   width="513mm"
   height="375mm"
   viewBox="-175 -255 513 375"
   version="1.1"
   id="svg14"
   inkscape:version="0.91 r13725"
   sodipodi:docname="shelf RV1.02 - cut ready material 3.6.svg">
  <metadata
     id="metadata24">
    <rdf:RDF>
      <cc:Work
         rdf:about="">
        <dc:format>image/svg+xml</dc:format>
        <dc:type
           rdf:resource="http://purl.org/dc/dcmitype/StillImage" />
      </cc:Work>
    </rdf:RDF>
  </metadata>
  <defs
     id="defs22" />
  <sodipodi:namedview
     pagecolor="#ffffff"
     bordercolor="#666666"
     borderopacity="1"
     objecttolerance="10"
     gridtolerance="10"
     guidetolerance="10"
     inkscape:pageopacity="0"
     inkscape:pageshadow="2"
     inkscape:window-width="1951"
     inkscape:window-height="1160"
     id="namedview20"
     showgrid="false"
     inkscape:zoom="1.7054123"
     inkscape:cx="908.85827"
     inkscape:cy="759.56992"
     inkscape:window-x="195"
     inkscape:window-y="16"
     inkscape:window-maximized="0"
     inkscape:current-layer="svg14" />
  <title
     id="title16">OpenSCAD Model</title>
  <path
     d=" M -156,-78.61 L -148,-78.61 L -148,-75 L -140,-75 L -140,-78.61 L -132,-78.61  L -132,-75 L -124,-75 L -124,-78.61 L -116,-78.61 L -116,-75 L -108,-75  L -108,-78.61 L -100,-78.61 L -100,-75 L -92,-75 L -92,-78.61 L -84,-78.61  L -84,-75 L -76,-75 L -76,-78.61 L -68,-78.61 L -68,-75 L -60,-75  L -60,-78.61 L -52,-78.61 L -52,-75 L -44,-75 L -44,-78.61 L -36,-78.61  L -36,-75 L -28,-75 L -28,-78.61 L -20,-78.61 L -20,-75 L -12,-75  L -12,-78.61 L -4,-78.61 L -4,-75 L 4,-75 L 4,-78.61 L 12,-78.61  L 12,-75 L 20,-75 L 20,-78.61 L 28,-78.61 L 28,-75 L 36,-75  L 36,-78.61 L 44,-78.61 L 44,-75 L 52,-75 L 52,-78.61 L 60,-78.61  L 60,-75 L 68,-75 L 68,-78.61 L 76,-78.61 L 76,-75 L 84,-75  L 84,-78.61 L 92,-78.61 L 92,-75 L 100,-75 L 100,-78.61 L 108,-78.61  L 108,-75 L 116,-75 L 116,-78.61 L 124,-78.61 L 124,-75 L 132,-75  L 132,-78.61 L 140,-78.61 L 140,-75 L 148,-75 L 148,-78.61 L 156,-78.61  L 156,-75 L 164,-75 L 164,-78.61 L 171.39,-78.61 L 171.39,-85 L 175,-85  L 175,-93 L 171.39,-93 L 171.39,-101 L 175,-101 L 175,-109 L 171.39,-109  L 171.39,-117 L 175,-117 L 175,-125 L 171.39,-125 L 171.39,-133 L 175,-133  L 175,-141 L 171.39,-141 L 171.39,-149 L 175,-149 L 175,-157 L 171.39,-157  L 171.39,-165 L 175,-165 L 175,-173 L 171.39,-173 L 171.39,-183 L 175,-183  L 175,-205 L 173.907,-215.396 L 170.677,-225.337 L 165.451,-234.389 L 158.457,-242.157 L 150,-248.301  L 140.451,-252.553 L 130.226,-254.726 L -130.226,-254.726 L -140.451,-252.553 L -150,-248.301 L -158.457,-242.157  L -165.451,-234.389 L -170.677,-225.337 L -173.907,-215.396 L -175,-205 L -175,-183 L -171.4,-183  L -171.4,-173 L -175,-173 L -175,-165 L -171.4,-165 L -171.4,-157 L -175,-157  L -175,-149 L -171.4,-149 L -171.4,-141 L -175,-141 L -175,-133 L -171.4,-133  L -171.4,-125 L -175,-125 L -175,-117 L -171.4,-117 L -171.4,-109 L -175,-109  L -175,-101 L -171.4,-101 L -171.4,-93 L -175,-93 L -175,-85 L -171.4,-85  L -171.4,-78.61 L -164,-78.61 L -164,-75 L -156,-75 z M 139.755,-201.355 L 137.71,-201.789 L 135.8,-202.64 L 134.109,-203.869 L 132.71,-205.422 L 131.665,-207.233  L 131.019,-209.221 L 130.8,-211.3 L 130.8,-239.3 L 150.8,-239.3 L 150.8,-211.3 L 150.581,-209.221  L 149.935,-207.233 L 148.89,-205.422 L 147.491,-203.869 L 145.8,-202.64 L 143.89,-201.789 L 141.845,-201.355  z M -141.845,-201.355 L -143.89,-201.789 L -145.8,-202.64 L -147.491,-203.869 L -148.89,-205.422 L -149.935,-207.233  L -150.581,-209.221 L -150.8,-211.3 L -150.8,-239.3 L -130.8,-239.3 L -130.8,-211.3 L -131.019,-209.221  L -131.665,-207.233 L -132.71,-205.422 L -134.109,-203.869 L -135.8,-202.64 L -137.71,-201.789 L -139.755,-201.355  z M 94.2648,-201.879 L 98.7188,-220.309 L 104.887,-222.522 L 104.962,-222.498 L 105.275,-222.456 L 105.59,-222.468  L 105.899,-222.536 L 106.191,-222.655 L 106.458,-222.824 L 106.691,-223.037 L 106.824,-223.209 L 114.669,-224.96  L 114.322,-226.875 L 106.366,-225.768 L 106.339,-225.789 L 106.059,-225.936 L 105.759,-226.032 L 105.446,-226.074  L 105.13,-226.062 L 104.822,-225.994 L 104.53,-225.875 L 104.263,-225.706 L 104.029,-225.493 L 103.981,-225.431  L 99.6809,-224.291 L 101.574,-232.124 L 102.052,-232.505 L 102.711,-233.774 L 106.792,-239.026 L 118.7,-239.026  L 118.7,-219.668 L 108.96,-207.832 L 107.465,-207.041 L 107.092,-206.379 L 98.7175,-202.378 L 95.3613,-201.673  L 95.2276,-201.713 L 95.0882,-201.616 L 95.0623,-201.611 z M -93.4926,-237.182 L -96.4192,-239.026 L -75.7681,-239.026 L -75.8323,-238.453 L -88.0051,-235.666 z M -63.7603,-239.026 L -63.4022,-239.026 L -63.4135,-238.871 z M -20.882,-210.842 L -20.9556,-210.908 L -21.1667,-211.042 L -21.3978,-211.137 L -21.6419,-211.19 L -21.8914,-211.2  L -22.1389,-211.166 L -22.3769,-211.09 L -22.598,-210.974 L -22.6458,-210.937 L -27.6175,-210.921 L -28.4465,-212.152  L -24.9586,-218.881 L -24.8908,-218.913 L -24.646,-219.086 L -24.4349,-219.298 L -24.2638,-219.544 L -24.138,-219.816  L -24.0614,-220.105 L -24.0361,-220.403 L -24.0547,-220.609 L -19.7319,-226.888 L -21.2077,-227.995 L -26.0241,-222.092  L -26.057,-222.089 L -26.346,-222.011 L -26.617,-221.884 L -26.8618,-221.711 L -27.0729,-221.499 L -27.244,-221.253  L -27.3698,-220.982 L -27.4465,-220.692 L -27.4718,-220.394 L -27.465,-220.319 L -30.6018,-215.353 L -37.1731,-225.114  L -37.1671,-225.134 L -37.325,-225.698 L -38.2249,-235.158 L -36.6295,-237.756 L -37.0767,-238.056 L -34.7599,-239.026  L -11.8578,-239.026 L -11.2959,-224.969 L -11.2879,-224.97 L -20.2095,-210.752 z M -6.256,-239.026 L 2.91928,-239.026 L 4.29543,-237.011 L -5.37048,-230.599 z M 30.3476,-237.011 L 31.2485,-239.026 L 52.1075,-239.026 L 46.6027,-222.295 z M 54.4226,-215.178 L 54.1713,-215.708 L 60.1946,-239.026 L 65.6116,-239.026 L 66.0392,-235.769 L 66.0501,-235.771  L 54.6351,-213.29 z M 72.8624,-232.86 L 73.2822,-233.068 L 74.1884,-234.232 L 79.4113,-239.026 L 92.5554,-239.026 L 94.041,-234.192  L 92.1365,-227.473 L 89.9943,-220.602 L 75.9956,-208.457 L 74.4389,-207.943 L 73.9751,-207.371 L 60.2661,-203.458  z M 14.3838,-237.893 L 17.074,-238.482 L 17.9974,-238.144 L 20.4478,-235.601 L 18.7404,-232.365 z M -54.7934,-235.015 L -54.8017,-235.022 L -55.0679,-235.194 L -55.2924,-235.289 L -55.7671,-236.014 L -49.9219,-235.313  L -51.1462,-233.383 z M -56.0976,-190.949 L -68.0865,-215.706 L -68.0452,-215.816 L -68.2172,-217.225 L -67.7354,-234.542 L -65.838,-234.836  L -55.1048,-229.211 L -54.4791,-228.129 L -57.6295,-223.162 L -54.0193,-220.642 L -51.815,-223.52 L -49.4846,-219.489  L -49.4851,-219.469 L -49.4619,-219.45 L -49.3539,-219.263 L -50.3164,-202.047 L -50.7015,-201.646 L -50.9133,-200.115  L -55.9339,-190.757 z M -118.7,-220.195 L -118.7,-234.125 L -108.88,-233.76 L -110.949,-214.996 z M -46.0184,-231.089 L -44.1082,-233.584 L -44.0155,-230.507 L -44.1563,-230.256 z M -99.2066,-194.286 L -99.3337,-194.605 L -95.7021,-199.099 L -97.2283,-200.438 L -100.353,-197.158 L -104.626,-207.858  L -104.559,-208.001 L -104.676,-209.366 L -103.623,-233.565 L -103.096,-233.545 L -103.051,-233.492 L -101.303,-232.862  L -101.149,-232.89 L -96.3044,-229.283 L -100.875,-224.912 L -98.6603,-222.381 L -93.0554,-226.864 L -74.4317,-213  L -74.0127,-211.959 L -67.2624,-192.285 z M -85.0379,-231.855 L -76.4209,-233.193 L -77.1284,-226.872 z M -16.3299,-157.917 L -16.4269,-159.377 L -17.1336,-161.145 L -17.4465,-161.52 L -19.894,-196.082 L -19.5621,-196.575  L -19.2348,-198.43 L -19.3378,-198.844 L -14.3375,-208.1 L -12.1889,-207.962 L -12.0217,-209.665 L -13.3933,-209.848  L -6.6346,-222.358 L -6.6125,-222.363 L -5.71596,-223.21 L 7.05911,-232.964 L 13.6879,-223.257 L 13.8148,-222.106  L 14.6217,-220.394 L 14.8978,-220.11 L 18.4511,-172.175 L 18.8876,-172.224 L 18.8879,-172.206 L -1.07269,-134.762  z M 24.4624,-221.19 L 24.9576,-222.408 L 25.0627,-224.298 L 24.9083,-224.845 L 26.779,-229.029 L 43.031,-212.161  L 43.3582,-211.012 L 44.4737,-209.409 L 44.8034,-209.168 L 47.4171,-198.562 L 29.8943,-184.144 z M -48.9356,-225.978 L -47.0966,-225.014 L -47.6306,-224.063 z M -45.8734,-219.555 L -45.5022,-220.284 L -45.5316,-220.348 L -44.1218,-223.455 L -42.9722,-222.853 L -42.8345,-222.633  L -42.1224,-222.296 L -34.8545,-209.727 L -45.711,-204.128 z M 81.0695,-206.313 L 87.5389,-212.725 L 85.116,-204.953 z M 114.491,-206.524 L 118.7,-212.393 L 118.7,-211.3 L 118.766,-210.035 L 118.985,-207.956 L 119.456,-205.741  z M -119.86,-204.168 L -119.907,-204.264 L -119.511,-205.482 L -118.985,-207.956 L -118.766,-210.035 L -118.7,-211.3  L -118.7,-212.041 L -110.346,-205.617 L -110.341,-205.624 L -108.051,-198.593 z M -25.8039,-208.227 L -22.5315,-208.527 L -22.4804,-208.495 L -22.2493,-208.4 L -22.0052,-208.347 L -21.7556,-208.337  L -21.7222,-208.342 L -23.7286,-205.144 z M -51.4642,-186.435 L -46.4491,-197.949 L -45.3773,-199.064 L -45.3418,-199.32 L -33.1307,-206.746 L -28.1976,-198.214  L -28.1613,-197.176 L -27.4718,-195.762 L -27.4959,-168.79 z M 59.4745,-196.082 L 75.4753,-202.099 L 75.4789,-202.097 L 77.317,-202.158 L 77.5576,-202.324 L 83.7918,-200.706  L 81.6229,-193.748 L 81.7803,-193.705 L 81.7211,-192.995 L 66.2498,-175.163 z M 67.2717,-158.113 L 68.3745,-159.274 L 69.2285,-161.064 L 69.2972,-161.585 L 88.3428,-187.726 L 89.069,-187.958  L 90.5696,-189.228 L 91.3119,-190.669 L 98.3608,-194.773 L 102.362,-191.343 L 102.375,-191.277 L 102.478,-191.022  L 102.623,-190.788 L 102.807,-190.582 L 103.024,-190.412 L 103.267,-190.282 L 103.46,-190.219 L 109.861,-182.721  L 111.338,-183.897 L 105.461,-191.815 L 105.458,-191.925 L 105.401,-192.194 L 105.298,-192.45 L 105.153,-192.684  L 104.969,-192.889 L 104.752,-193.059 L 104.509,-193.189 L 104.247,-193.275 L 104.181,-193.285 L 101.144,-196.394  L 109.272,-201.127 L 109.426,-201.125 L 109.752,-201.178 L 110.064,-201.288 L 110.327,-201.436 L 111.389,-201.652  L 111.605,-201.862 L 121.277,-201.025 L 122.231,-199.372 L 123.718,-197.326 L 125.117,-195.772 L 126.996,-194.079  L 128.688,-192.851 L 130.878,-191.586 L 132.788,-190.736 L 135.194,-189.954 L 137.239,-189.519 L 139.755,-189.255  L 139.984,-189.255 L 117.774,-148.821 L 117.988,-148.713 L 117.71,-148.251 L 117.634,-147.895 L 85.8937,-123.462  L 86.3189,-122.955 L 85.9468,-122.696 L 85.7219,-122.388 L 56.1268,-115.228 z M -129.636,-182.888 L -129.827,-183.11 L -130.423,-183.347 L -135.354,-186.726 L -136.358,-189.706 L -135.194,-189.954  L -132.788,-190.736 L -130.878,-191.586 L -128.688,-192.851 L -126.996,-194.079 L -125.117,-195.772 L -123.718,-197.326  L -123.215,-198.017 L -120.277,-196.4 L -120.247,-196.316 L -120.066,-195.999 L -119.833,-195.719 L -119.554,-195.483  L -119.466,-195.432 L -115.861,-186.791 L -122.546,-182.155 z M 148.8,-187.217 L 149.625,-187.719 L 150.504,-188.865 L 159.3,-196.428 L 159.3,-164.662 L 151.634,-158.436  L 151.617,-158.439 L 149.852,-157.919 L 149.064,-157.155 L 146.354,-156.476 L 145.57,-160.929 L 145.608,-161.004  L 145.696,-161.289 L 145.733,-161.585 L 145.718,-161.882 L 145.651,-162.173 L 145.535,-162.448 L 145.373,-162.699  L 145.217,-162.867 L 143.973,-170.775 L 142.012,-170.551 L 142.583,-162.571 L 142.573,-162.558 L 142.437,-162.293  L 142.35,-162.007 L 142.313,-161.711 L 142.327,-161.414 L 142.394,-161.123 L 142.51,-160.848 L 142.672,-160.597  L 142.728,-160.536 L 143.217,-155.69 L 132.851,-153.092 z M -156.912,-183.081 L -156.999,-183.202 L -158.184,-183.74 L -159.3,-184.543 L -159.3,-196.1 L -158.784,-196.068  L -139.333,-180.802 z M -114.38,-193.154 L -110.09,-190.793 L -112.379,-189.206 z M 6.6926,-90.7 L 5.5787,-117.385 L 5.69922,-117.535 L 6.45972,-119.317 L 6.48273,-119.492 L 28.1133,-167.683  L 29.3551,-168.615 L 30.4606,-170.187 L 30.6106,-170.674 L 49.6969,-189.312 L 56.6697,-161.019 L 57.1054,-161.143  L 57.1087,-161.126 L 40.5876,-111.623 L 40.4205,-111.486 L 39.2566,-109.924 L 38.5003,-108.129 L 38.396,-107.471  L 21.1409,-90.7 z M -91.1662,-176.729 L -91.4965,-177.618 L -92.7671,-179.051 L -93.2147,-179.282 L -96.2971,-187 L -64.0775,-183.002  L -62.3612,-177.999 L -62.196,-178.062 L -62.1577,-177.857 L -61.9009,-177.508 L -63.5978,-156.844 z M -108.352,-180.687 L -106.776,-183.231 L -103.638,-185.044 L -102.006,-180.031 z M -26.3568,-90.7 L -35.525,-98.8839 L -36.1404,-100.529 L -36.2956,-100.731 L -54.0407,-145.359 L -53.8348,-146.496  L -54.1619,-148.402 L -54.384,-148.791 L -54.4709,-177.215 L -54.1874,-177.543 L -54.1811,-177.566 L -27.6884,-155.176  L -27.5841,-154.915 L -26.3659,-153.453 L -25.1272,-152.673 L -7.14964,-119.165 L -6.90666,-118.318 L -6.33014,-117.383  L -7.10835,-90.7 z M -159.276,-176.871 L -158.03,-176.993 L -157.908,-177.08 L -154.395,-176.368 L -154.187,-176.194 L -158.356,-173.86  z M -125.328,-170.497 L -124.89,-172.095 L -124.42,-172.393 L -123.869,-173.349 L -121.338,-174.812 L -114.147,-173.568  L -116.079,-163.233 z M -155.844,-166.146 L -139.35,-172.975 L -136.953,-172.667 L -150.552,-163.528 L -152.113,-163.142 L -152.419,-162.779  L -154.647,-162.472 z M -75.7791,-110.231 L -76.5682,-110.976 L -78.3264,-111.734 L -78.7584,-111.76 L -102.773,-131.977 L -102.807,-132.277  L -103.906,-133.906 L -104.235,-134.083 L -111.548,-157.31 L -111.513,-158.155 L -109.77,-172.811 L -99.2339,-170.988  L -98.3525,-170.303 L -96.5178,-169.754 L -96.42,-169.761 L -63.0369,-141.845 L -62.787,-142.167 L -51.0262,-105.526  z M -151.024,-153.747 L -147.948,-159.145 L -147.877,-159.229 L -131.596,-168.584 L -134.66,-153.262 L -135.37,-152.182  L -135.323,-151.782 L -140.353,-145.195 z M -126.433,-137.977 L -130.156,-151.768 L -130.13,-151.878 L -130.25,-152.119 L -130.308,-152.332 L -126.749,-165.313  L -116.157,-155.825 L -116.153,-155.83 L -111.111,-135.222 z M -159.3,-163.717 L -158.851,-161.892 L -159.3,-161.831 z M -159.3,-156.164 L -159.3,-157.693 L -157.836,-157.764 L -157.411,-156.033 z M 158.507,-155.265 L 159.3,-155.803 L 159.3,-154.97 z M -159.3,-152.149 L -157.736,-151.932 L -159.3,-148.548 z M 147.212,-145.722 L 147.812,-146.203 L 147.812,-146.27 L 153.267,-151.066 L 159.3,-149.289 L 159.3,-136.611  L 153.959,-133.083 L 141.382,-132.422 z M -159.019,-130.381 L -158.992,-130.806 L -159.3,-130.815 L -159.3,-143.403 L -157.46,-142.456 L -153.279,-149.791  L -140.203,-137.843 L -158.912,-130.376 z M 103.214,-121.605 L 123.879,-140.514 L 125.129,-140.77 L 126.76,-141.733 L 127.99,-143.173 L 128.002,-143.205  L 143.931,-148.612 L 144.087,-147.062 L 144.079,-147.045 L 144.092,-147.02 L 144.112,-146.818 L 136.617,-132.403  L 135.516,-131.484 L 135.438,-131.047 L 121.974,-120.711 L 120.83,-120.645 L 120.876,-120.177 L 120.586,-120.198  L 119.523,-119.735 z M -132.704,-139.105 L -132.883,-139.208 L -137.658,-143.035 L -133.911,-147.134 L -130.87,-138.775 z M -120.495,-105.064 L -122.309,-105.204 L -150.101,-114.398 L -150.164,-114.534 L -150.664,-114.888 L -158.997,-123.768  L -157.008,-126.575 L -134.436,-133.996 L -133.79,-134.063 L -109.363,-127.925 L -108.61,-127.243 L -107.455,-126.946  L -89.8413,-109.821 L -119.971,-104.78 z M 158.272,-131.814 L 159.3,-132.627 L 159.3,-131.354 z M 138.457,-127.495 L 139.709,-127.948 L 139.828,-128.152 L 154.603,-129.975 L 155.192,-129.701 L 155.393,-129.842  L 159.3,-128.494 L 159.3,-126.813 L 152.42,-123.106 L 152.405,-123.112 L 150.526,-122.926 L 149.586,-122.307  L 131.585,-121.267 z M 157.752,-119.192 L 159.3,-120.164 L 159.3,-118.255 z M 135.864,-98.5693 L 134.905,-99.3626 L 127.298,-112.508 L 150.14,-115.714 L 150.362,-115.553 L 152.23,-115.284  L 152.577,-115.406 L 159.3,-111.955 L 159.3,-96.6361 L 151.339,-94.4829 L 151.213,-94.5125 L 151.09,-94.4157  L 151.067,-94.4094 z M -159.3,-114.622 L -158.956,-114.204 L -159.3,-114.12 z M 41.6555,-90.7 L 48.2054,-98.1229 L 48.8579,-98.2588 L 50.6142,-99.1006 L 52.118,-100.338 L 52.5292,-100.89  L 88.4983,-112.816 L 89.7896,-112.531 L 91.7302,-112.752 L 93.494,-113.591 L 93.6265,-113.72 L 94.0866,-113.706  L 94.3015,-113.45 L 94.5648,-113.691 L 118.925,-112.928 L 119.122,-112.727 L 119.691,-112.541 L 130.432,-97.0704  L 129.609,-90.7 z M -159.3,-90.7 L -159.3,-107.747 L -153.215,-108.829 L -152.301,-108.745 L -152.165,-108.808 L -129.423,-99.5189  L -139.124,-90.7 z M -127.528,-90.7 L -120.267,-96.5346 L -120.261,-96.5354 L -118.924,-97.3569 L -81.0984,-101.102 L -80.8719,-101.004  L -78.9601,-100.892 L -77.9207,-101.203 L -44.6552,-91.709 L -43.7749,-91.2674 L -43.0516,-91.1464 L -42.6177,-90.7  z M 140.138,-90.7 L 138.577,-93.4136 L 150.562,-91.0227 L 150.96,-90.7 z M 156.094,-90.7 L 155.062,-91.6419 L 159.3,-93.1858 L 159.3,-90.7 z M 212.887,-118.23 L 213.224,-118.321 L 213.54,-118.468 L 213.826,-118.668 L 214.072,-118.914 L 214.272,-119.2  L 214.419,-119.516 L 214.51,-119.853 L 214.54,-120.2 L 214.54,-152.2 L 214.51,-152.547 L 214.419,-152.884  L 214.272,-153.2 L 214.072,-153.486 L 213.826,-153.732 L 213.54,-153.932 L 213.224,-154.079 L 212.887,-154.17  L 212.54,-154.2 L 200.84,-154.2 L 200.493,-154.17 L 200.156,-154.079 L 199.84,-153.932 L 199.554,-153.732  L 199.308,-153.486 L 199.108,-153.2 L 198.961,-152.884 L 198.87,-152.547 L 198.84,-152.2 L 198.84,-120.2  L 198.87,-119.853 L 198.961,-119.516 L 199.108,-119.2 L 199.308,-118.914 L 199.554,-118.668 L 199.84,-118.468  L 200.156,-118.321 L 200.493,-118.23 L 200.84,-118.2 L 212.54,-118.2 z M 202.062,-120.171 L 201.686,-120.276 L 201.396,-120.45 L 201.189,-120.695 L 201.067,-121.009 L 201.518,-121.099  L 201.556,-120.982 L 201.608,-120.877 L 201.675,-120.786 L 201.755,-120.709 L 201.849,-120.644 L 201.958,-120.592  L 202.081,-120.551 L 202.218,-120.522 L 202.371,-120.505 L 202.538,-120.499 L 202.71,-120.505 L 202.866,-120.524  L 203.005,-120.556 L 203.127,-120.6 L 203.233,-120.657 L 203.321,-120.726 L 203.39,-120.807 L 203.439,-120.9  L 203.468,-121.005 L 203.478,-121.122 L 203.475,-121.188 L 203.466,-121.248 L 203.45,-121.304 L 203.429,-121.354  L 203.401,-121.399 L 203.368,-121.44 L 203.33,-121.478 L 203.287,-121.513 L 203.239,-121.545 L 203.186,-121.574  L 203.128,-121.601 L 203.066,-121.626 L 203,-121.65 L 202.929,-121.671 L 202.854,-121.691 L 202.273,-121.828  L 202.134,-121.865 L 202.01,-121.901 L 201.902,-121.938 L 201.81,-121.974 L 201.73,-122.012 L 201.656,-122.051  L 201.59,-122.092 L 201.53,-122.134 L 201.478,-122.178 L 201.431,-122.225 L 201.39,-122.274 L 201.352,-122.327  L 201.319,-122.383 L 201.291,-122.442 L 201.268,-122.504 L 201.25,-122.57 L 201.237,-122.639 L 201.23,-122.712  L 201.227,-122.788 L 201.24,-122.959 L 201.281,-123.113 L 201.348,-123.251 L 201.443,-123.373 L 201.564,-123.478  L 201.711,-123.565 L 201.881,-123.633 L 202.074,-123.681 L 202.291,-123.71 L 202.531,-123.72 L 202.754,-123.713  L 202.955,-123.691 L 203.134,-123.655 L 203.29,-123.605 L 203.425,-123.54 L 203.542,-123.458 L 203.643,-123.356  L 203.73,-123.234 L 203.802,-123.092 L 203.859,-122.93 L 203.401,-122.849 L 203.365,-122.952 L 203.318,-123.043  L 203.261,-123.123 L 203.192,-123.19 L 203.113,-123.245 L 203.022,-123.29 L 202.917,-123.324 L 202.8,-123.349  L 202.669,-123.364 L 202.526,-123.369 L 202.369,-123.363 L 202.228,-123.347 L 202.102,-123.319 L 201.992,-123.279  L 201.897,-123.229 L 201.819,-123.168 L 201.758,-123.096 L 201.715,-123.013 L 201.689,-122.918 L 201.68,-122.813  L 201.683,-122.751 L 201.693,-122.693 L 201.71,-122.64 L 201.734,-122.591 L 201.764,-122.547 L 201.801,-122.506  L 201.843,-122.468 L 201.891,-122.433 L 201.946,-122.399 L 202.006,-122.369 L 202.082,-122.338 L 202.183,-122.305  L 202.31,-122.27 L 202.461,-122.231 L 202.638,-122.19 L 203.015,-122.098 L 203.137,-122.063 L 203.254,-122.023  L 203.366,-121.978 L 203.42,-121.953 L 203.472,-121.926 L 203.523,-121.898 L 203.572,-121.868 L 203.618,-121.836  L 203.662,-121.801 L 203.703,-121.763 L 203.741,-121.723 L 203.777,-121.68 L 203.809,-121.634 L 203.838,-121.585  L 203.864,-121.533 L 203.886,-121.478 L 203.905,-121.42 L 203.92,-121.357 L 203.931,-121.291 L 203.937,-121.221  L 203.939,-121.147 L 203.924,-120.963 L 203.879,-120.796 L 203.805,-120.647 L 203.701,-120.515 L 203.567,-120.4  L 203.406,-120.305 L 203.222,-120.231 L 203.012,-120.178 L 202.779,-120.147 L 202.521,-120.136 z M 231.727,-118.23 L 232.064,-118.321 L 232.38,-118.468 L 232.666,-118.668 L 232.912,-118.914 L 233.112,-119.2  L 233.259,-119.516 L 233.35,-119.853 L 233.38,-120.2 L 233.38,-152.2 L 233.35,-152.547 L 233.259,-152.884  L 233.112,-153.2 L 232.912,-153.486 L 232.666,-153.732 L 232.38,-153.932 L 232.064,-154.079 L 231.727,-154.17  L 231.38,-154.2 L 219.68,-154.2 L 219.333,-154.17 L 218.996,-154.079 L 218.68,-153.932 L 218.394,-153.732  L 218.148,-153.486 L 217.948,-153.2 L 217.801,-152.884 L 217.71,-152.547 L 217.68,-152.2 L 217.68,-120.2  L 217.71,-119.853 L 217.801,-119.516 L 217.948,-119.2 L 218.148,-118.914 L 218.394,-118.668 L 218.68,-118.468  L 218.996,-118.321 L 219.333,-118.23 L 219.68,-118.2 L 231.38,-118.2 z M 220.902,-120.171 L 220.526,-120.276 L 220.236,-120.45 L 220.029,-120.695 L 219.907,-121.009 L 220.358,-121.099  L 220.396,-120.982 L 220.448,-120.877 L 220.515,-120.786 L 220.595,-120.709 L 220.689,-120.644 L 220.798,-120.592  L 220.921,-120.551 L 221.058,-120.522 L 221.211,-120.505 L 221.378,-120.499 L 221.55,-120.505 L 221.706,-120.524  L 221.845,-120.556 L 221.967,-120.6 L 222.073,-120.657 L 222.161,-120.726 L 222.23,-120.807 L 222.279,-120.9  L 222.308,-121.005 L 222.318,-121.122 L 222.315,-121.188 L 222.306,-121.248 L 222.29,-121.304 L 222.269,-121.354  L 222.241,-121.399 L 222.208,-121.44 L 222.17,-121.478 L 222.127,-121.513 L 222.079,-121.545 L 222.026,-121.574  L 221.968,-121.601 L 221.906,-121.626 L 221.84,-121.65 L 221.769,-121.671 L 221.694,-121.691 L 221.113,-121.828  L 220.974,-121.865 L 220.85,-121.901 L 220.742,-121.938 L 220.65,-121.974 L 220.57,-122.012 L 220.496,-122.051  L 220.43,-122.092 L 220.37,-122.134 L 220.318,-122.178 L 220.271,-122.225 L 220.23,-122.274 L 220.192,-122.327  L 220.159,-122.383 L 220.131,-122.442 L 220.108,-122.504 L 220.09,-122.57 L 220.077,-122.639 L 220.07,-122.712  L 220.067,-122.788 L 220.08,-122.959 L 220.121,-123.113 L 220.188,-123.251 L 220.283,-123.373 L 220.404,-123.478  L 220.551,-123.565 L 220.721,-123.633 L 220.914,-123.681 L 221.131,-123.71 L 221.371,-123.72 L 221.594,-123.713  L 221.795,-123.691 L 221.974,-123.655 L 222.13,-123.605 L 222.265,-123.54 L 222.382,-123.458 L 222.483,-123.356  L 222.57,-123.234 L 222.642,-123.092 L 222.699,-122.93 L 222.241,-122.849 L 222.205,-122.952 L 222.158,-123.043  L 222.101,-123.123 L 222.032,-123.19 L 221.953,-123.245 L 221.862,-123.29 L 221.757,-123.324 L 221.64,-123.349  L 221.509,-123.364 L 221.366,-123.369 L 221.209,-123.363 L 221.068,-123.347 L 220.942,-123.319 L 220.832,-123.279  L 220.737,-123.229 L 220.659,-123.168 L 220.598,-123.096 L 220.555,-123.013 L 220.529,-122.918 L 220.52,-122.813  L 220.523,-122.751 L 220.533,-122.693 L 220.55,-122.64 L 220.574,-122.591 L 220.604,-122.547 L 220.641,-122.506  L 220.683,-122.468 L 220.731,-122.433 L 220.786,-122.399 L 220.846,-122.369 L 220.922,-122.338 L 221.023,-122.305  L 221.15,-122.27 L 221.301,-122.231 L 221.478,-122.19 L 221.855,-122.098 L 221.977,-122.063 L 222.094,-122.023  L 222.206,-121.978 L 222.26,-121.953 L 222.312,-121.926 L 222.363,-121.898 L 222.412,-121.868 L 222.458,-121.836  L 222.502,-121.801 L 222.543,-121.763 L 222.581,-121.723 L 222.617,-121.68 L 222.649,-121.634 L 222.678,-121.585  L 222.704,-121.533 L 222.726,-121.478 L 222.745,-121.42 L 222.76,-121.357 L 222.771,-121.291 L 222.777,-121.221  L 222.779,-121.147 L 222.764,-120.963 L 222.719,-120.796 L 222.645,-120.647 L 222.541,-120.515 L 222.407,-120.4  L 222.246,-120.305 L 222.062,-120.231 L 221.852,-120.178 L 221.619,-120.147 L 221.361,-120.136 z M 194.047,-118.23 L 194.384,-118.321 L 194.7,-118.468 L 194.986,-118.668 L 195.232,-118.914 L 195.432,-119.2  L 195.579,-119.516 L 195.67,-119.853 L 195.7,-120.2 L 195.7,-152.2 L 195.67,-152.547 L 195.579,-152.884  L 195.432,-153.2 L 195.232,-153.486 L 194.986,-153.732 L 194.7,-153.932 L 194.384,-154.079 L 194.047,-154.17  L 193.7,-154.2 L 182,-154.2 L 181.653,-154.17 L 181.316,-154.079 L 181,-153.932 L 180.714,-153.732  L 180.468,-153.486 L 180.268,-153.2 L 180.121,-152.884 L 180.03,-152.547 L 180,-152.2 L 180,-120.2  L 180.03,-119.853 L 180.121,-119.516 L 180.268,-119.2 L 180.468,-118.914 L 180.714,-118.668 L 181,-118.468  L 181.316,-118.321 L 181.653,-118.23 L 182,-118.2 L 193.7,-118.2 z M 183.222,-120.171 L 182.846,-120.276 L 182.556,-120.45 L 182.349,-120.695 L 182.227,-121.009 L 182.678,-121.099  L 182.716,-120.982 L 182.768,-120.877 L 182.835,-120.786 L 182.915,-120.709 L 183.009,-120.644 L 183.118,-120.592  L 183.241,-120.551 L 183.378,-120.522 L 183.531,-120.505 L 183.698,-120.499 L 183.87,-120.505 L 184.026,-120.524  L 184.165,-120.556 L 184.287,-120.6 L 184.393,-120.657 L 184.481,-120.726 L 184.55,-120.807 L 184.599,-120.9  L 184.628,-121.005 L 184.638,-121.122 L 184.635,-121.188 L 184.626,-121.248 L 184.61,-121.304 L 184.589,-121.354  L 184.561,-121.399 L 184.528,-121.44 L 184.49,-121.478 L 184.447,-121.513 L 184.399,-121.545 L 184.346,-121.574  L 184.288,-121.601 L 184.226,-121.626 L 184.16,-121.65 L 184.089,-121.671 L 184.014,-121.691 L 183.433,-121.828  L 183.294,-121.865 L 183.17,-121.901 L 183.062,-121.938 L 182.97,-121.974 L 182.89,-122.012 L 182.816,-122.051  L 182.75,-122.092 L 182.69,-122.134 L 182.638,-122.178 L 182.591,-122.225 L 182.55,-122.274 L 182.512,-122.327  L 182.479,-122.383 L 182.451,-122.442 L 182.428,-122.504 L 182.41,-122.57 L 182.397,-122.639 L 182.39,-122.712  L 182.387,-122.788 L 182.4,-122.959 L 182.441,-123.113 L 182.508,-123.251 L 182.603,-123.373 L 182.724,-123.478  L 182.871,-123.565 L 183.041,-123.633 L 183.234,-123.681 L 183.451,-123.71 L 183.691,-123.72 L 183.914,-123.713  L 184.115,-123.691 L 184.294,-123.655 L 184.45,-123.605 L 184.585,-123.54 L 184.702,-123.458 L 184.803,-123.356  L 184.89,-123.234 L 184.962,-123.092 L 185.019,-122.93 L 184.561,-122.849 L 184.525,-122.952 L 184.478,-123.043  L 184.421,-123.123 L 184.352,-123.19 L 184.273,-123.245 L 184.182,-123.29 L 184.077,-123.324 L 183.96,-123.349  L 183.829,-123.364 L 183.686,-123.369 L 183.529,-123.363 L 183.388,-123.347 L 183.262,-123.319 L 183.152,-123.279  L 183.057,-123.229 L 182.979,-123.168 L 182.918,-123.096 L 182.875,-123.013 L 182.849,-122.918 L 182.84,-122.813  L 182.843,-122.751 L 182.853,-122.693 L 182.87,-122.64 L 182.894,-122.591 L 182.924,-122.547 L 182.961,-122.506  L 183.003,-122.468 L 183.051,-122.433 L 183.106,-122.399 L 183.166,-122.369 L 183.242,-122.338 L 183.343,-122.305  L 183.47,-122.27 L 183.621,-122.231 L 183.798,-122.19 L 184.175,-122.098 L 184.297,-122.063 L 184.414,-122.023  L 184.526,-121.978 L 184.58,-121.953 L 184.632,-121.926 L 184.683,-121.898 L 184.732,-121.868 L 184.778,-121.836  L 184.822,-121.801 L 184.863,-121.763 L 184.901,-121.723 L 184.937,-121.68 L 184.969,-121.634 L 184.998,-121.585  L 185.024,-121.533 L 185.046,-121.478 L 185.065,-121.42 L 185.08,-121.357 L 185.091,-121.291 L 185.097,-121.221  L 185.099,-121.147 L 185.084,-120.963 L 185.039,-120.796 L 184.965,-120.647 L 184.861,-120.515 L 184.727,-120.4  L 184.566,-120.305 L 184.382,-120.231 L 184.172,-120.178 L 183.939,-120.147 L 183.681,-120.136 z M 231.727,-75.0304 L 232.064,-75.1206 L 232.38,-75.268 L 232.666,-75.4679 L 232.912,-75.7144 L 233.112,-76  L 233.259,-76.316 L 233.35,-76.6527 L 233.38,-77 L 233.38,-109 L 233.35,-109.347 L 233.259,-109.684  L 233.112,-110 L 232.912,-110.286 L 232.666,-110.532 L 232.38,-110.732 L 232.064,-110.879 L 231.727,-110.97  L 231.38,-111 L 219.68,-111 L 219.333,-110.97 L 218.996,-110.879 L 218.68,-110.732 L 218.394,-110.532  L 218.148,-110.286 L 217.948,-110 L 217.801,-109.684 L 217.71,-109.347 L 217.68,-109 L 217.68,-77  L 217.71,-76.6527 L 217.801,-76.316 L 217.948,-76 L 218.148,-75.7144 L 218.394,-75.4679 L 218.68,-75.268  L 218.996,-75.1206 L 219.333,-75.0304 L 219.68,-75 L 231.38,-75 z M 220.902,-76.9709 L 220.526,-77.0757 L 220.236,-77.2503 L 220.029,-77.4947 L 219.907,-77.809 L 220.358,-77.899  L 220.396,-77.7816 L 220.448,-77.6774 L 220.515,-77.5864 L 220.595,-77.5086 L 220.689,-77.444 L 220.798,-77.3918  L 220.921,-77.3512 L 221.058,-77.3222 L 221.211,-77.3048 L 221.378,-77.299 L 221.55,-77.3053 L 221.706,-77.3243  L 221.845,-77.3559 L 221.967,-77.4001 L 222.073,-77.457 L 222.161,-77.5262 L 222.23,-77.6072 L 222.279,-77.7002  L 222.308,-77.8051 L 222.318,-77.922 L 222.315,-77.9878 L 222.306,-78.0484 L 222.29,-78.1038 L 222.269,-78.154  L 222.241,-78.199 L 222.208,-78.2399 L 222.17,-78.2779 L 222.127,-78.3129 L 222.079,-78.3449 L 222.026,-78.374  L 221.968,-78.4011 L 221.906,-78.4263 L 221.84,-78.4497 L 221.769,-78.4713 L 221.694,-78.491 L 221.113,-78.6284  L 220.974,-78.6648 L 220.85,-78.7012 L 220.742,-78.7376 L 220.65,-78.774 L 220.57,-78.8116 L 220.496,-78.8508  L 220.43,-78.8916 L 220.37,-78.934 L 220.318,-78.978 L 220.271,-79.0247 L 220.23,-79.0745 L 220.192,-79.1273  L 220.159,-79.1831 L 220.131,-79.242 L 220.108,-79.3042 L 220.09,-79.3698 L 220.077,-79.439 L 220.07,-79.5117  L 220.067,-79.588 L 220.08,-79.759 L 220.121,-79.9134 L 220.188,-80.0514 L 220.283,-80.173 L 220.404,-80.278  L 220.551,-80.3651 L 220.721,-80.4329 L 220.914,-80.4813 L 221.131,-80.5103 L 221.371,-80.52 L 221.594,-80.5128  L 221.795,-80.4912 L 221.974,-80.4552 L 222.13,-80.4048 L 222.265,-80.34 L 222.382,-80.2583 L 222.483,-80.1565  L 222.57,-80.0345 L 222.642,-79.8923 L 222.699,-79.73 L 222.241,-79.649 L 222.205,-79.7522 L 222.158,-79.8434  L 222.101,-79.9226 L 222.032,-79.9898 L 221.953,-80.045 L 221.862,-80.0896 L 221.757,-80.1244 L 221.64,-80.1492  L 221.509,-80.164 L 221.366,-80.169 L 221.209,-80.1634 L 221.068,-80.1466 L 220.942,-80.1186 L 220.832,-80.0794  L 220.737,-80.029 L 220.659,-79.9679 L 220.598,-79.8957 L 220.555,-79.8125 L 220.529,-79.7183 L 220.52,-79.613  L 220.523,-79.5508 L 220.533,-79.4931 L 220.55,-79.44 L 220.574,-79.3912 L 220.604,-79.347 L 220.641,-79.3063  L 220.683,-79.2681 L 220.731,-79.2325 L 220.786,-79.1995 L 220.846,-79.169 L 220.922,-79.1385 L 221.023,-79.1053  L 221.15,-79.0695 L 221.301,-79.0311 L 221.478,-78.99 L 221.855,-78.8982 L 221.977,-78.863 L 222.094,-78.823  L 222.206,-78.7776 L 222.26,-78.7525 L 222.312,-78.726 L 222.363,-78.698 L 222.412,-78.6683 L 222.458,-78.6359  L 222.502,-78.6009 L 222.543,-78.5633 L 222.581,-78.523 L 222.617,-78.4799 L 222.649,-78.4339 L 222.678,-78.3849  L 222.704,-78.3329 L 222.726,-78.278 L 222.745,-78.2196 L 222.76,-78.1573 L 222.771,-78.0912 L 222.777,-78.021  L 222.779,-77.947 L 222.764,-77.7629 L 222.719,-77.5961 L 222.645,-77.4467 L 222.541,-77.3147 L 222.407,-77.2  L 222.246,-77.1049 L 222.062,-77.031 L 221.852,-76.9782 L 221.619,-76.9466 L 221.361,-76.936 z M 194.047,-75.0304 L 194.384,-75.1206 L 194.7,-75.268 L 194.986,-75.4679 L 195.232,-75.7144 L 195.432,-76  L 195.579,-76.316 L 195.67,-76.6527 L 195.7,-77 L 195.7,-109 L 195.67,-109.347 L 195.579,-109.684  L 195.432,-110 L 195.232,-110.286 L 194.986,-110.532 L 194.7,-110.732 L 194.384,-110.879 L 194.047,-110.97  L 193.7,-111 L 182,-111 L 181.653,-110.97 L 181.316,-110.879 L 181,-110.732 L 180.714,-110.532  L 180.468,-110.286 L 180.268,-110 L 180.121,-109.684 L 180.03,-109.347 L 180,-109 L 180,-77  L 180.03,-76.6527 L 180.121,-76.316 L 180.268,-76 L 180.468,-75.7144 L 180.714,-75.4679 L 181,-75.268  L 181.316,-75.1206 L 181.653,-75.0304 L 182,-75 L 193.7,-75 z M 183.222,-76.9709 L 182.846,-77.0757 L 182.556,-77.2503 L 182.349,-77.4947 L 182.227,-77.809 L 182.678,-77.899  L 182.716,-77.7816 L 182.768,-77.6774 L 182.835,-77.5864 L 182.915,-77.5086 L 183.009,-77.444 L 183.118,-77.3918  L 183.241,-77.3512 L 183.378,-77.3222 L 183.531,-77.3048 L 183.698,-77.299 L 183.87,-77.3053 L 184.026,-77.3243  L 184.165,-77.3559 L 184.287,-77.4001 L 184.393,-77.457 L 184.481,-77.5262 L 184.55,-77.6072 L 184.599,-77.7002  L 184.628,-77.8051 L 184.638,-77.922 L 184.635,-77.9878 L 184.626,-78.0484 L 184.61,-78.1038 L 184.589,-78.154  L 184.561,-78.199 L 184.528,-78.2399 L 184.49,-78.2779 L 184.447,-78.3129 L 184.399,-78.3449 L 184.346,-78.374  L 184.288,-78.4011 L 184.226,-78.4263 L 184.16,-78.4497 L 184.089,-78.4713 L 184.014,-78.491 L 183.433,-78.6284  L 183.294,-78.6648 L 183.17,-78.7012 L 183.062,-78.7376 L 182.97,-78.774 L 182.89,-78.8116 L 182.816,-78.8508  L 182.75,-78.8916 L 182.69,-78.934 L 182.638,-78.978 L 182.591,-79.0247 L 182.55,-79.0745 L 182.512,-79.1273  L 182.479,-79.1831 L 182.451,-79.242 L 182.428,-79.3042 L 182.41,-79.3698 L 182.397,-79.439 L 182.39,-79.5117  L 182.387,-79.588 L 182.4,-79.759 L 182.441,-79.9134 L 182.508,-80.0514 L 182.603,-80.173 L 182.724,-80.278  L 182.871,-80.3651 L 183.041,-80.4329 L 183.234,-80.4813 L 183.451,-80.5103 L 183.691,-80.52 L 183.914,-80.5128  L 184.115,-80.4912 L 184.294,-80.4552 L 184.45,-80.4048 L 184.585,-80.34 L 184.702,-80.2583 L 184.803,-80.1565  L 184.89,-80.0345 L 184.962,-79.8923 L 185.019,-79.73 L 184.561,-79.649 L 184.525,-79.7522 L 184.478,-79.8434  L 184.421,-79.9226 L 184.352,-79.9898 L 184.273,-80.045 L 184.182,-80.0896 L 184.077,-80.1244 L 183.96,-80.1492  L 183.829,-80.164 L 183.686,-80.169 L 183.529,-80.1634 L 183.388,-80.1466 L 183.262,-80.1186 L 183.152,-80.0794  L 183.057,-80.029 L 182.979,-79.9679 L 182.918,-79.8957 L 182.875,-79.8125 L 182.849,-79.7183 L 182.84,-79.613  L 182.843,-79.5508 L 182.853,-79.4931 L 182.87,-79.44 L 182.894,-79.3912 L 182.924,-79.347 L 182.961,-79.3063  L 183.003,-79.2681 L 183.051,-79.2325 L 183.106,-79.1995 L 183.166,-79.169 L 183.242,-79.1385 L 183.343,-79.1053  L 183.47,-79.0695 L 183.621,-79.0311 L 183.798,-78.99 L 184.175,-78.8982 L 184.297,-78.863 L 184.414,-78.823  L 184.526,-78.7776 L 184.58,-78.7525 L 184.632,-78.726 L 184.683,-78.698 L 184.732,-78.6683 L 184.778,-78.6359  L 184.822,-78.6009 L 184.863,-78.5633 L 184.901,-78.523 L 184.937,-78.4799 L 184.969,-78.4339 L 184.998,-78.3849  L 185.024,-78.3329 L 185.046,-78.278 L 185.065,-78.2196 L 185.08,-78.1573 L 185.091,-78.0912 L 185.097,-78.021  L 185.099,-77.947 L 185.084,-77.7629 L 185.039,-77.5961 L 184.965,-77.4467 L 184.861,-77.3147 L 184.727,-77.2  L 184.566,-77.1049 L 184.382,-77.031 L 184.172,-76.9782 L 183.939,-76.9466 L 183.681,-76.936 z M 212.887,-75.0304 L 213.224,-75.1206 L 213.54,-75.268 L 213.826,-75.4679 L 214.072,-75.7144 L 214.272,-76  L 214.419,-76.316 L 214.51,-76.6527 L 214.54,-77 L 214.54,-109 L 214.51,-109.347 L 214.419,-109.684  L 214.272,-110 L 214.072,-110.286 L 213.826,-110.532 L 213.54,-110.732 L 213.224,-110.879 L 212.887,-110.97  L 212.54,-111 L 200.84,-111 L 200.493,-110.97 L 200.156,-110.879 L 199.84,-110.732 L 199.554,-110.532  L 199.308,-110.286 L 199.108,-110 L 198.961,-109.684 L 198.87,-109.347 L 198.84,-109 L 198.84,-77  L 198.87,-76.6527 L 198.961,-76.316 L 199.108,-76 L 199.308,-75.7144 L 199.554,-75.4679 L 199.84,-75.268  L 200.156,-75.1206 L 200.493,-75.0304 L 200.84,-75 L 212.54,-75 z M 202.062,-76.9709 L 201.686,-77.0757 L 201.396,-77.2503 L 201.189,-77.4947 L 201.067,-77.809 L 201.518,-77.899  L 201.556,-77.7816 L 201.608,-77.6774 L 201.675,-77.5864 L 201.755,-77.5086 L 201.849,-77.444 L 201.958,-77.3918  L 202.081,-77.3512 L 202.218,-77.3222 L 202.371,-77.3048 L 202.538,-77.299 L 202.71,-77.3053 L 202.866,-77.3243  L 203.005,-77.3559 L 203.127,-77.4001 L 203.233,-77.457 L 203.321,-77.5262 L 203.39,-77.6072 L 203.439,-77.7002  L 203.468,-77.8051 L 203.478,-77.922 L 203.475,-77.9878 L 203.466,-78.0484 L 203.45,-78.1038 L 203.429,-78.154  L 203.401,-78.199 L 203.368,-78.2399 L 203.33,-78.2779 L 203.287,-78.3129 L 203.239,-78.3449 L 203.186,-78.374  L 203.128,-78.4011 L 203.066,-78.4263 L 203,-78.4497 L 202.929,-78.4713 L 202.854,-78.491 L 202.273,-78.6284  L 202.134,-78.6648 L 202.01,-78.7012 L 201.902,-78.7376 L 201.81,-78.774 L 201.73,-78.8116 L 201.656,-78.8508  L 201.59,-78.8916 L 201.53,-78.934 L 201.478,-78.978 L 201.431,-79.0247 L 201.39,-79.0745 L 201.352,-79.1273  L 201.319,-79.1831 L 201.291,-79.242 L 201.268,-79.3042 L 201.25,-79.3698 L 201.237,-79.439 L 201.23,-79.5117  L 201.227,-79.588 L 201.24,-79.759 L 201.281,-79.9134 L 201.348,-80.0514 L 201.443,-80.173 L 201.564,-80.278  L 201.711,-80.3651 L 201.881,-80.4329 L 202.074,-80.4813 L 202.291,-80.5103 L 202.531,-80.52 L 202.754,-80.5128  L 202.955,-80.4912 L 203.134,-80.4552 L 203.29,-80.4048 L 203.425,-80.34 L 203.542,-80.2583 L 203.643,-80.1565  L 203.73,-80.0345 L 203.802,-79.8923 L 203.859,-79.73 L 203.401,-79.649 L 203.365,-79.7522 L 203.318,-79.8434  L 203.261,-79.9226 L 203.192,-79.9898 L 203.113,-80.045 L 203.022,-80.0896 L 202.917,-80.1244 L 202.8,-80.1492  L 202.669,-80.164 L 202.526,-80.169 L 202.369,-80.1634 L 202.228,-80.1466 L 202.102,-80.1186 L 201.992,-80.0794  L 201.897,-80.029 L 201.819,-79.9679 L 201.758,-79.8957 L 201.715,-79.8125 L 201.689,-79.7183 L 201.68,-79.613  L 201.683,-79.5508 L 201.693,-79.4931 L 201.71,-79.44 L 201.734,-79.3912 L 201.764,-79.347 L 201.801,-79.3063  L 201.843,-79.2681 L 201.891,-79.2325 L 201.946,-79.1995 L 202.006,-79.169 L 202.082,-79.1385 L 202.183,-79.1053  L 202.31,-79.0695 L 202.461,-79.0311 L 202.638,-78.99 L 203.015,-78.8982 L 203.137,-78.863 L 203.254,-78.823  L 203.366,-78.7776 L 203.42,-78.7525 L 203.472,-78.726 L 203.523,-78.698 L 203.572,-78.6683 L 203.618,-78.6359  L 203.662,-78.6009 L 203.703,-78.5633 L 203.741,-78.523 L 203.777,-78.4799 L 203.809,-78.4339 L 203.838,-78.3849  L 203.864,-78.3329 L 203.886,-78.278 L 203.905,-78.2196 L 203.92,-78.1573 L 203.931,-78.0912 L 203.937,-78.021  L 203.939,-77.947 L 203.924,-77.7629 L 203.879,-77.5961 L 203.805,-77.4467 L 203.701,-77.3147 L 203.567,-77.2  L 203.406,-77.1049 L 203.222,-77.031 L 203.012,-76.9782 L 202.779,-76.9466 L 202.521,-76.936 z M -164,66.4 L -155.99,66.4 L -155.99,70 L -147.98,70 L -147.98,66.4 L -139.97,66.4  L -139.97,70 L -131.96,70 L -131.96,66.4 L -123.95,66.4 L -123.95,70 L -115.94,70  L -115.94,66.4 L -107.93,66.4 L -107.93,70 L -99.92,70 L -99.92,66.4 L -91.91,66.4  L -91.91,70 L -83.9,70 L -83.9,66.4 L -75.89,66.4 L -75.89,70 L -67.88,70  L -67.88,66.4 L -59.87,66.4 L -59.87,70 L -51.86,70 L -51.86,66.4 L -43.85,66.4  L -43.85,70 L -35.84,70 L -35.84,66.4 L -27.83,66.4 L -27.83,70 L -19.82,70  L -19.82,66.4 L -11.81,66.4 L -11.81,70 L -3.8,70 L -3.8,66.4 L 4.20999,66.4  L 4.20999,70 L 12.22,70 L 12.22,66.4 L 20.23,66.4 L 20.23,70 L 28.24,70  L 28.24,66.4 L 36.25,66.4 L 36.25,70 L 44.26,70 L 44.26,66.4 L 52.27,66.4  L 52.27,70 L 60.28,70 L 60.28,66.4 L 68.29,66.4 L 68.29,70 L 76.3,70  L 76.3,66.4 L 84.31,66.4 L 84.31,70 L 92.32,70 L 92.32,66.4 L 100.33,66.4  L 100.33,70 L 108.34,70 L 108.34,66.4 L 116.35,66.4 L 116.35,70 L 124.36,70  L 124.36,66.4 L 132.37,66.4 L 132.37,70 L 140.38,70 L 140.38,66.4 L 148.39,66.4  L 148.39,70 L 156.4,70 L 156.4,66.4 L 164.41,66.4 L 164.41,70 L 171.39,70  L 171.39,60 L 175,60 L 175,52 L 171.39,52 L 171.39,44 L 175,44  L 175,36 L 171.39,36 L 171.39,28 L 175,28 L 175,20 L 171.39,20  L 171.39,12 L 175,12 L 175,4 L 171.39,4 L 171.39,-4 L 175,-4  L 175,-12 L 171.39,-12 L 171.39,-20 L 175,-20 L 175,-28 L 171.39,-28  L 171.39,-36 L 175,-36 L 175,-44 L 171.39,-44 L 171.39,-52 L 175,-52  L 175,-60 L 171.39,-60 L 171.39,-70 L 164.41,-70 L 164.41,-66.41 L 156.4,-66.41  L 156.4,-70 L 148.39,-70 L 148.39,-66.41 L 140.38,-66.41 L 140.38,-70 L 132.37,-70  L 132.37,-66.41 L 124.36,-66.41 L 124.36,-70 L 116.35,-70 L 116.35,-66.41 L 108.34,-66.41  L 108.34,-70 L 100.33,-70 L 100.33,-66.41 L 92.32,-66.41 L 92.32,-70 L 84.31,-70  L 84.31,-66.41 L 76.3,-66.41 L 76.3,-70 L 68.29,-70 L 68.29,-66.41 L 60.28,-66.41  L 60.28,-70 L 52.27,-70 L 52.27,-66.41 L 44.26,-66.41 L 44.26,-70 L 36.25,-70  L 36.25,-66.41 L 28.24,-66.41 L 28.24,-70 L 20.23,-70 L 20.23,-66.41 L 12.22,-66.41  L 12.22,-70 L 4.20999,-70 L 4.20999,-66.41 L -3.8,-66.41 L -3.8,-70 L -11.81,-70  L -11.81,-66.41 L -19.82,-66.41 L -19.82,-70 L -27.83,-70 L -27.83,-66.41 L -35.84,-66.41  L -35.84,-70 L -43.85,-70 L -43.85,-66.41 L -51.86,-66.41 L -51.86,-70 L -59.87,-70  L -59.87,-66.41 L -67.88,-66.41 L -67.88,-70 L -75.89,-70 L -75.89,-66.41 L -83.9,-66.41  L -83.9,-70 L -91.91,-70 L -91.91,-66.41 L -99.92,-66.41 L -99.92,-70 L -107.93,-70  L -107.93,-66.41 L -115.94,-66.41 L -115.94,-70 L -123.95,-70 L -123.95,-66.41 L -131.96,-66.41  L -131.96,-70 L -139.97,-70 L -139.97,-66.41 L -147.98,-66.41 L -147.98,-70 L -155.99,-70  L -155.99,-66.41 L -164,-66.41 L -164,-70 L -171.4,-70 L -171.4,-60 L -175,-60  L -175,-52 L -171.4,-52 L -171.4,-44 L -175,-44 L -175,-36 L -171.4,-36  L -171.4,-28 L -175,-28 L -175,-20 L -171.4,-20 L -171.4,-12 L -175,-12  L -175,-4 L -171.4,-4 L -171.4,4 L -175,4 L -175,12 L -171.4,12  L -171.4,20 L -175,20 L -175,28 L -171.4,28 L -171.4,36 L -175,36  L -175,44 L -171.4,44 L -171.4,52 L -175,52 L -175,60 L -171.4,60  L -171.4,70 L -164,70 z M 272,66.4 L 280,66.4 L 280,70 L 288,70 L 288,66.4 L 296,66.4  L 296,70 L 304,70 L 304,66.4 L 312,66.4 L 312,70 L 320,70  L 320,66.4 L 328,66.4 L 328,70 L 338,70 L 338,60 L 334.39,60  L 334.39,52 L 338,52 L 338,44 L 334.39,44 L 334.39,36 L 338,36  L 338,28 L 334.39,28 L 334.39,20 L 338,20 L 338,12 L 334.39,12  L 334.39,4 L 338,4 L 338,-3.99998 L 334.39,-3.99998 L 334.39,-12 L 338,-12  L 338,-20 L 334.39,-20 L 334.39,-28 L 338,-28 L 338,-36 L 334.39,-36  L 334.39,-44 L 338,-44 L 338,-52 L 334.39,-52 L 334.39,-60 L 338,-60  L 338,-70 L 327.5,-70 L 327.5,-66.39 L 319.5,-66.39 L 319.5,-70 L 311.5,-70  L 311.5,-66.39 L 303.5,-66.39 L 303.5,-70 L 293,-70 L 230,70 L 240,70  L 240,66.4 L 248,66.4 L 248,70 L 256,70 L 256,66.4 L 264,66.4  L 264,70 L 272,70 z M 312.596,-51.9662 L 312.036,-53.0777 L 311.993,-53.0965 L 309.927,-57.9 L 324.034,-57.9 L 324.374,-57.0927  L 324.363,-57.0696 L 324.698,-56.1002 L 323.389,-42.5787 z M 300.221,-56.561 L 300.824,-57.9 L 305.507,-57.9 L 306.541,-54.8456 z M 297.261,-49.984 L 298.425,-52.5689 L 299.238,-52.2881 L 298.321,-49.1244 z M 300.766,-51.761 L 302.561,-51.1413 L 300.318,-49.6318 z M 317.88,-19.1551 L 316.922,-19.658 L 316.509,-19.5294 L 305.276,-25.2383 L 304.967,-25.6433 L 304.898,-25.7592  L 311.238,-29.9362 L 310.24,-31.5921 L 304.671,-28.5383 L 306.059,-33.058 L 304.647,-33.5502 L 302.711,-28.6007  L 298.953,-33.525 L 299.822,-46.2276 L 304.948,-50.3175 L 309.177,-48.8581 L 309.233,-48.8055 L 309.349,-48.799  L 309.506,-48.7448 L 309.519,-48.7892 L 309.649,-48.7818 L 323.496,-34.6779 L 323.546,-34.7315 L 323.761,-34.4805  L 325.9,-28.6629 L 325.9,-18.7929 z M 294.811,-40.711 L 294.858,-40.9681 L 294.807,-40.9953 L 295.034,-45.034 L 296.178,-47.5771 L 297.521,-46.3096  L 296.373,-37.7408 z M 290.799,-35.6233 L 292.965,-40.4371 L 293.511,-40.0232 L 295.695,-35.012 z M 289.672,-26.2945 L 289.313,-26.5855 L 289.162,-26.4878 L 287.079,-27.3553 L 290.032,-33.9192 L 294.786,-32.9684  L 294.762,-32.9456 L 300.827,-26.0782 z M 286.078,-25.1324 L 286.194,-25.0739 L 285.995,-24.9475 z M 291.651,-15.3277 L 291.452,-15.569 L 291.388,-15.5438 L 287.075,-19.6041 L 286.183,-18.7252 L 289.567,-15.0241  L 286.195,-14.0089 L 281.39,-14.7148 L 283.965,-20.4352 L 290.063,-23.5737 L 290.005,-23.6743 L 292.049,-23.4967  L 292.045,-23.4921 L 296.714,-19.2278 L 298.424,-14.07 L 298.01,-13.9391 z M 294.144,-23.3146 L 297.3,-23.0404 L 296.874,-21.1522 z M 298.125,-19.8176 L 298.198,-20.0795 L 298.148,-20.1124 L 298.565,-22.9305 L 300.861,-22.731 L 299.463,-16.5938  z M 303.426,-22.5081 L 303.892,-22.4677 L 303.897,-22.5688 L 311.191,-18.1073 L 302.268,-15.2854 z M 320.114,4.7018 L 319.042,4.0732 L 318.578,4.15187 L 307.506,-2.80469 L 307.224,-3.25317 L 307.135,-3.44023  L 307.105,-3.44249 L 302.413,-10.9103 L 317.396,-14.6561 L 317.329,-14.8925 L 317.498,-14.9453 L 325.9,-13.7977  L 325.9,5.49309 z M 290.357,-13.3973 L 291.28,-13.6057 L 293.58,-12.9238 z M 282.475,-10.0788 L 282.329,-10.405 L 282.251,-10.3966 L 281.757,-11.2102 L 290.329,-9.35464 L 288.579,-6.85959  z M 279.745,-11.0577 L 280.089,-10.3801 L 279.433,-10.3655 z M 292.486,-5.25453 L 295.647,-9.21887 L 299.794,-10.2557 L 303.016,-4.08992 z M 275.722,-2.11771 L 278.567,-8.4407 L 281.541,-8.29781 L 287.136,-4.80194 L 286.398,-3.74988 L 281.4,-1.17479  z M 295.046,9.05849 L 295.05,9.0452 L 283.841,6.34158 L 283.866,5.55705 L 289.688,-1.74454 L 291.591,-2.51492  L 291.541,-2.6246 L 305.811,-0.0654297 L 305.826,-0.169617 L 312.961,5.1391 L 295.051,9.05942 z M 273.799,2.15518 L 274.597,0.38179 L 278.651,1.35167 L 276.309,3.91586 z M 278.012,4.9359 L 281.678,1.48885 L 281.681,1.49559 L 283.131,0.908737 L 280.986,3.9669 L 280.302,4.3226  L 280.239,4.64685 L 279.28,5.24161 z M 272.556,4.91716 L 273.154,5.4057 L 272.176,5.76184 z M 262.232,27.8586 L 269.776,11.0939 L 271.193,11.3155 L 267.701,15.8083 L 268.885,16.8026 L 273.946,11.221  L 273.949,11.2269 L 279.094,8.65135 L 280.037,8.94736 L 280.496,18.3482 L 280.451,18.414 L 280.324,18.6931  L 280.247,18.99 L 280.222,19.2958 L 280.249,19.5709 L 279.994,24.6817 L 279.593,25.155 L 278.852,25.4589  L 278.755,25.7888 L 271.382,29.4833 z M 286.24,43.6529 L 285.956,43.8103 L 280.797,42.1265 L 280.853,41.8497 L 280.951,41.5765 L 281.005,41.262  L 281.003,40.943 L 280.947,40.6291 L 280.836,40.3298 L 280.794,40.2581 L 281.392,35.4302 L 281.931,35.4732  L 282.909,26.57 L 296.022,12.8798 L 319.062,9.29877 L 319.048,9.22795 L 319.365,9.04803 L 325.9,10.5543  L 325.9,18.4719 L 321.213,23.9643 L 321.094,23.9907 L 320.709,24.1507 L 320.357,24.3751 L 320.05,24.6572  L 320.005,24.7157 L 319.896,24.6219 L 305.594,42.2889 L 286.939,43.9415 z M 283.647,19.8429 L 283.717,19.5727 L 283.742,19.2669 L 283.712,18.9616 L 283.631,18.6659 L 283.499,18.389  L 283.452,18.324 L 283.719,10.1022 L 290.527,12.2378 L 283.581,20.4434 z M 312.767,57.9 L 308.722,44.3744 L 323.736,27.923 L 323.627,27.8292 L 323.835,27.5566 L 324.028,27.1864  L 324.153,26.7884 L 324.169,26.6678 L 325.9,24.9014 L 325.9,57.9 z M 248.714,57.9 L 261.284,29.9668 L 268.757,31.843 L 264.717,36.1673 L 265.85,37.3089 L 271.617,32.0047  L 271.62,32.0111 L 278.174,29.4438 L 277.73,40.0045 L 277.677,40.0684 L 277.65,40.1152 L 272.215,32.4221  L 270.547,33.5152 L 275.225,41.235 L 269.642,41.4549 L 269.644,42.9733 L 277.037,43.2428 L 277.035,43.2489  L 277.073,43.2654 L 275.77,52.4694 L 273.502,52.1949 L 273.23,53.9921 L 273.681,54.0742 L 268.651,57.9  z M 280.285,44.6487 L 283.139,45.8775 L 279.315,49.4308 z M 285.859,53.8279 L 285.813,53.7912 L 285.615,53.6834 L 285.401,53.6116 L 285.178,53.578 L 284.975,53.5831  L 280.104,52.9938 L 287.567,47.1104 L 301.59,46.7331 L 294.806,54.023 z M 297.144,57.9 L 296.841,55.7524 L 304.978,48.0731 L 308.627,57.9 z M 273.841,57.9 L 275.123,57.0401 L 275.067,57.4413 L 277.602,57.8774 L 278.206,54.8974 L 284.6,56.0605  L 284.794,56.1259 L 285.017,56.1595 L 285.242,56.1539 L 285.463,56.1092 L 285.673,56.0269 L 285.723,55.9963  L 291.995,56.6445 L 290.519,57.9 z M 294.029,57.9 L 294.081,57.8615 L 294.088,57.9 z M 190.5,66.39 L 198.5,66.39 L 198.5,70 L 206.5,70 L 206.5,66.39 L 214.5,66.39  L 214.5,70 L 225,70 L 288,-70 L 278,-70 L 278,-66.4 L 270,-66.4  L 270,-70 L 262,-70 L 262,-66.4 L 254,-66.4 L 254,-70 L 246,-70  L 246,-66.4 L 238,-66.4 L 238,-70 L 230,-70 L 230,-66.4 L 222,-66.4  L 222,-70 L 214,-70 L 214,-66.4 L 206,-66.4 L 206,-70 L 198,-70  L 198,-66.4 L 190,-66.4 L 190,-70 L 180,-70 L 180,-60 L 183.61,-60  L 183.61,-52 L 180,-52 L 180,-44 L 183.61,-44 L 183.61,-36 L 180,-36  L 180,-28 L 183.61,-28 L 183.61,-20 L 180,-20 L 180,-12 L 183.61,-12  L 183.61,-3.99998 L 180,-3.99998 L 180,4 L 183.61,4 L 183.61,12 L 180,12  L 180,20 L 183.61,20 L 183.61,28 L 180,28 L 180,36 L 183.61,36  L 183.61,44 L 180,44 L 180,52 L 183.61,52 L 183.61,60 L 180,60  L 180,70 L 190.5,70 z M 224.618,-41.3763 L 224.674,-42.609 L 230.341,-46.0477 L 230.627,-46.012 L 230.742,-46.2578 L 230.939,-46.2855  L 230.98,-46.2552 L 231.007,-46.295 L 236.628,-47.0837 L 236.519,-48.0739 L 231.98,-47.7125 L 235.115,-52.2783  L 233.923,-53.1683 L 229.324,-47.4912 L 229.431,-47.4118 L 225.607,-45.5033 L 230.352,-55.5408 L 231.506,-56.6621  L 231.6,-57.2008 L 232.527,-57.9 L 255.562,-57.9 L 251.723,-49.9098 L 251.348,-49.5201 L 251.37,-49.3518  L 242.123,-40.5817 L 241.452,-40.379 z M 207.302,-56.6608 L 208.723,-57.9 L 220.065,-57.9 L 220.503,-56.9975 L 219.873,-56.6056 L 216.606,-56.1443  L 216.475,-56.5265 L 215.142,-56.1291 L 215.189,-55.9443 L 212.349,-55.5432 L 212.355,-55.5119 z M 259.001,-57.9 L 269.286,-57.9 L 268.393,-55.9158 L 267.026,-54.5266 L 267.061,-54.495 L 256.657,-51.7194  z M 194.886,-57.9 L 203.547,-57.9 L 202.771,-57.3041 L 202.826,-57.2373 L 194.646,-55.0407 z M 223.155,-57.02 L 223.708,-57.4119 L 223.351,-56.6863 z M 219.689,-49.6652 L 219.685,-49.6382 L 218.462,-50.7152 L 217.241,-54.285 L 219.964,-54.91 L 220.233,-54.7814  L 220.299,-54.8502 L 221.875,-54.1745 L 222.236,-53.4306 L 222.314,-53.4724 L 222.277,-52.0832 L 220.741,-49.4638  z M 192.1,-43.4188 L 193.389,-49.951 L 193.833,-50.6916 L 203.818,-54.347 L 204.423,-54.2135 L 204.605,-54.4122  L 211.96,-53.4342 L 213.256,-52.4457 L 211.22,-53.1445 L 210.669,-51.7294 L 217.377,-48.8038 L 217.403,-48.8702  L 219.137,-46.7272 L 215.575,-40.6509 L 215.353,-40.4632 L 215.299,-40.3113 L 192.1,-30.2464 z M 214.993,-53.7689 L 215.704,-53.9321 L 215.964,-52.9142 z M 254.217,-47.03 L 254.796,-47.2455 L 266.265,-51.1862 L 262.478,-42.7713 L 261.085,-42.1597 L 260.354,-42.0897  L 260.059,-41.7901 L 249.14,-41.2463 z M 259.509,-37.1545 L 259.981,-37.2216 L 258.479,-33.8829 L 258.341,-33.8492 z M 250.148,-32.2267 L 250.258,-33.1712 L 250.267,-33.1656 L 252.034,-36.092 L 257.002,-36.7982 L 255.13,-32.6104  L 255.212,-32.5776 L 251.833,-29.8925 z M 247.793,-35.4894 L 247.831,-35.4948 L 247.86,-35.3969 z M 224.038,-29.8628 L 224.134,-29.9444 L 224.385,-30.2491 L 224.58,-30.5927 L 224.712,-30.9649 L 224.777,-31.3544  L 224.774,-31.7493 L 224.702,-32.1377 L 224.564,-32.5078 L 224.364,-32.8482 L 224.239,-32.9945 L 224.336,-35.1399  L 241.348,-35.435 L 241.623,-35.3395 L 247.532,-28.2552 L 247.052,-25.7906 L 238.931,-20.5388 L 238.716,-20.5748  L 238.321,-20.5716 L 237.933,-20.4998 L 237.563,-20.3617 L 237.222,-20.1614 L 236.922,-19.905 L 236.67,-19.6004  L 236.608,-19.4909 L 220,-12.17 z M 192.1,-2.61473 L 192.1,-21.6825 L 217.886,-34.8203 L 218.038,-34.7657 L 219.662,-35.0588 L 221.297,-35.0871  L 221.069,-33.2638 L 220.904,-33.1228 L 220.652,-32.8182 L 220.457,-32.4746 L 220.325,-32.1024 L 220.26,-31.7129  L 220.263,-31.3179 L 220.335,-30.9295 L 220.379,-30.8117 L 214.089,-9.1853 L 192.822,-2.59772 z M 253.3,-27.859 L 256.674,-30.9854 L 256.677,-30.9733 L 257.256,-31.1651 L 254.82,-25.7531 z M 237.392,2.30412 L 237.379,2.36794 L 237.302,2.34933 L 237.08,2.33484 L 236.858,2.35919 L 236.792,2.37846  L 225.226,-1.94992 L 225.203,-1.88126 L 220.006,-6.73029 L 238.234,-16.0777 L 238.358,-16.0568 L 238.753,-16.0601  L 239.142,-16.1318 L 239.512,-16.2699 L 239.852,-16.4702 L 240.153,-16.7266 L 240.404,-17.0312 L 240.599,-17.3749  L 240.731,-17.7472 L 240.763,-17.9369 L 248.408,-23.7852 L 252.387,-22.4347 L 252.997,-21.7025 L 241.691,3.42395  z M 218.742,14.5521 L 199.08,0.99231 L 216.063,-5.45529 L 216.481,-5.4297 L 223.654,0.16214 L 223.759,0.598801  L 223.97,0.615326 L 226.552,6.31129 L 225.883,13.4118 L 225.792,13.3542 L 225.196,14.3938 L 218.808,14.5694  z M 232.324,10.5367 L 228.226,5.65157 L 228.207,5.66962 L 226.781,1.5618 L 236.106,4.40245 L 236.147,4.45793  L 236.308,4.61212 L 236.493,4.73596 L 236.697,4.82571 L 236.838,4.86005 L 236.824,4.92384 L 240.711,5.60071  L 237.929,11.782 L 237.15,12.9109 z M 192.1,22.8977 L 192.1,4.45207 L 215.984,18.8295 L 216.838,19.8776 L 219.844,24.5166 L 212.768,27.8174  L 212.807,27.8947 L 200.677,28.4264 L 200.618,28.3901 L 200.493,28.4344 L 200.42,28.4376 z M 227.301,13.4883 L 227.28,13.4974 L 228.137,8.32199 L 231.157,11.3547 L 231.185,11.6037 L 231.263,11.6196  L 231.663,14.216 L 227.625,14.327 z M 232.529,12.0401 L 236.579,13.7391 L 236.542,13.7929 L 236.278,13.8118 L 235.984,14.0972 L 232.677,14.1881  z M 225.771,24.6899 L 227.301,23.8566 L 227.382,23.8684 L 227.649,23.86 L 227.91,23.8055 L 228.157,23.7065  L 228.304,23.6154 L 228.347,23.6806 L 234.59,19.2037 L 229.247,31.0751 z M 223.212,19.988 L 229.505,19.2539 L 226.588,21.0014 L 226.631,21.0666 L 226.551,21.116 L 226.353,21.2937  L 226.188,21.5033 L 226.149,21.5758 L 224.496,22.3468 z M 221.766,31.6254 L 221.765,31.6573 L 217.066,29.433 L 221.474,27.0312 L 224.596,31.8472 z M 192.1,57.9 L 192.1,53.5837 L 192.124,53.5778 L 194.035,56.3839 L 194.746,55.9424 L 193.325,53.4273  L 197.964,53.2041 L 197.948,52.3391 L 192.57,52.2753 L 192.1,52.0614 L 192.1,27.7628 L 198.707,31.5949  L 206.383,43.0244 L 203.036,53.7827 L 202.933,53.878 L 202.699,54.0401 L 202.712,54.0825 L 198.582,57.9  z M 208.938,41.6134 L 203.619,32.211 L 213.15,30.9414 L 213.714,31.2038 L 213.935,31.0487 L 220.926,33.6064  L 225.61,39.1589 L 224.099,42.5171 L 216.674,43.4579 L 216.679,43.49 z M 223.97,33.9383 L 225.942,33.9243 L 226.876,35.3654 L 226.296,37.1264 z M 219.346,45.3071 L 223.217,44.4764 L 221.83,47.5575 z M 216.17,50.6882 L 216.159,50.6127 L 215.899,50.5099 L 215.659,50.3513 L 215.638,50.3856 L 211.717,44.9367  L 216.246,45.6046 L 221.021,49.3552 L 219.558,52.6076 L 219.355,52.7893 z M 205.783,57.9 L 205.184,54.4221 L 208.42,46.119 L 213.54,52.0132 L 214.547,57.0903 L 213.96,57.6146  L 213.54,57.6404 L 213.477,57.8817 L 213.368,57.9 z M 216.673,54.2195 L 217.346,54.5857 L 216.783,55.0901 z M 201.491,57.9 L 203.237,56.5302 L 203.573,57.9 z M 171.4,109.5 L 175,109.5 L 175,101.5 L 171.4,101.5 L 171.4,93.5 L 175,93.5  L 175,85.5 L 171.4,85.5 L 171.4,78.6 L 164.205,78.6 L 164.205,75 L 156.195,75  L 156.195,78.6 L 148.185,78.6 L 148.185,75 L 140.175,75 L 140.175,78.6 L 132.165,78.6  L 132.165,75 L 124.155,75 L 124.155,78.6 L 116.145,78.6 L 116.145,75 L 108.135,75  L 108.135,78.6 L 100.125,78.6 L 100.125,75 L 92.115,75 L 92.115,78.6 L 84.105,78.6  L 84.105,75 L 76.095,75 L 76.095,78.6 L 68.085,78.6 L 68.085,75 L 60.075,75  L 60.075,78.6 L 52.065,78.6 L 52.065,75 L 44.055,75 L 44.055,78.6 L 36.045,78.6  L 36.045,75 L 28.035,75 L 28.035,78.6 L 20.025,78.6 L 20.025,75 L 12.015,75  L 12.015,78.6 L 4.005,78.6 L 4.005,75 L -4.00497,75 L -4.00497,78.6 L -12.015,78.6  L -12.015,75 L -20.025,75 L -20.025,78.6 L -28.035,78.6 L -28.035,75 L -36.045,75  L -36.045,78.6 L -44.055,78.6 L -44.055,75 L -52.065,75 L -52.065,78.6 L -60.075,78.6  L -60.075,75 L -68.085,75 L -68.085,78.6 L -76.095,78.6 L -76.095,75 L -84.105,75  L -84.105,78.6 L -92.115,78.6 L -92.115,75 L -100.125,75 L -100.125,78.6 L -108.135,78.6  L -108.135,75 L -116.145,75 L -116.145,78.6 L -124.155,78.6 L -124.155,75 L -132.165,75  L -132.165,78.6 L -140.175,78.6 L -140.175,75 L -148.185,75 L -148.185,78.6 L -156.195,78.6  L -156.195,75 L -164.205,75 L -164.205,78.6 L -171.39,78.6 L -171.39,85.5 L -175,85.5  L -175,93.5 L -171.39,93.5 L -171.39,101.5 L -175,101.5 L -175,109.5 L -171.39,109.5  L -171.39,120 L 171.4,120 z M -159.3,104.3 L -159.3,90.7 L -142.221,90.7 L -158.37,104.3 z M -123.98,104.3 L -122.317,90.7 L -63.218,90.7 L -67.0146,99.9081 L -67.3217,100.091 L -68.2197,100.864  L -68.9698,101.781 L -69.5493,102.815 L -69.9404,103.933 L -70.0002,104.3 z M -56.5172,104.3 L -49.8431,90.7 L -27.1344,90.7 L -24.251,98.8723 L -24.3447,99.1705 L -24.4787,100.198  L -24.4323,101.234 L -24.2067,102.245 L -23.809,103.202 L -23.251,104.076 L -23.0452,104.3 z M -12.2597,104.3 L -12.9171,102.322 L -12.7313,101.731 L -12.5972,100.703 L -12.6437,99.6674 L -12.8692,98.6558  L -13.267,97.6987 L -13.8249,96.8252 L -14.5261,96.0618 L -14.7742,95.8719 L -16.2282,90.7 L 14.4258,90.7  L 13.4662,100.181 L 13.2843,100.378 L 12.8039,101.128 L 12.461,101.95 L 12.2661,102.819 L 12.2249,103.708  L 12.3013,104.3 z M 22.3652,104.3 L 22.3925,104.178 L 22.4336,103.289 L 22.3197,102.406 L 22.054,101.556 L 21.9306,101.317  L 23.7096,90.7 L 62.866,90.7 L 68.2472,104.3 z M 78.1187,104.3 L 73.907,90.7 L 96.1402,90.7 L 96.1716,90.7335 L 97.9498,91.4233 L 98.3948,91.3882  L 119.527,103.713 L 119.529,103.726 L 120.033,104.3 z M 122.859,99.0568 L 122.843,99.199 L 122.654,99.2002 L 110.271,90.7 L 159.3,90.7 L 159.3,98.0847  L 149.297,102.608 L 149.404,102.821 z M -145.189,104.3 L -131.978,94.6781 L -132.471,104.3 z M 159.162,104.3 L 159.3,104.223 L 159.3,104.3 z M 190,75 L 180,75 L 180,95 L 190,95 z "
     id="path18"
     stroke-width="0.5"
     stroke="black"
     fill="lightgray"
     style="fill:#ffffff;fill-opacity:1" />
</svg>
