<?xml version="1.0" standalone="no"?>
<!DOCTYPE svg PUBLIC "-//W3C//DTD SVG 1.1//EN" "http://www.w3.org/Graphics/SVG/1.1/DTD/svg11.dtd">
<svg width="513mm" height="375mm" viewBox="-175 -255 513 375" xmlns="http://www.w3.org/2000/svg" version="1.1">
<title>OpenSCAD Model</title>
<path d="
M -155,-78.31 L -145,-78.31 L -145,-75 L -135,-75 L -135,-78.31 L -125,-78.31
 L -125,-75 L -115,-75 L -115,-78.31 L -105,-78.31 L -105,-75 L -95,-75
 L -95,-78.31 L -85,-78.31 L -85,-75 L -75,-75 L -75,-78.31 L -65,-78.31
 L -65,-75 L -55,-75 L -55,-78.31 L -45,-78.31 L -45,-75 L -35,-75
 L -35,-78.31 L -25,-78.31 L -25,-75 L -15,-75 L -15,-78.31 L -5,-78.31
 L -5,-75 L 5,-75 L 5,-78.31 L 15,-78.31 L 15,-75 L 25,-75
 L 25,-78.31 L 35,-78.31 L 35,-75 L 45,-75 L 45,-78.31 L 55,-78.31
 L 55,-75 L 65,-75 L 65,-78.31 L 75,-78.31 L 75,-75 L 85,-75
 L 85,-78.31 L 95,-78.31 L 95,-75 L 105,-75 L 105,-78.31 L 115,-78.31
 L 115,-75 L 125,-75 L 125,-78.31 L 135,-78.31 L 135,-75 L 145,-75
 L 145,-78.31 L 155,-78.31 L 155,-75 L 165,-75 L 165,-78.31 L 171.69,-78.31
 L 171.69,-94 L 175,-94 L 175,-104 L 171.69,-104 L 171.69,-114 L 175,-114
 L 175,-124 L 171.69,-124 L 171.69,-134 L 175,-134 L 175,-144 L 171.69,-144
 L 171.69,-154 L 175,-154 L 175,-164 L 171.69,-164 L 171.69,-183 L 175,-183
 L 175,-205 L 173.907,-215.396 L 170.677,-225.337 L 165.451,-234.389 L 158.457,-242.157 L 150,-248.301
 L 140.451,-252.553 L 130.226,-254.726 L -130.226,-254.726 L -140.451,-252.553 L -150,-248.301 L -158.457,-242.157
 L -165.451,-234.389 L -170.677,-225.337 L -173.907,-215.396 L -175,-205 L -175,-183 L -171.7,-183
 L -171.7,-164 L -175,-164 L -175,-154 L -171.7,-154 L -171.7,-144 L -175,-144
 L -175,-134 L -171.7,-134 L -171.7,-124 L -175,-124 L -175,-114 L -171.7,-114
 L -171.7,-104 L -175,-104 L -175,-94 L -171.7,-94 L -171.7,-78.31 L -165,-78.31
 L -165,-75 L -155,-75 z
M 94.2648,-201.879 L 98.7188,-220.309 L 104.887,-222.522 L 104.962,-222.498 L 105.275,-222.456 L 105.59,-222.468
 L 105.899,-222.536 L 106.191,-222.655 L 106.458,-222.824 L 106.691,-223.037 L 106.824,-223.209 L 114.669,-224.96
 L 114.322,-226.875 L 106.366,-225.768 L 106.339,-225.789 L 106.059,-225.936 L 105.759,-226.032 L 105.446,-226.074
 L 105.13,-226.062 L 104.822,-225.994 L 104.53,-225.875 L 104.263,-225.706 L 104.029,-225.493 L 103.981,-225.431
 L 99.6809,-224.291 L 101.574,-232.124 L 102.052,-232.505 L 102.711,-233.774 L 106.093,-238.126 L 115.505,-238.126
 L 115.489,-238.09 L 115,-235 L 115,-215.171 L 108.96,-207.832 L 107.465,-207.041 L 107.092,-206.379
 L 98.7175,-202.378 L 95.3613,-201.673 L 95.2276,-201.713 L 95.0882,-201.616 L 95.0623,-201.611 z
M 72.8624,-232.86 L 73.2822,-233.068 L 74.1884,-234.232 L 78.4308,-238.126 L 92.832,-238.126 L 94.041,-234.192
 L 92.1365,-227.473 L 89.9943,-220.602 L 75.9956,-208.457 L 74.4389,-207.943 L 73.9751,-207.371 L 60.2661,-203.458
 z
M -20.882,-210.842 L -20.9556,-210.908 L -21.1667,-211.042 L -21.3978,-211.137 L -21.6419,-211.19 L -21.8914,-211.2
 L -22.1389,-211.166 L -22.3769,-211.09 L -22.598,-210.974 L -22.6458,-210.937 L -27.6175,-210.921 L -28.4465,-212.152
 L -24.9586,-218.881 L -24.8908,-218.913 L -24.646,-219.086 L -24.4349,-219.298 L -24.2638,-219.544 L -24.138,-219.816
 L -24.0614,-220.105 L -24.0361,-220.403 L -24.0547,-220.609 L -19.7319,-226.888 L -21.2077,-227.995 L -26.0241,-222.092
 L -26.057,-222.089 L -26.346,-222.011 L -26.617,-221.884 L -26.8618,-221.711 L -27.0729,-221.499 L -27.244,-221.253
 L -27.3698,-220.982 L -27.4465,-220.692 L -27.4718,-220.394 L -27.465,-220.319 L -30.6018,-215.353 L -37.1731,-225.114
 L -37.1671,-225.134 L -37.325,-225.698 L -38.2249,-235.158 L -36.6295,-237.756 L -37.0767,-238.056 L -36.9093,-238.126
 L -11.8219,-238.126 L -11.2959,-224.969 L -11.2879,-224.97 L -20.2095,-210.752 z
M 54.4226,-215.178 L 54.1713,-215.708 L 59.9621,-238.126 L 65.7298,-238.126 L 66.0392,-235.769 L 66.0501,-235.771
 L 54.6351,-213.29 z
M -93.4926,-237.182 L -94.9907,-238.126 L -77.2582,-238.126 L -88.0051,-235.666 z
M -6.16142,-238.126 L 3.53387,-238.126 L 4.29543,-237.011 L -5.37048,-230.599 z
M 14.3838,-237.893 L 15.4486,-238.126 L 18.0146,-238.126 L 20.4478,-235.601 L 18.7404,-232.365 z
M 30.3476,-237.011 L 30.8461,-238.126 L 51.8113,-238.126 L 46.6027,-222.295 z
M -54.7934,-235.015 L -54.8017,-235.022 L -55.0679,-235.194 L -55.2924,-235.289 L -55.7671,-236.014 L -49.9219,-235.313
 L -51.1462,-233.383 z
M -136.045,-197.055 L -138.09,-197.489 L -140,-198.34 L -141.691,-199.569 L -143.09,-201.122 L -144.135,-202.933
 L -144.781,-204.921 L -145,-207 L -145,-235 L -125,-235 L -125,-207 L -125.219,-204.921
 L -125.865,-202.933 L -126.91,-201.122 L -128.309,-199.569 L -130,-198.34 L -131.91,-197.489 L -133.955,-197.055
 z
M 133.955,-197.055 L 131.91,-197.489 L 130,-198.34 L 128.309,-199.569 L 126.91,-201.122 L 125.865,-202.933
 L 125.219,-204.921 L 125,-207 L 125,-235 L 145,-235 L 145,-207 L 144.781,-204.921
 L 144.135,-202.933 L 143.09,-201.122 L 141.691,-199.569 L 140,-198.34 L 138.09,-197.489 L 136.045,-197.055
 z
M -56.0976,-190.949 L -68.0865,-215.706 L -68.0452,-215.816 L -68.2172,-217.225 L -67.7354,-234.542 L -65.838,-234.836
 L -55.1048,-229.211 L -54.4791,-228.129 L -57.6295,-223.162 L -54.0193,-220.642 L -51.815,-223.52 L -49.4846,-219.489
 L -49.4851,-219.469 L -49.4619,-219.45 L -49.3539,-219.263 L -50.3164,-202.047 L -50.7015,-201.646 L -50.9133,-200.115
 L -55.9339,-190.757 z
M -115,-217.713 L -115,-233.988 L -108.88,-233.76 L -110.949,-214.996 z
M -46.0184,-231.089 L -44.1082,-233.584 L -44.0155,-230.507 L -44.1563,-230.256 z
M -99.2066,-194.286 L -99.3337,-194.605 L -95.7021,-199.099 L -97.2283,-200.438 L -100.353,-197.158 L -104.626,-207.858
 L -104.559,-208.001 L -104.676,-209.366 L -103.623,-233.565 L -103.096,-233.545 L -103.051,-233.492 L -101.303,-232.862
 L -101.149,-232.89 L -96.3044,-229.283 L -100.875,-224.912 L -98.6603,-222.381 L -93.0554,-226.864 L -74.4317,-213
 L -74.0127,-211.959 L -67.2624,-192.285 z
M -85.0379,-231.855 L -76.4209,-233.193 L -77.1284,-226.872 z
M -16.3299,-157.917 L -16.4269,-159.377 L -17.1336,-161.145 L -17.4465,-161.52 L -19.894,-196.082 L -19.5621,-196.575
 L -19.2348,-198.43 L -19.3378,-198.844 L -14.3375,-208.1 L -12.1889,-207.962 L -12.0217,-209.665 L -13.3933,-209.848
 L -6.6346,-222.358 L -6.6125,-222.363 L -5.71596,-223.21 L 7.05911,-232.964 L 13.6879,-223.257 L 13.8148,-222.106
 L 14.6217,-220.394 L 14.8978,-220.11 L 18.4511,-172.175 L 18.8876,-172.224 L 18.8879,-172.206 L -1.07269,-134.762
 z
M 24.4624,-221.19 L 24.9576,-222.408 L 25.0627,-224.298 L 24.9083,-224.845 L 26.779,-229.029 L 43.031,-212.161
 L 43.3582,-211.012 L 44.4737,-209.409 L 44.8034,-209.168 L 47.4171,-198.562 L 29.8943,-184.144 z
M -48.9356,-225.978 L -47.0966,-225.014 L -47.6306,-224.063 z
M -45.8734,-219.555 L -45.5022,-220.284 L -45.5316,-220.348 L -44.1218,-223.455 L -42.9722,-222.853 L -42.8345,-222.633
 L -42.1224,-222.296 L -34.8545,-209.727 L -45.711,-204.128 z
M 154.945,-205.955 L 155,-207 L 155,-219.291 L 155.429,-218.548 L 157.581,-211.925 L 158.125,-206.746
 L 154.763,-204.224 z
M -157.581,-211.925 L -155.429,-218.548 L -155,-219.291 L -155,-208.099 L -158.049,-207.466 z
M 81.0695,-206.313 L 87.5389,-212.725 L 85.116,-204.953 z
M -115.635,-202.173 L -115.273,-203.876 L -115.055,-205.955 L -115,-207 L -115,-209.196 L -110.346,-205.617
 L -110.341,-205.624 L -108.051,-198.593 z
M -25.8039,-208.227 L -22.5315,-208.527 L -22.4804,-208.495 L -22.2493,-208.4 L -22.0052,-208.347 L -21.7556,-208.337
 L -21.7222,-208.342 L -23.7286,-205.144 z
M 114.491,-206.524 L 115,-207.234 L 115,-207 L 115.029,-206.439 z
M -51.4642,-186.435 L -46.4491,-197.949 L -45.3773,-199.064 L -45.3418,-199.32 L -33.1307,-206.746 L -28.1976,-198.214
 L -28.1613,-197.176 L -27.4718,-195.762 L -27.4959,-168.79 z
M 59.4745,-196.082 L 75.4753,-202.099 L 75.4789,-202.097 L 77.317,-202.158 L 77.5576,-202.324 L 83.7918,-200.706
 L 81.6229,-193.748 L 81.7803,-193.705 L 81.7211,-192.995 L 66.2498,-175.163 z
M -155.321,-200.407 L -155.323,-200.431 L -155.891,-201.175 L -156.093,-201.666 L -154.308,-201.906 L -154.292,-201.831
 L -153.646,-199.842 L -153.272,-199.003 z
M 67.2717,-158.113 L 68.3745,-159.274 L 69.2285,-161.064 L 69.2972,-161.585 L 88.3428,-187.726 L 89.069,-187.958
 L 90.5696,-189.228 L 91.3119,-190.669 L 98.3608,-194.773 L 102.362,-191.343 L 102.375,-191.277 L 102.478,-191.022
 L 102.623,-190.788 L 102.807,-190.582 L 103.024,-190.412 L 103.267,-190.282 L 103.46,-190.219 L 109.861,-182.721
 L 111.338,-183.897 L 105.461,-191.815 L 105.458,-191.925 L 105.401,-192.194 L 105.298,-192.45 L 105.153,-192.684
 L 104.969,-192.889 L 104.752,-193.059 L 104.509,-193.189 L 104.247,-193.275 L 104.181,-193.285 L 101.144,-196.394
 L 109.272,-201.127 L 109.426,-201.125 L 109.752,-201.178 L 110.064,-201.288 L 110.327,-201.436 L 111.389,-201.652
 L 111.605,-201.862 L 115.816,-201.498 L 116.354,-199.842 L 117.204,-197.933 L 118.25,-196.122 L 119.478,-194.431
 L 120.877,-192.877 L 122.431,-191.478 L 124.122,-190.25 L 125.933,-189.204 L 127.842,-188.354 L 129.831,-187.708
 L 131.876,-187.273 L 133.955,-187.055 L 136.045,-187.055 L 138.124,-187.273 L 138.998,-187.459 L 117.774,-148.821
 L 117.988,-148.713 L 117.71,-148.251 L 117.634,-147.895 L 85.8937,-123.462 L 86.3189,-122.955 L 85.9468,-122.696
 L 85.7219,-122.388 L 56.1268,-115.228 z
M -156.912,-183.081 L -156.999,-183.202 L -158.184,-183.74 L -158.4,-183.895 L -158.4,-195.767 L -139.333,-180.802
 z
M 148.8,-187.217 L 149.625,-187.719 L 150.504,-188.865 L 158.4,-195.654 L 158.4,-163.931 L 151.634,-158.436
 L 151.617,-158.439 L 149.852,-157.919 L 149.064,-157.155 L 146.354,-156.476 L 145.57,-160.929 L 145.608,-161.004
 L 145.696,-161.289 L 145.733,-161.585 L 145.718,-161.882 L 145.651,-162.173 L 145.535,-162.448 L 145.373,-162.699
 L 145.217,-162.867 L 143.973,-170.775 L 142.012,-170.551 L 142.583,-162.571 L 142.573,-162.558 L 142.437,-162.293
 L 142.35,-162.007 L 142.313,-161.711 L 142.327,-161.414 L 142.394,-161.123 L 142.51,-160.848 L 142.672,-160.597
 L 142.728,-160.536 L 143.217,-155.69 L 132.851,-153.092 z
M -129.636,-182.888 L -129.827,-183.11 L -130.423,-183.347 L -135.354,-186.726 L -135.465,-187.055 L -133.955,-187.055
 L -131.876,-187.273 L -129.831,-187.708 L -127.842,-188.354 L -125.933,-189.204 L -124.122,-190.25 L -122.431,-191.478
 L -120.877,-192.877 L -119.478,-194.431 L -119.205,-194.807 L -115.861,-186.791 L -122.546,-182.155 z
M -114.38,-193.154 L -110.09,-190.793 L -112.379,-189.206 z
M 6.65503,-91.6 L 5.5787,-117.385 L 5.69922,-117.535 L 6.45972,-119.317 L 6.48273,-119.492 L 28.1133,-167.683
 L 29.3551,-168.615 L 30.4606,-170.187 L 30.6106,-170.674 L 49.6969,-189.312 L 56.6697,-161.019 L 57.1054,-161.143
 L 57.1087,-161.126 L 40.5876,-111.623 L 40.4205,-111.486 L 39.2566,-109.924 L 38.5003,-108.129 L 38.396,-107.471
 L 22.0669,-91.6 z
M -91.1662,-176.729 L -91.4965,-177.618 L -92.7671,-179.051 L -93.2147,-179.282 L -96.2971,-187 L -64.0775,-183.002
 L -62.3612,-177.999 L -62.196,-178.062 L -62.1577,-177.857 L -61.9009,-177.508 L -63.5978,-156.844 z
M -108.352,-180.687 L -106.776,-183.231 L -103.638,-185.044 L -102.006,-180.031 z
M -27.365,-91.6 L -35.525,-98.8839 L -36.1404,-100.529 L -36.2956,-100.731 L -54.0407,-145.359 L -53.8348,-146.496
 L -54.1619,-148.402 L -54.384,-148.791 L -54.4709,-177.215 L -54.1874,-177.543 L -54.1811,-177.566 L -27.6884,-155.176
 L -27.5841,-154.915 L -26.3659,-153.453 L -25.1272,-152.673 L -7.14964,-119.165 L -6.90666,-118.318 L -6.33014,-117.383
 L -7.08211,-91.6 z
M -158.4,-174.004 L -158.4,-176.957 L -158.03,-176.993 L -157.908,-177.08 L -154.395,-176.368 L -154.187,-176.194
 L -158.356,-173.86 z
M -125.328,-170.497 L -124.89,-172.095 L -124.42,-172.393 L -123.869,-173.349 L -121.338,-174.812 L -114.147,-173.568
 L -116.079,-163.233 z
M -155.844,-166.146 L -139.35,-172.975 L -136.953,-172.667 L -150.552,-163.528 L -152.113,-163.142 L -152.419,-162.779
 L -154.647,-162.472 z
M -75.7791,-110.231 L -76.5682,-110.976 L -78.3264,-111.734 L -78.7584,-111.76 L -102.773,-131.977 L -102.807,-132.277
 L -103.906,-133.906 L -104.235,-134.083 L -111.548,-157.31 L -111.513,-158.155 L -109.77,-172.811 L -99.2339,-170.988
 L -98.3525,-170.303 L -96.5178,-169.754 L -96.42,-169.761 L -63.0369,-141.845 L -62.787,-142.167 L -51.0262,-105.526
 z
M -151.024,-153.747 L -147.948,-159.145 L -147.877,-159.229 L -131.596,-168.584 L -134.66,-153.262 L -135.37,-152.182
 L -135.323,-151.782 L -140.353,-145.195 z
M -126.433,-137.977 L -130.156,-151.768 L -130.13,-151.878 L -130.25,-152.119 L -130.308,-152.332 L -126.749,-165.313
 L -116.157,-155.825 L -116.153,-155.83 L -111.111,-135.222 z
M -158.4,-156.102 L -158.4,-157.737 L -157.836,-157.764 L -157.411,-156.033 z
M -158.4,-152.024 L -157.736,-151.932 L -158.4,-150.496 z
M 147.212,-145.722 L 147.812,-146.203 L 147.812,-146.27 L 153.267,-151.066 L 158.4,-149.554 L 158.4,-136.016
 L 153.959,-133.083 L 141.382,-132.422 z
M -158.4,-142.94 L -157.46,-142.456 L -153.279,-149.791 L -140.203,-137.843 L -158.4,-130.581 z
M 103.214,-121.605 L 123.879,-140.514 L 125.129,-140.77 L 126.76,-141.733 L 127.99,-143.173 L 128.002,-143.205
 L 143.931,-148.612 L 144.087,-147.062 L 144.079,-147.045 L 144.092,-147.02 L 144.112,-146.818 L 136.617,-132.403
 L 135.516,-131.484 L 135.438,-131.047 L 121.974,-120.711 L 120.83,-120.645 L 120.876,-120.177 L 120.586,-120.198
 L 119.523,-119.735 z
M -132.704,-139.105 L -132.883,-139.208 L -137.658,-143.035 L -133.911,-147.134 L -130.87,-138.775 z
M -120.495,-105.064 L -122.309,-105.204 L -150.101,-114.398 L -150.164,-114.534 L -150.664,-114.888 L -158.4,-123.131
 L -158.4,-124.611 L -157.008,-126.575 L -134.436,-133.996 L -133.79,-134.063 L -109.363,-127.925 L -108.61,-127.243
 L -107.455,-126.946 L -89.8413,-109.821 L -119.971,-104.78 z
M 158.272,-131.814 L 158.4,-131.915 L 158.4,-131.757 z
M 138.457,-127.495 L 139.709,-127.948 L 139.828,-128.152 L 154.603,-129.975 L 155.192,-129.701 L 155.393,-129.842
 L 158.4,-128.805 L 158.4,-126.328 L 152.42,-123.106 L 152.405,-123.112 L 150.526,-122.926 L 149.586,-122.307
 L 131.585,-121.267 z
M 157.752,-119.192 L 158.4,-119.599 L 158.4,-118.8 z
M 135.864,-98.5693 L 134.905,-99.3626 L 127.298,-112.508 L 150.14,-115.714 L 150.362,-115.553 L 152.23,-115.284
 L 152.577,-115.406 L 158.4,-112.417 L 158.4,-96.3927 L 151.339,-94.4829 L 151.213,-94.5125 L 151.09,-94.4157
 L 151.067,-94.4094 z
M 42.4496,-91.6 L 48.2054,-98.1229 L 48.8579,-98.2588 L 50.6142,-99.1006 L 52.118,-100.338 L 52.5292,-100.89
 L 88.4983,-112.816 L 89.7896,-112.531 L 91.7302,-112.752 L 93.494,-113.591 L 93.6265,-113.72 L 94.0866,-113.706
 L 94.3015,-113.45 L 94.5648,-113.691 L 118.925,-112.928 L 119.122,-112.727 L 119.691,-112.541 L 130.432,-97.0704
 L 129.725,-91.6 z
M -158.4,-91.6 L -158.4,-107.907 L -153.215,-108.829 L -152.301,-108.745 L -152.165,-108.808 L -129.423,-99.5189
 L -138.134,-91.6 z
M -126.408,-91.6 L -120.267,-96.5346 L -120.261,-96.5354 L -118.924,-97.3569 L -81.0984,-101.102 L -80.8719,-101.004
 L -78.9601,-100.892 L -77.9207,-101.203 L -44.6552,-91.709 L -44.4379,-91.6 z
M 139.62,-91.6 L 138.577,-93.4136 L 147.668,-91.6 z
M 155.108,-91.6 L 155.062,-91.6419 L 158.4,-92.8579 L 158.4,-91.6 z
M 194.947,-118.23 L 195.284,-118.321 L 195.6,-118.468 L 195.886,-118.668 L 196.132,-118.914 L 196.332,-119.2
 L 196.479,-119.516 L 196.57,-119.853 L 196.6,-120.2 L 196.6,-152.2 L 196.57,-152.547 L 196.479,-152.884
 L 196.332,-153.2 L 196.132,-153.486 L 195.886,-153.732 L 195.6,-153.932 L 195.284,-154.079 L 194.947,-154.17
 L 194.6,-154.2 L 182,-154.2 L 181.653,-154.17 L 181.316,-154.079 L 181,-153.932 L 180.714,-153.732
 L 180.468,-153.486 L 180.268,-153.2 L 180.121,-152.884 L 180.03,-152.547 L 180,-152.2 L 180,-120.2
 L 180.03,-119.853 L 180.121,-119.516 L 180.268,-119.2 L 180.468,-118.914 L 180.714,-118.668 L 181,-118.468
 L 181.316,-118.321 L 181.653,-118.23 L 182,-118.2 L 194.6,-118.2 z
M 183.222,-120.171 L 182.846,-120.276 L 182.556,-120.45 L 182.349,-120.695 L 182.227,-121.009 L 182.678,-121.099
 L 182.716,-120.982 L 182.768,-120.877 L 182.835,-120.786 L 182.915,-120.709 L 183.009,-120.644 L 183.118,-120.592
 L 183.241,-120.551 L 183.378,-120.522 L 183.531,-120.505 L 183.698,-120.499 L 183.87,-120.505 L 184.026,-120.524
 L 184.165,-120.556 L 184.287,-120.6 L 184.393,-120.657 L 184.481,-120.726 L 184.55,-120.807 L 184.599,-120.9
 L 184.628,-121.005 L 184.638,-121.122 L 184.635,-121.188 L 184.626,-121.248 L 184.61,-121.304 L 184.589,-121.354
 L 184.561,-121.399 L 184.528,-121.44 L 184.49,-121.478 L 184.447,-121.513 L 184.399,-121.545 L 184.346,-121.574
 L 184.288,-121.601 L 184.226,-121.626 L 184.16,-121.65 L 184.089,-121.671 L 184.014,-121.691 L 183.433,-121.828
 L 183.294,-121.865 L 183.17,-121.901 L 183.062,-121.938 L 182.97,-121.974 L 182.89,-122.012 L 182.816,-122.051
 L 182.75,-122.092 L 182.69,-122.134 L 182.638,-122.178 L 182.591,-122.225 L 182.55,-122.274 L 182.512,-122.327
 L 182.479,-122.383 L 182.451,-122.442 L 182.428,-122.504 L 182.41,-122.57 L 182.397,-122.639 L 182.39,-122.712
 L 182.387,-122.788 L 182.4,-122.959 L 182.441,-123.113 L 182.508,-123.251 L 182.603,-123.373 L 182.724,-123.478
 L 182.871,-123.565 L 183.041,-123.633 L 183.234,-123.681 L 183.451,-123.71 L 183.691,-123.72 L 183.914,-123.713
 L 184.115,-123.691 L 184.294,-123.655 L 184.45,-123.605 L 184.585,-123.54 L 184.702,-123.458 L 184.803,-123.356
 L 184.89,-123.234 L 184.962,-123.092 L 185.019,-122.93 L 184.561,-122.849 L 184.525,-122.952 L 184.478,-123.043
 L 184.421,-123.123 L 184.352,-123.19 L 184.273,-123.245 L 184.182,-123.29 L 184.077,-123.324 L 183.96,-123.349
 L 183.829,-123.364 L 183.686,-123.369 L 183.529,-123.363 L 183.388,-123.347 L 183.262,-123.319 L 183.152,-123.279
 L 183.057,-123.229 L 182.979,-123.168 L 182.918,-123.096 L 182.875,-123.013 L 182.849,-122.918 L 182.84,-122.813
 L 182.843,-122.751 L 182.853,-122.693 L 182.87,-122.64 L 182.894,-122.591 L 182.924,-122.547 L 182.961,-122.506
 L 183.003,-122.468 L 183.051,-122.433 L 183.106,-122.399 L 183.166,-122.369 L 183.242,-122.338 L 183.343,-122.305
 L 183.47,-122.27 L 183.621,-122.231 L 183.798,-122.19 L 184.175,-122.098 L 184.297,-122.063 L 184.414,-122.023
 L 184.526,-121.978 L 184.58,-121.953 L 184.632,-121.926 L 184.683,-121.898 L 184.732,-121.868 L 184.778,-121.836
 L 184.822,-121.801 L 184.863,-121.763 L 184.901,-121.723 L 184.937,-121.68 L 184.969,-121.634 L 184.998,-121.585
 L 185.024,-121.533 L 185.046,-121.478 L 185.065,-121.42 L 185.08,-121.357 L 185.091,-121.291 L 185.097,-121.221
 L 185.099,-121.147 L 185.084,-120.963 L 185.039,-120.796 L 184.965,-120.647 L 184.861,-120.515 L 184.727,-120.4
 L 184.566,-120.305 L 184.382,-120.231 L 184.172,-120.178 L 183.939,-120.147 L 183.681,-120.136 z
M 274.627,-118.23 L 274.964,-118.321 L 275.28,-118.468 L 275.566,-118.668 L 275.812,-118.914 L 276.012,-119.2
 L 276.159,-119.516 L 276.25,-119.853 L 276.28,-120.2 L 276.28,-152.2 L 276.25,-152.547 L 276.159,-152.884
 L 276.012,-153.2 L 275.812,-153.486 L 275.566,-153.732 L 275.28,-153.932 L 274.964,-154.079 L 274.627,-154.17
 L 274.28,-154.2 L 261.68,-154.2 L 261.333,-154.17 L 260.996,-154.079 L 260.68,-153.932 L 260.394,-153.732
 L 260.148,-153.486 L 259.948,-153.2 L 259.801,-152.884 L 259.71,-152.547 L 259.68,-152.2 L 259.68,-120.2
 L 259.71,-119.853 L 259.801,-119.516 L 259.948,-119.2 L 260.148,-118.914 L 260.394,-118.668 L 260.68,-118.468
 L 260.996,-118.321 L 261.333,-118.23 L 261.68,-118.2 L 274.28,-118.2 z
M 262.902,-120.171 L 262.526,-120.276 L 262.236,-120.45 L 262.029,-120.695 L 261.907,-121.009 L 262.358,-121.099
 L 262.396,-120.982 L 262.448,-120.877 L 262.515,-120.786 L 262.595,-120.709 L 262.689,-120.644 L 262.798,-120.592
 L 262.921,-120.551 L 263.058,-120.522 L 263.211,-120.505 L 263.378,-120.499 L 263.55,-120.505 L 263.706,-120.524
 L 263.845,-120.556 L 263.967,-120.6 L 264.073,-120.657 L 264.161,-120.726 L 264.23,-120.807 L 264.279,-120.9
 L 264.308,-121.005 L 264.318,-121.122 L 264.315,-121.188 L 264.306,-121.248 L 264.29,-121.304 L 264.269,-121.354
 L 264.241,-121.399 L 264.208,-121.44 L 264.17,-121.478 L 264.127,-121.513 L 264.079,-121.545 L 264.026,-121.574
 L 263.968,-121.601 L 263.906,-121.626 L 263.84,-121.65 L 263.769,-121.671 L 263.694,-121.691 L 263.113,-121.828
 L 262.974,-121.865 L 262.85,-121.901 L 262.742,-121.938 L 262.65,-121.974 L 262.57,-122.012 L 262.496,-122.051
 L 262.43,-122.092 L 262.37,-122.134 L 262.318,-122.178 L 262.271,-122.225 L 262.23,-122.274 L 262.192,-122.327
 L 262.159,-122.383 L 262.131,-122.442 L 262.108,-122.504 L 262.09,-122.57 L 262.077,-122.639 L 262.07,-122.712
 L 262.067,-122.788 L 262.08,-122.959 L 262.121,-123.113 L 262.188,-123.251 L 262.283,-123.373 L 262.404,-123.478
 L 262.551,-123.565 L 262.721,-123.633 L 262.914,-123.681 L 263.131,-123.71 L 263.371,-123.72 L 263.594,-123.713
 L 263.795,-123.691 L 263.974,-123.655 L 264.13,-123.605 L 264.265,-123.54 L 264.382,-123.458 L 264.483,-123.356
 L 264.57,-123.234 L 264.642,-123.092 L 264.699,-122.93 L 264.241,-122.849 L 264.205,-122.952 L 264.158,-123.043
 L 264.101,-123.123 L 264.032,-123.19 L 263.953,-123.245 L 263.862,-123.29 L 263.757,-123.324 L 263.64,-123.349
 L 263.509,-123.364 L 263.366,-123.369 L 263.209,-123.363 L 263.068,-123.347 L 262.942,-123.319 L 262.832,-123.279
 L 262.737,-123.229 L 262.659,-123.168 L 262.598,-123.096 L 262.555,-123.013 L 262.529,-122.918 L 262.52,-122.813
 L 262.523,-122.751 L 262.533,-122.693 L 262.55,-122.64 L 262.574,-122.591 L 262.604,-122.547 L 262.641,-122.506
 L 262.683,-122.468 L 262.731,-122.433 L 262.786,-122.399 L 262.846,-122.369 L 262.922,-122.338 L 263.023,-122.305
 L 263.15,-122.27 L 263.301,-122.231 L 263.478,-122.19 L 263.855,-122.098 L 263.977,-122.063 L 264.094,-122.023
 L 264.206,-121.978 L 264.26,-121.953 L 264.312,-121.926 L 264.363,-121.898 L 264.412,-121.868 L 264.458,-121.836
 L 264.502,-121.801 L 264.543,-121.763 L 264.581,-121.723 L 264.617,-121.68 L 264.649,-121.634 L 264.678,-121.585
 L 264.704,-121.533 L 264.726,-121.478 L 264.745,-121.42 L 264.76,-121.357 L 264.771,-121.291 L 264.777,-121.221
 L 264.779,-121.147 L 264.764,-120.963 L 264.719,-120.796 L 264.645,-120.647 L 264.541,-120.515 L 264.407,-120.4
 L 264.246,-120.305 L 264.062,-120.231 L 263.852,-120.178 L 263.619,-120.147 L 263.361,-120.136 z
M 214.867,-118.23 L 215.204,-118.321 L 215.52,-118.468 L 215.806,-118.668 L 216.052,-118.914 L 216.252,-119.2
 L 216.399,-119.516 L 216.49,-119.853 L 216.52,-120.2 L 216.52,-152.2 L 216.49,-152.547 L 216.399,-152.884
 L 216.252,-153.2 L 216.052,-153.486 L 215.806,-153.732 L 215.52,-153.932 L 215.204,-154.079 L 214.867,-154.17
 L 214.52,-154.2 L 201.92,-154.2 L 201.573,-154.17 L 201.236,-154.079 L 200.92,-153.932 L 200.634,-153.732
 L 200.388,-153.486 L 200.188,-153.2 L 200.041,-152.884 L 199.95,-152.547 L 199.92,-152.2 L 199.92,-120.2
 L 199.95,-119.853 L 200.041,-119.516 L 200.188,-119.2 L 200.388,-118.914 L 200.634,-118.668 L 200.92,-118.468
 L 201.236,-118.321 L 201.573,-118.23 L 201.92,-118.2 L 214.52,-118.2 z
M 203.142,-120.171 L 202.766,-120.276 L 202.476,-120.45 L 202.269,-120.695 L 202.147,-121.009 L 202.598,-121.099
 L 202.636,-120.982 L 202.688,-120.877 L 202.755,-120.786 L 202.835,-120.709 L 202.929,-120.644 L 203.038,-120.592
 L 203.161,-120.551 L 203.298,-120.522 L 203.451,-120.505 L 203.618,-120.499 L 203.79,-120.505 L 203.946,-120.524
 L 204.085,-120.556 L 204.207,-120.6 L 204.313,-120.657 L 204.401,-120.726 L 204.47,-120.807 L 204.519,-120.9
 L 204.548,-121.005 L 204.558,-121.122 L 204.555,-121.188 L 204.546,-121.248 L 204.53,-121.304 L 204.509,-121.354
 L 204.481,-121.399 L 204.448,-121.44 L 204.41,-121.478 L 204.367,-121.513 L 204.319,-121.545 L 204.266,-121.574
 L 204.208,-121.601 L 204.146,-121.626 L 204.08,-121.65 L 204.009,-121.671 L 203.934,-121.691 L 203.353,-121.828
 L 203.214,-121.865 L 203.09,-121.901 L 202.982,-121.938 L 202.89,-121.974 L 202.81,-122.012 L 202.736,-122.051
 L 202.67,-122.092 L 202.61,-122.134 L 202.558,-122.178 L 202.511,-122.225 L 202.47,-122.274 L 202.432,-122.327
 L 202.399,-122.383 L 202.371,-122.442 L 202.348,-122.504 L 202.33,-122.57 L 202.317,-122.639 L 202.31,-122.712
 L 202.307,-122.788 L 202.32,-122.959 L 202.361,-123.113 L 202.428,-123.251 L 202.523,-123.373 L 202.644,-123.478
 L 202.791,-123.565 L 202.961,-123.633 L 203.154,-123.681 L 203.371,-123.71 L 203.611,-123.72 L 203.834,-123.713
 L 204.035,-123.691 L 204.214,-123.655 L 204.37,-123.605 L 204.505,-123.54 L 204.622,-123.458 L 204.723,-123.356
 L 204.81,-123.234 L 204.882,-123.092 L 204.939,-122.93 L 204.481,-122.849 L 204.445,-122.952 L 204.398,-123.043
 L 204.341,-123.123 L 204.272,-123.19 L 204.193,-123.245 L 204.102,-123.29 L 203.997,-123.324 L 203.88,-123.349
 L 203.749,-123.364 L 203.606,-123.369 L 203.449,-123.363 L 203.308,-123.347 L 203.182,-123.319 L 203.072,-123.279
 L 202.977,-123.229 L 202.899,-123.168 L 202.838,-123.096 L 202.795,-123.013 L 202.769,-122.918 L 202.76,-122.813
 L 202.763,-122.751 L 202.773,-122.693 L 202.79,-122.64 L 202.814,-122.591 L 202.844,-122.547 L 202.881,-122.506
 L 202.923,-122.468 L 202.971,-122.433 L 203.026,-122.399 L 203.086,-122.369 L 203.162,-122.338 L 203.263,-122.305
 L 203.39,-122.27 L 203.541,-122.231 L 203.718,-122.19 L 204.095,-122.098 L 204.217,-122.063 L 204.334,-122.023
 L 204.446,-121.978 L 204.5,-121.953 L 204.552,-121.926 L 204.603,-121.898 L 204.652,-121.868 L 204.698,-121.836
 L 204.742,-121.801 L 204.783,-121.763 L 204.821,-121.723 L 204.857,-121.68 L 204.889,-121.634 L 204.918,-121.585
 L 204.944,-121.533 L 204.966,-121.478 L 204.985,-121.42 L 205,-121.357 L 205.011,-121.291 L 205.017,-121.221
 L 205.019,-121.147 L 205.004,-120.963 L 204.959,-120.796 L 204.885,-120.647 L 204.781,-120.515 L 204.647,-120.4
 L 204.486,-120.305 L 204.302,-120.231 L 204.092,-120.178 L 203.859,-120.147 L 203.601,-120.136 z
M 254.707,-118.23 L 255.044,-118.321 L 255.36,-118.468 L 255.646,-118.668 L 255.892,-118.914 L 256.092,-119.2
 L 256.239,-119.516 L 256.33,-119.853 L 256.36,-120.2 L 256.36,-152.2 L 256.33,-152.547 L 256.239,-152.884
 L 256.092,-153.2 L 255.892,-153.486 L 255.646,-153.732 L 255.36,-153.932 L 255.044,-154.079 L 254.707,-154.17
 L 254.36,-154.2 L 241.76,-154.2 L 241.413,-154.17 L 241.076,-154.079 L 240.76,-153.932 L 240.474,-153.732
 L 240.228,-153.486 L 240.028,-153.2 L 239.881,-152.884 L 239.79,-152.547 L 239.76,-152.2 L 239.76,-120.2
 L 239.79,-119.853 L 239.881,-119.516 L 240.028,-119.2 L 240.228,-118.914 L 240.474,-118.668 L 240.76,-118.468
 L 241.076,-118.321 L 241.413,-118.23 L 241.76,-118.2 L 254.36,-118.2 z
M 242.982,-120.171 L 242.606,-120.276 L 242.316,-120.45 L 242.109,-120.695 L 241.987,-121.009 L 242.438,-121.099
 L 242.476,-120.982 L 242.528,-120.877 L 242.595,-120.786 L 242.675,-120.709 L 242.769,-120.644 L 242.878,-120.592
 L 243.001,-120.551 L 243.138,-120.522 L 243.291,-120.505 L 243.458,-120.499 L 243.63,-120.505 L 243.786,-120.524
 L 243.925,-120.556 L 244.047,-120.6 L 244.153,-120.657 L 244.241,-120.726 L 244.31,-120.807 L 244.359,-120.9
 L 244.388,-121.005 L 244.398,-121.122 L 244.395,-121.188 L 244.386,-121.248 L 244.37,-121.304 L 244.349,-121.354
 L 244.321,-121.399 L 244.288,-121.44 L 244.25,-121.478 L 244.207,-121.513 L 244.159,-121.545 L 244.106,-121.574
 L 244.048,-121.601 L 243.986,-121.626 L 243.92,-121.65 L 243.849,-121.671 L 243.774,-121.691 L 243.193,-121.828
 L 243.054,-121.865 L 242.93,-121.901 L 242.822,-121.938 L 242.73,-121.974 L 242.65,-122.012 L 242.576,-122.051
 L 242.51,-122.092 L 242.45,-122.134 L 242.398,-122.178 L 242.351,-122.225 L 242.31,-122.274 L 242.272,-122.327
 L 242.239,-122.383 L 242.211,-122.442 L 242.188,-122.504 L 242.17,-122.57 L 242.157,-122.639 L 242.15,-122.712
 L 242.147,-122.788 L 242.16,-122.959 L 242.201,-123.113 L 242.268,-123.251 L 242.363,-123.373 L 242.484,-123.478
 L 242.631,-123.565 L 242.801,-123.633 L 242.994,-123.681 L 243.211,-123.71 L 243.451,-123.72 L 243.674,-123.713
 L 243.875,-123.691 L 244.054,-123.655 L 244.21,-123.605 L 244.345,-123.54 L 244.462,-123.458 L 244.563,-123.356
 L 244.65,-123.234 L 244.722,-123.092 L 244.779,-122.93 L 244.321,-122.849 L 244.285,-122.952 L 244.238,-123.043
 L 244.181,-123.123 L 244.112,-123.19 L 244.033,-123.245 L 243.942,-123.29 L 243.837,-123.324 L 243.72,-123.349
 L 243.589,-123.364 L 243.446,-123.369 L 243.289,-123.363 L 243.148,-123.347 L 243.022,-123.319 L 242.912,-123.279
 L 242.817,-123.229 L 242.739,-123.168 L 242.678,-123.096 L 242.635,-123.013 L 242.609,-122.918 L 242.6,-122.813
 L 242.603,-122.751 L 242.613,-122.693 L 242.63,-122.64 L 242.654,-122.591 L 242.684,-122.547 L 242.721,-122.506
 L 242.763,-122.468 L 242.811,-122.433 L 242.866,-122.399 L 242.926,-122.369 L 243.002,-122.338 L 243.103,-122.305
 L 243.23,-122.27 L 243.381,-122.231 L 243.558,-122.19 L 243.935,-122.098 L 244.057,-122.063 L 244.174,-122.023
 L 244.286,-121.978 L 244.34,-121.953 L 244.392,-121.926 L 244.443,-121.898 L 244.492,-121.868 L 244.538,-121.836
 L 244.582,-121.801 L 244.623,-121.763 L 244.661,-121.723 L 244.697,-121.68 L 244.729,-121.634 L 244.758,-121.585
 L 244.784,-121.533 L 244.806,-121.478 L 244.825,-121.42 L 244.84,-121.357 L 244.851,-121.291 L 244.857,-121.221
 L 244.859,-121.147 L 244.844,-120.963 L 244.799,-120.796 L 244.725,-120.647 L 244.621,-120.515 L 244.487,-120.4
 L 244.326,-120.305 L 244.142,-120.231 L 243.932,-120.178 L 243.699,-120.147 L 243.441,-120.136 z
M 234.787,-118.23 L 235.124,-118.321 L 235.44,-118.468 L 235.726,-118.668 L 235.972,-118.914 L 236.172,-119.2
 L 236.319,-119.516 L 236.41,-119.853 L 236.44,-120.2 L 236.44,-152.2 L 236.41,-152.547 L 236.319,-152.884
 L 236.172,-153.2 L 235.972,-153.486 L 235.726,-153.732 L 235.44,-153.932 L 235.124,-154.079 L 234.787,-154.17
 L 234.44,-154.2 L 221.84,-154.2 L 221.493,-154.17 L 221.156,-154.079 L 220.84,-153.932 L 220.554,-153.732
 L 220.308,-153.486 L 220.108,-153.2 L 219.961,-152.884 L 219.87,-152.547 L 219.84,-152.2 L 219.84,-120.2
 L 219.87,-119.853 L 219.961,-119.516 L 220.108,-119.2 L 220.308,-118.914 L 220.554,-118.668 L 220.84,-118.468
 L 221.156,-118.321 L 221.493,-118.23 L 221.84,-118.2 L 234.44,-118.2 z
M 223.062,-120.171 L 222.686,-120.276 L 222.396,-120.45 L 222.189,-120.695 L 222.067,-121.009 L 222.518,-121.099
 L 222.556,-120.982 L 222.608,-120.877 L 222.675,-120.786 L 222.755,-120.709 L 222.849,-120.644 L 222.958,-120.592
 L 223.081,-120.551 L 223.218,-120.522 L 223.371,-120.505 L 223.538,-120.499 L 223.71,-120.505 L 223.866,-120.524
 L 224.005,-120.556 L 224.127,-120.6 L 224.233,-120.657 L 224.321,-120.726 L 224.39,-120.807 L 224.439,-120.9
 L 224.468,-121.005 L 224.478,-121.122 L 224.475,-121.188 L 224.466,-121.248 L 224.45,-121.304 L 224.429,-121.354
 L 224.401,-121.399 L 224.368,-121.44 L 224.33,-121.478 L 224.287,-121.513 L 224.239,-121.545 L 224.186,-121.574
 L 224.128,-121.601 L 224.066,-121.626 L 224,-121.65 L 223.929,-121.671 L 223.854,-121.691 L 223.273,-121.828
 L 223.134,-121.865 L 223.01,-121.901 L 222.902,-121.938 L 222.81,-121.974 L 222.73,-122.012 L 222.656,-122.051
 L 222.59,-122.092 L 222.53,-122.134 L 222.478,-122.178 L 222.431,-122.225 L 222.39,-122.274 L 222.352,-122.327
 L 222.319,-122.383 L 222.291,-122.442 L 222.268,-122.504 L 222.25,-122.57 L 222.237,-122.639 L 222.23,-122.712
 L 222.227,-122.788 L 222.24,-122.959 L 222.281,-123.113 L 222.348,-123.251 L 222.443,-123.373 L 222.564,-123.478
 L 222.711,-123.565 L 222.881,-123.633 L 223.074,-123.681 L 223.291,-123.71 L 223.531,-123.72 L 223.754,-123.713
 L 223.955,-123.691 L 224.134,-123.655 L 224.29,-123.605 L 224.425,-123.54 L 224.542,-123.458 L 224.643,-123.356
 L 224.73,-123.234 L 224.802,-123.092 L 224.859,-122.93 L 224.401,-122.849 L 224.365,-122.952 L 224.318,-123.043
 L 224.261,-123.123 L 224.192,-123.19 L 224.113,-123.245 L 224.022,-123.29 L 223.917,-123.324 L 223.8,-123.349
 L 223.669,-123.364 L 223.526,-123.369 L 223.369,-123.363 L 223.228,-123.347 L 223.102,-123.319 L 222.992,-123.279
 L 222.897,-123.229 L 222.819,-123.168 L 222.758,-123.096 L 222.715,-123.013 L 222.689,-122.918 L 222.68,-122.813
 L 222.683,-122.751 L 222.693,-122.693 L 222.71,-122.64 L 222.734,-122.591 L 222.764,-122.547 L 222.801,-122.506
 L 222.843,-122.468 L 222.891,-122.433 L 222.946,-122.399 L 223.006,-122.369 L 223.082,-122.338 L 223.183,-122.305
 L 223.31,-122.27 L 223.461,-122.231 L 223.638,-122.19 L 224.015,-122.098 L 224.137,-122.063 L 224.254,-122.023
 L 224.366,-121.978 L 224.42,-121.953 L 224.472,-121.926 L 224.523,-121.898 L 224.572,-121.868 L 224.618,-121.836
 L 224.662,-121.801 L 224.703,-121.763 L 224.741,-121.723 L 224.777,-121.68 L 224.809,-121.634 L 224.838,-121.585
 L 224.864,-121.533 L 224.886,-121.478 L 224.905,-121.42 L 224.92,-121.357 L 224.931,-121.291 L 224.937,-121.221
 L 224.939,-121.147 L 224.924,-120.963 L 224.879,-120.796 L 224.805,-120.647 L 224.701,-120.515 L 224.567,-120.4
 L 224.406,-120.305 L 224.222,-120.231 L 224.012,-120.178 L 223.779,-120.147 L 223.521,-120.136 z
M 214.867,-75.0304 L 215.204,-75.1206 L 215.52,-75.268 L 215.806,-75.4679 L 216.052,-75.7144 L 216.252,-76
 L 216.399,-76.316 L 216.49,-76.6527 L 216.52,-77 L 216.52,-109 L 216.49,-109.347 L 216.399,-109.684
 L 216.252,-110 L 216.052,-110.286 L 215.806,-110.532 L 215.52,-110.732 L 215.204,-110.879 L 214.867,-110.97
 L 214.52,-111 L 201.92,-111 L 201.573,-110.97 L 201.236,-110.879 L 200.92,-110.732 L 200.634,-110.532
 L 200.388,-110.286 L 200.188,-110 L 200.041,-109.684 L 199.95,-109.347 L 199.92,-109 L 199.92,-77
 L 199.95,-76.6527 L 200.041,-76.316 L 200.188,-76 L 200.388,-75.7144 L 200.634,-75.4679 L 200.92,-75.268
 L 201.236,-75.1206 L 201.573,-75.0304 L 201.92,-75 L 214.52,-75 z
M 203.142,-76.9709 L 202.766,-77.0757 L 202.476,-77.2503 L 202.269,-77.4947 L 202.147,-77.809 L 202.598,-77.899
 L 202.636,-77.7816 L 202.688,-77.6774 L 202.755,-77.5864 L 202.835,-77.5086 L 202.929,-77.444 L 203.038,-77.3918
 L 203.161,-77.3512 L 203.298,-77.3222 L 203.451,-77.3048 L 203.618,-77.299 L 203.79,-77.3053 L 203.946,-77.3243
 L 204.085,-77.3559 L 204.207,-77.4001 L 204.313,-77.457 L 204.401,-77.5262 L 204.47,-77.6072 L 204.519,-77.7002
 L 204.548,-77.8051 L 204.558,-77.922 L 204.555,-77.9878 L 204.546,-78.0484 L 204.53,-78.1038 L 204.509,-78.154
 L 204.481,-78.199 L 204.448,-78.2399 L 204.41,-78.2779 L 204.367,-78.3129 L 204.319,-78.3449 L 204.266,-78.374
 L 204.208,-78.4011 L 204.146,-78.4263 L 204.08,-78.4497 L 204.009,-78.4713 L 203.934,-78.491 L 203.353,-78.6284
 L 203.214,-78.6648 L 203.09,-78.7012 L 202.982,-78.7376 L 202.89,-78.774 L 202.81,-78.8116 L 202.736,-78.8508
 L 202.67,-78.8916 L 202.61,-78.934 L 202.558,-78.978 L 202.511,-79.0247 L 202.47,-79.0745 L 202.432,-79.1273
 L 202.399,-79.1831 L 202.371,-79.242 L 202.348,-79.3042 L 202.33,-79.3698 L 202.317,-79.439 L 202.31,-79.5117
 L 202.307,-79.588 L 202.32,-79.759 L 202.361,-79.9134 L 202.428,-80.0514 L 202.523,-80.173 L 202.644,-80.278
 L 202.791,-80.3651 L 202.961,-80.4329 L 203.154,-80.4813 L 203.371,-80.5103 L 203.611,-80.52 L 203.834,-80.5128
 L 204.035,-80.4912 L 204.214,-80.4552 L 204.37,-80.4048 L 204.505,-80.34 L 204.622,-80.2583 L 204.723,-80.1565
 L 204.81,-80.0345 L 204.882,-79.8923 L 204.939,-79.73 L 204.481,-79.649 L 204.445,-79.7522 L 204.398,-79.8434
 L 204.341,-79.9226 L 204.272,-79.9898 L 204.193,-80.045 L 204.102,-80.0896 L 203.997,-80.1244 L 203.88,-80.1492
 L 203.749,-80.164 L 203.606,-80.169 L 203.449,-80.1634 L 203.308,-80.1466 L 203.182,-80.1186 L 203.072,-80.0794
 L 202.977,-80.029 L 202.899,-79.9679 L 202.838,-79.8957 L 202.795,-79.8125 L 202.769,-79.7183 L 202.76,-79.613
 L 202.763,-79.5508 L 202.773,-79.4931 L 202.79,-79.44 L 202.814,-79.3912 L 202.844,-79.347 L 202.881,-79.3063
 L 202.923,-79.2681 L 202.971,-79.2325 L 203.026,-79.1995 L 203.086,-79.169 L 203.162,-79.1385 L 203.263,-79.1053
 L 203.39,-79.0695 L 203.541,-79.0311 L 203.718,-78.99 L 204.095,-78.8982 L 204.217,-78.863 L 204.334,-78.823
 L 204.446,-78.7776 L 204.5,-78.7525 L 204.552,-78.726 L 204.603,-78.698 L 204.652,-78.6683 L 204.698,-78.6359
 L 204.742,-78.6009 L 204.783,-78.5633 L 204.821,-78.523 L 204.857,-78.4799 L 204.889,-78.4339 L 204.918,-78.3849
 L 204.944,-78.3329 L 204.966,-78.278 L 204.985,-78.2196 L 205,-78.1573 L 205.011,-78.0912 L 205.017,-78.021
 L 205.019,-77.947 L 205.004,-77.7629 L 204.959,-77.5961 L 204.885,-77.4467 L 204.781,-77.3147 L 204.647,-77.2
 L 204.486,-77.1049 L 204.302,-77.031 L 204.092,-76.9782 L 203.859,-76.9466 L 203.601,-76.936 z
M 234.787,-75.0304 L 235.124,-75.1206 L 235.44,-75.268 L 235.726,-75.4679 L 235.972,-75.7144 L 236.172,-76
 L 236.319,-76.316 L 236.41,-76.6527 L 236.44,-77 L 236.44,-109 L 236.41,-109.347 L 236.319,-109.684
 L 236.172,-110 L 235.972,-110.286 L 235.726,-110.532 L 235.44,-110.732 L 235.124,-110.879 L 234.787,-110.97
 L 234.44,-111 L 221.84,-111 L 221.493,-110.97 L 221.156,-110.879 L 220.84,-110.732 L 220.554,-110.532
 L 220.308,-110.286 L 220.108,-110 L 219.961,-109.684 L 219.87,-109.347 L 219.84,-109 L 219.84,-77
 L 219.87,-76.6527 L 219.961,-76.316 L 220.108,-76 L 220.308,-75.7144 L 220.554,-75.4679 L 220.84,-75.268
 L 221.156,-75.1206 L 221.493,-75.0304 L 221.84,-75 L 234.44,-75 z
M 223.062,-76.9709 L 222.686,-77.0757 L 222.396,-77.2503 L 222.189,-77.4947 L 222.067,-77.809 L 222.518,-77.899
 L 222.556,-77.7816 L 222.608,-77.6774 L 222.675,-77.5864 L 222.755,-77.5086 L 222.849,-77.444 L 222.958,-77.3918
 L 223.081,-77.3512 L 223.218,-77.3222 L 223.371,-77.3048 L 223.538,-77.299 L 223.71,-77.3053 L 223.866,-77.3243
 L 224.005,-77.3559 L 224.127,-77.4001 L 224.233,-77.457 L 224.321,-77.5262 L 224.39,-77.6072 L 224.439,-77.7002
 L 224.468,-77.8051 L 224.478,-77.922 L 224.475,-77.9878 L 224.466,-78.0484 L 224.45,-78.1038 L 224.429,-78.154
 L 224.401,-78.199 L 224.368,-78.2399 L 224.33,-78.2779 L 224.287,-78.3129 L 224.239,-78.3449 L 224.186,-78.374
 L 224.128,-78.4011 L 224.066,-78.4263 L 224,-78.4497 L 223.929,-78.4713 L 223.854,-78.491 L 223.273,-78.6284
 L 223.134,-78.6648 L 223.01,-78.7012 L 222.902,-78.7376 L 222.81,-78.774 L 222.73,-78.8116 L 222.656,-78.8508
 L 222.59,-78.8916 L 222.53,-78.934 L 222.478,-78.978 L 222.431,-79.0247 L 222.39,-79.0745 L 222.352,-79.1273
 L 222.319,-79.1831 L 222.291,-79.242 L 222.268,-79.3042 L 222.25,-79.3698 L 222.237,-79.439 L 222.23,-79.5117
 L 222.227,-79.588 L 222.24,-79.759 L 222.281,-79.9134 L 222.348,-80.0514 L 222.443,-80.173 L 222.564,-80.278
 L 222.711,-80.3651 L 222.881,-80.4329 L 223.074,-80.4813 L 223.291,-80.5103 L 223.531,-80.52 L 223.754,-80.5128
 L 223.955,-80.4912 L 224.134,-80.4552 L 224.29,-80.4048 L 224.425,-80.34 L 224.542,-80.2583 L 224.643,-80.1565
 L 224.73,-80.0345 L 224.802,-79.8923 L 224.859,-79.73 L 224.401,-79.649 L 224.365,-79.7522 L 224.318,-79.8434
 L 224.261,-79.9226 L 224.192,-79.9898 L 224.113,-80.045 L 224.022,-80.0896 L 223.917,-80.1244 L 223.8,-80.1492
 L 223.669,-80.164 L 223.526,-80.169 L 223.369,-80.1634 L 223.228,-80.1466 L 223.102,-80.1186 L 222.992,-80.0794
 L 222.897,-80.029 L 222.819,-79.9679 L 222.758,-79.8957 L 222.715,-79.8125 L 222.689,-79.7183 L 222.68,-79.613
 L 222.683,-79.5508 L 222.693,-79.4931 L 222.71,-79.44 L 222.734,-79.3912 L 222.764,-79.347 L 222.801,-79.3063
 L 222.843,-79.2681 L 222.891,-79.2325 L 222.946,-79.1995 L 223.006,-79.169 L 223.082,-79.1385 L 223.183,-79.1053
 L 223.31,-79.0695 L 223.461,-79.0311 L 223.638,-78.99 L 224.015,-78.8982 L 224.137,-78.863 L 224.254,-78.823
 L 224.366,-78.7776 L 224.42,-78.7525 L 224.472,-78.726 L 224.523,-78.698 L 224.572,-78.6683 L 224.618,-78.6359
 L 224.662,-78.6009 L 224.703,-78.5633 L 224.741,-78.523 L 224.777,-78.4799 L 224.809,-78.4339 L 224.838,-78.3849
 L 224.864,-78.3329 L 224.886,-78.278 L 224.905,-78.2196 L 224.92,-78.1573 L 224.931,-78.0912 L 224.937,-78.021
 L 224.939,-77.947 L 224.924,-77.7629 L 224.879,-77.5961 L 224.805,-77.4467 L 224.701,-77.3147 L 224.567,-77.2
 L 224.406,-77.1049 L 224.222,-77.031 L 224.012,-76.9782 L 223.779,-76.9466 L 223.521,-76.936 z
M 194.947,-75.0304 L 195.284,-75.1206 L 195.6,-75.268 L 195.886,-75.4679 L 196.132,-75.7144 L 196.332,-76
 L 196.479,-76.316 L 196.57,-76.6527 L 196.6,-77 L 196.6,-109 L 196.57,-109.347 L 196.479,-109.684
 L 196.332,-110 L 196.132,-110.286 L 195.886,-110.532 L 195.6,-110.732 L 195.284,-110.879 L 194.947,-110.97
 L 194.6,-111 L 182,-111 L 181.653,-110.97 L 181.316,-110.879 L 181,-110.732 L 180.714,-110.532
 L 180.468,-110.286 L 180.268,-110 L 180.121,-109.684 L 180.03,-109.347 L 180,-109 L 180,-77
 L 180.03,-76.6527 L 180.121,-76.316 L 180.268,-76 L 180.468,-75.7144 L 180.714,-75.4679 L 181,-75.268
 L 181.316,-75.1206 L 181.653,-75.0304 L 182,-75 L 194.6,-75 z
M 183.222,-76.9709 L 182.846,-77.0757 L 182.556,-77.2503 L 182.349,-77.4947 L 182.227,-77.809 L 182.678,-77.899
 L 182.716,-77.7816 L 182.768,-77.6774 L 182.835,-77.5864 L 182.915,-77.5086 L 183.009,-77.444 L 183.118,-77.3918
 L 183.241,-77.3512 L 183.378,-77.3222 L 183.531,-77.3048 L 183.698,-77.299 L 183.87,-77.3053 L 184.026,-77.3243
 L 184.165,-77.3559 L 184.287,-77.4001 L 184.393,-77.457 L 184.481,-77.5262 L 184.55,-77.6072 L 184.599,-77.7002
 L 184.628,-77.8051 L 184.638,-77.922 L 184.635,-77.9878 L 184.626,-78.0484 L 184.61,-78.1038 L 184.589,-78.154
 L 184.561,-78.199 L 184.528,-78.2399 L 184.49,-78.2779 L 184.447,-78.3129 L 184.399,-78.3449 L 184.346,-78.374
 L 184.288,-78.4011 L 184.226,-78.4263 L 184.16,-78.4497 L 184.089,-78.4713 L 184.014,-78.491 L 183.433,-78.6284
 L 183.294,-78.6648 L 183.17,-78.7012 L 183.062,-78.7376 L 182.97,-78.774 L 182.89,-78.8116 L 182.816,-78.8508
 L 182.75,-78.8916 L 182.69,-78.934 L 182.638,-78.978 L 182.591,-79.0247 L 182.55,-79.0745 L 182.512,-79.1273
 L 182.479,-79.1831 L 182.451,-79.242 L 182.428,-79.3042 L 182.41,-79.3698 L 182.397,-79.439 L 182.39,-79.5117
 L 182.387,-79.588 L 182.4,-79.759 L 182.441,-79.9134 L 182.508,-80.0514 L 182.603,-80.173 L 182.724,-80.278
 L 182.871,-80.3651 L 183.041,-80.4329 L 183.234,-80.4813 L 183.451,-80.5103 L 183.691,-80.52 L 183.914,-80.5128
 L 184.115,-80.4912 L 184.294,-80.4552 L 184.45,-80.4048 L 184.585,-80.34 L 184.702,-80.2583 L 184.803,-80.1565
 L 184.89,-80.0345 L 184.962,-79.8923 L 185.019,-79.73 L 184.561,-79.649 L 184.525,-79.7522 L 184.478,-79.8434
 L 184.421,-79.9226 L 184.352,-79.9898 L 184.273,-80.045 L 184.182,-80.0896 L 184.077,-80.1244 L 183.96,-80.1492
 L 183.829,-80.164 L 183.686,-80.169 L 183.529,-80.1634 L 183.388,-80.1466 L 183.262,-80.1186 L 183.152,-80.0794
 L 183.057,-80.029 L 182.979,-79.9679 L 182.918,-79.8957 L 182.875,-79.8125 L 182.849,-79.7183 L 182.84,-79.613
 L 182.843,-79.5508 L 182.853,-79.4931 L 182.87,-79.44 L 182.894,-79.3912 L 182.924,-79.347 L 182.961,-79.3063
 L 183.003,-79.2681 L 183.051,-79.2325 L 183.106,-79.1995 L 183.166,-79.169 L 183.242,-79.1385 L 183.343,-79.1053
 L 183.47,-79.0695 L 183.621,-79.0311 L 183.798,-78.99 L 184.175,-78.8982 L 184.297,-78.863 L 184.414,-78.823
 L 184.526,-78.7776 L 184.58,-78.7525 L 184.632,-78.726 L 184.683,-78.698 L 184.732,-78.6683 L 184.778,-78.6359
 L 184.822,-78.6009 L 184.863,-78.5633 L 184.901,-78.523 L 184.937,-78.4799 L 184.969,-78.4339 L 184.998,-78.3849
 L 185.024,-78.3329 L 185.046,-78.278 L 185.065,-78.2196 L 185.08,-78.1573 L 185.091,-78.0912 L 185.097,-78.021
 L 185.099,-77.947 L 185.084,-77.7629 L 185.039,-77.5961 L 184.965,-77.4467 L 184.861,-77.3147 L 184.727,-77.2
 L 184.566,-77.1049 L 184.382,-77.031 L 184.172,-76.9782 L 183.939,-76.9466 L 183.681,-76.936 z
M 274.627,-75.0304 L 274.964,-75.1206 L 275.28,-75.268 L 275.566,-75.4679 L 275.812,-75.7144 L 276.012,-76
 L 276.159,-76.316 L 276.25,-76.6527 L 276.28,-77 L 276.28,-109 L 276.25,-109.347 L 276.159,-109.684
 L 276.012,-110 L 275.812,-110.286 L 275.566,-110.532 L 275.28,-110.732 L 274.964,-110.879 L 274.627,-110.97
 L 274.28,-111 L 261.68,-111 L 261.333,-110.97 L 260.996,-110.879 L 260.68,-110.732 L 260.394,-110.532
 L 260.148,-110.286 L 259.948,-110 L 259.801,-109.684 L 259.71,-109.347 L 259.68,-109 L 259.68,-77
 L 259.71,-76.6527 L 259.801,-76.316 L 259.948,-76 L 260.148,-75.7144 L 260.394,-75.4679 L 260.68,-75.268
 L 260.996,-75.1206 L 261.333,-75.0304 L 261.68,-75 L 274.28,-75 z
M 262.902,-76.9709 L 262.526,-77.0757 L 262.236,-77.2503 L 262.029,-77.4947 L 261.907,-77.809 L 262.358,-77.899
 L 262.396,-77.7816 L 262.448,-77.6774 L 262.515,-77.5864 L 262.595,-77.5086 L 262.689,-77.444 L 262.798,-77.3918
 L 262.921,-77.3512 L 263.058,-77.3222 L 263.211,-77.3048 L 263.378,-77.299 L 263.55,-77.3053 L 263.706,-77.3243
 L 263.845,-77.3559 L 263.967,-77.4001 L 264.073,-77.457 L 264.161,-77.5262 L 264.23,-77.6072 L 264.279,-77.7002
 L 264.308,-77.8051 L 264.318,-77.922 L 264.315,-77.9878 L 264.306,-78.0484 L 264.29,-78.1038 L 264.269,-78.154
 L 264.241,-78.199 L 264.208,-78.2399 L 264.17,-78.2779 L 264.127,-78.3129 L 264.079,-78.3449 L 264.026,-78.374
 L 263.968,-78.4011 L 263.906,-78.4263 L 263.84,-78.4497 L 263.769,-78.4713 L 263.694,-78.491 L 263.113,-78.6284
 L 262.974,-78.6648 L 262.85,-78.7012 L 262.742,-78.7376 L 262.65,-78.774 L 262.57,-78.8116 L 262.496,-78.8508
 L 262.43,-78.8916 L 262.37,-78.934 L 262.318,-78.978 L 262.271,-79.0247 L 262.23,-79.0745 L 262.192,-79.1273
 L 262.159,-79.1831 L 262.131,-79.242 L 262.108,-79.3042 L 262.09,-79.3698 L 262.077,-79.439 L 262.07,-79.5117
 L 262.067,-79.588 L 262.08,-79.759 L 262.121,-79.9134 L 262.188,-80.0514 L 262.283,-80.173 L 262.404,-80.278
 L 262.551,-80.3651 L 262.721,-80.4329 L 262.914,-80.4813 L 263.131,-80.5103 L 263.371,-80.52 L 263.594,-80.5128
 L 263.795,-80.4912 L 263.974,-80.4552 L 264.13,-80.4048 L 264.265,-80.34 L 264.382,-80.2583 L 264.483,-80.1565
 L 264.57,-80.0345 L 264.642,-79.8923 L 264.699,-79.73 L 264.241,-79.649 L 264.205,-79.7522 L 264.158,-79.8434
 L 264.101,-79.9226 L 264.032,-79.9898 L 263.953,-80.045 L 263.862,-80.0896 L 263.757,-80.1244 L 263.64,-80.1492
 L 263.509,-80.164 L 263.366,-80.169 L 263.209,-80.1634 L 263.068,-80.1466 L 262.942,-80.1186 L 262.832,-80.0794
 L 262.737,-80.029 L 262.659,-79.9679 L 262.598,-79.8957 L 262.555,-79.8125 L 262.529,-79.7183 L 262.52,-79.613
 L 262.523,-79.5508 L 262.533,-79.4931 L 262.55,-79.44 L 262.574,-79.3912 L 262.604,-79.347 L 262.641,-79.3063
 L 262.683,-79.2681 L 262.731,-79.2325 L 262.786,-79.1995 L 262.846,-79.169 L 262.922,-79.1385 L 263.023,-79.1053
 L 263.15,-79.0695 L 263.301,-79.0311 L 263.478,-78.99 L 263.855,-78.8982 L 263.977,-78.863 L 264.094,-78.823
 L 264.206,-78.7776 L 264.26,-78.7525 L 264.312,-78.726 L 264.363,-78.698 L 264.412,-78.6683 L 264.458,-78.6359
 L 264.502,-78.6009 L 264.543,-78.5633 L 264.581,-78.523 L 264.617,-78.4799 L 264.649,-78.4339 L 264.678,-78.3849
 L 264.704,-78.3329 L 264.726,-78.278 L 264.745,-78.2196 L 264.76,-78.1573 L 264.771,-78.0912 L 264.777,-78.021
 L 264.779,-77.947 L 264.764,-77.7629 L 264.719,-77.5961 L 264.645,-77.4467 L 264.541,-77.3147 L 264.407,-77.2
 L 264.246,-77.1049 L 264.062,-77.031 L 263.852,-76.9782 L 263.619,-76.9466 L 263.361,-76.936 z
M 254.707,-75.0304 L 255.044,-75.1206 L 255.36,-75.268 L 255.646,-75.4679 L 255.892,-75.7144 L 256.092,-76
 L 256.239,-76.316 L 256.33,-76.6527 L 256.36,-77 L 256.36,-109 L 256.33,-109.347 L 256.239,-109.684
 L 256.092,-110 L 255.892,-110.286 L 255.646,-110.532 L 255.36,-110.732 L 255.044,-110.879 L 254.707,-110.97
 L 254.36,-111 L 241.76,-111 L 241.413,-110.97 L 241.076,-110.879 L 240.76,-110.732 L 240.474,-110.532
 L 240.228,-110.286 L 240.028,-110 L 239.881,-109.684 L 239.79,-109.347 L 239.76,-109 L 239.76,-77
 L 239.79,-76.6527 L 239.881,-76.316 L 240.028,-76 L 240.228,-75.7144 L 240.474,-75.4679 L 240.76,-75.268
 L 241.076,-75.1206 L 241.413,-75.0304 L 241.76,-75 L 254.36,-75 z
M 242.982,-76.9709 L 242.606,-77.0757 L 242.316,-77.2503 L 242.109,-77.4947 L 241.987,-77.809 L 242.438,-77.899
 L 242.476,-77.7816 L 242.528,-77.6774 L 242.595,-77.5864 L 242.675,-77.5086 L 242.769,-77.444 L 242.878,-77.3918
 L 243.001,-77.3512 L 243.138,-77.3222 L 243.291,-77.3048 L 243.458,-77.299 L 243.63,-77.3053 L 243.786,-77.3243
 L 243.925,-77.3559 L 244.047,-77.4001 L 244.153,-77.457 L 244.241,-77.5262 L 244.31,-77.6072 L 244.359,-77.7002
 L 244.388,-77.8051 L 244.398,-77.922 L 244.395,-77.9878 L 244.386,-78.0484 L 244.37,-78.1038 L 244.349,-78.154
 L 244.321,-78.199 L 244.288,-78.2399 L 244.25,-78.2779 L 244.207,-78.3129 L 244.159,-78.3449 L 244.106,-78.374
 L 244.048,-78.4011 L 243.986,-78.4263 L 243.92,-78.4497 L 243.849,-78.4713 L 243.774,-78.491 L 243.193,-78.6284
 L 243.054,-78.6648 L 242.93,-78.7012 L 242.822,-78.7376 L 242.73,-78.774 L 242.65,-78.8116 L 242.576,-78.8508
 L 242.51,-78.8916 L 242.45,-78.934 L 242.398,-78.978 L 242.351,-79.0247 L 242.31,-79.0745 L 242.272,-79.1273
 L 242.239,-79.1831 L 242.211,-79.242 L 242.188,-79.3042 L 242.17,-79.3698 L 242.157,-79.439 L 242.15,-79.5117
 L 242.147,-79.588 L 242.16,-79.759 L 242.201,-79.9134 L 242.268,-80.0514 L 242.363,-80.173 L 242.484,-80.278
 L 242.631,-80.3651 L 242.801,-80.4329 L 242.994,-80.4813 L 243.211,-80.5103 L 243.451,-80.52 L 243.674,-80.5128
 L 243.875,-80.4912 L 244.054,-80.4552 L 244.21,-80.4048 L 244.345,-80.34 L 244.462,-80.2583 L 244.563,-80.1565
 L 244.65,-80.0345 L 244.722,-79.8923 L 244.779,-79.73 L 244.321,-79.649 L 244.285,-79.7522 L 244.238,-79.8434
 L 244.181,-79.9226 L 244.112,-79.9898 L 244.033,-80.045 L 243.942,-80.0896 L 243.837,-80.1244 L 243.72,-80.1492
 L 243.589,-80.164 L 243.446,-80.169 L 243.289,-80.1634 L 243.148,-80.1466 L 243.022,-80.1186 L 242.912,-80.0794
 L 242.817,-80.029 L 242.739,-79.9679 L 242.678,-79.8957 L 242.635,-79.8125 L 242.609,-79.7183 L 242.6,-79.613
 L 242.603,-79.5508 L 242.613,-79.4931 L 242.63,-79.44 L 242.654,-79.3912 L 242.684,-79.347 L 242.721,-79.3063
 L 242.763,-79.2681 L 242.811,-79.2325 L 242.866,-79.1995 L 242.926,-79.169 L 243.002,-79.1385 L 243.103,-79.1053
 L 243.23,-79.0695 L 243.381,-79.0311 L 243.558,-78.99 L 243.935,-78.8982 L 244.057,-78.863 L 244.174,-78.823
 L 244.286,-78.7776 L 244.34,-78.7525 L 244.392,-78.726 L 244.443,-78.698 L 244.492,-78.6683 L 244.538,-78.6359
 L 244.582,-78.6009 L 244.623,-78.5633 L 244.661,-78.523 L 244.697,-78.4799 L 244.729,-78.4339 L 244.758,-78.3849
 L 244.784,-78.3329 L 244.806,-78.278 L 244.825,-78.2196 L 244.84,-78.1573 L 244.851,-78.0912 L 244.857,-78.021
 L 244.859,-77.947 L 244.844,-77.7629 L 244.799,-77.5961 L 244.725,-77.4467 L 244.621,-77.3147 L 244.487,-77.2
 L 244.326,-77.1049 L 244.142,-77.031 L 243.932,-76.9782 L 243.699,-76.9466 L 243.441,-76.936 z
M 269,66.7 L 279,66.7 L 279,70 L 289,70 L 289,66.7 L 299,66.7
 L 299,70 L 309,70 L 309,66.7 L 319,66.7 L 319,70 L 338,70
 L 338,55 L 334.69,55 L 334.69,45 L 338,45 L 338,35 L 334.69,35
 L 334.69,25 L 338,25 L 338,15 L 334.69,15 L 334.69,5 L 338,5
 L 338,-4.99998 L 334.69,-4.99998 L 334.69,-15 L 338,-15 L 338,-25 L 334.69,-25
 L 334.69,-35 L 338,-35 L 338,-45 L 334.69,-45 L 334.69,-55 L 338,-55
 L 338,-70 L 320.5,-70 L 320.5,-66.69 L 310.5,-66.69 L 310.5,-70 L 293,-70
 L 230,70 L 249,70 L 249,66.7 L 259,66.7 L 259,70 L 269,70
 z
M 312.596,-51.9662 L 312.036,-53.0777 L 311.993,-53.0965 L 310.443,-56.7 L 324.491,-56.7 L 324.698,-56.1002
 L 323.389,-42.5787 z
M 301.394,-56.2427 L 301.6,-56.7 L 305.913,-56.7 L 306.541,-54.8456 z
M 300.766,-51.761 L 302.561,-51.1413 L 300.318,-49.6318 z
M 317.88,-19.1551 L 316.922,-19.658 L 316.509,-19.5294 L 305.276,-25.2383 L 304.967,-25.6433 L 304.898,-25.7592
 L 311.238,-29.9362 L 310.24,-31.5921 L 304.671,-28.5383 L 306.059,-33.058 L 304.647,-33.5502 L 302.711,-28.6007
 L 298.953,-33.525 L 299.822,-46.2276 L 304.948,-50.3175 L 309.177,-48.8581 L 309.233,-48.8055 L 309.349,-48.799
 L 309.506,-48.7448 L 309.519,-48.7892 L 309.649,-48.7818 L 323.496,-34.6779 L 323.546,-34.7315 L 323.761,-34.4805
 L 324.7,-31.927 L 324.7,-18.8471 z
M 298.225,-49.2019 L 298.557,-49.9385 L 298.321,-49.1244 z
M 294.811,-40.711 L 294.858,-40.9681 L 294.807,-40.9953 L 294.847,-41.6932 L 297.102,-46.7053 L 297.521,-46.3096
 L 296.373,-37.7408 z
M 292.045,-35.4677 L 293.798,-39.3634 L 295.695,-35.012 z
M 289.672,-26.2945 L 289.313,-26.5855 L 289.162,-26.4878 L 288.187,-26.8939 L 291.24,-33.6777 L 294.786,-32.9684
 L 294.762,-32.9456 L 300.827,-26.0782 z
M 291.651,-15.3277 L 291.452,-15.569 L 291.388,-15.5438 L 287.075,-19.6041 L 286.183,-18.7252 L 289.567,-15.0241
 L 286.195,-14.0089 L 282.625,-14.5335 L 285.677,-21.3166 L 290.063,-23.5737 L 290.005,-23.6743 L 292.049,-23.4967
 L 292.045,-23.4921 L 296.714,-19.2278 L 298.424,-14.07 L 298.01,-13.9391 z
M 294.144,-23.3146 L 297.3,-23.0404 L 296.874,-21.1522 z
M 298.125,-19.8176 L 298.198,-20.0795 L 298.148,-20.1124 L 298.565,-22.9305 L 300.861,-22.731 L 299.463,-16.5938
 z
M 303.426,-22.5081 L 303.892,-22.4677 L 303.897,-22.5688 L 311.191,-18.1073 L 302.268,-15.2854 z
M 320.114,4.7018 L 319.042,4.0732 L 318.578,4.15187 L 307.506,-2.80469 L 307.224,-3.25317 L 307.135,-3.44023
 L 307.105,-3.44249 L 302.413,-10.9103 L 317.396,-14.6561 L 317.329,-14.8925 L 317.498,-14.9453 L 324.7,-13.9616
 L 324.7,5.32898 z
M 290.357,-13.3973 L 291.28,-13.6057 L 293.58,-12.9238 z
M 282.475,-10.0788 L 282.329,-10.405 L 282.251,-10.3966 L 281.757,-11.2102 L 290.329,-9.35464 L 288.579,-6.85959
 z
M 292.486,-5.25453 L 295.647,-9.21887 L 299.794,-10.2557 L 303.016,-4.08992 z
M 276.946,-1.91438 L 279.855,-8.37881 L 281.541,-8.29781 L 287.136,-4.80194 L 286.398,-3.74988 L 281.4,-1.17479
 z
M 295.046,9.05849 L 295.05,9.0452 L 283.841,6.34158 L 283.866,5.55705 L 289.688,-1.74454 L 291.591,-2.51492
 L 291.541,-2.6246 L 305.811,-0.0654297 L 305.826,-0.169617 L 312.961,5.1391 L 295.051,9.05942 z
M 274.799,2.85684 L 275.785,0.665985 L 278.651,1.35167 L 276.309,3.91586 z
M 278.012,4.9359 L 281.678,1.48885 L 281.681,1.49559 L 283.131,0.908737 L 280.986,3.9669 L 280.302,4.3226
 L 280.239,4.64685 L 279.28,5.24161 z
M 263.451,28.0749 L 268.623,16.582 L 268.885,16.8026 L 273.946,11.221 L 273.949,11.2269 L 279.094,8.65135
 L 280.037,8.94736 L 280.496,18.3482 L 280.451,18.414 L 280.324,18.6931 L 280.247,18.99 L 280.222,19.2958
 L 280.249,19.5709 L 279.994,24.6817 L 279.593,25.155 L 278.852,25.4589 L 278.755,25.7888 L 271.382,29.4833
 z
M 286.24,43.6529 L 285.956,43.8103 L 280.797,42.1265 L 280.853,41.8497 L 280.951,41.5765 L 281.005,41.262
 L 281.003,40.943 L 280.947,40.6291 L 280.836,40.3298 L 280.794,40.2581 L 281.392,35.4302 L 281.931,35.4732
 L 282.909,26.57 L 296.022,12.8798 L 319.062,9.29877 L 319.048,9.22795 L 319.365,9.04803 L 324.7,10.2777
 L 324.7,19.8781 L 321.213,23.9643 L 321.094,23.9907 L 320.709,24.1507 L 320.357,24.3751 L 320.05,24.6572
 L 320.005,24.7157 L 319.896,24.6219 L 305.594,42.2889 L 286.939,43.9415 z
M 283.647,19.8429 L 283.717,19.5727 L 283.742,19.2669 L 283.712,18.9616 L 283.631,18.6659 L 283.499,18.389
 L 283.452,18.324 L 283.719,10.1022 L 290.527,12.2378 L 283.581,20.4434 z
M 271.006,11.2862 L 271.193,11.3155 L 270.717,11.9278 z
M 312.408,56.7 L 308.722,44.3744 L 323.736,27.923 L 323.627,27.8292 L 323.835,27.5566 L 324.028,27.1864
 L 324.153,26.7884 L 324.169,26.6678 L 324.7,26.1256 L 324.7,56.7 z
M 250.57,56.7 L 262.466,30.2636 L 268.757,31.843 L 264.717,36.1673 L 265.85,37.3089 L 271.617,32.0047
 L 271.62,32.0111 L 278.174,29.4438 L 277.73,40.0045 L 277.677,40.0684 L 277.65,40.1152 L 272.215,32.4221
 L 270.547,33.5152 L 275.225,41.235 L 269.642,41.4549 L 269.644,42.9733 L 277.037,43.2428 L 277.035,43.2489
 L 277.073,43.2654 L 275.77,52.4694 L 273.502,52.1949 L 273.23,53.9921 L 273.681,54.0742 L 270.229,56.7
 z
M 280.285,44.6487 L 283.139,45.8775 L 279.315,49.4308 z
M 285.859,53.8279 L 285.813,53.7912 L 285.615,53.6834 L 285.401,53.6116 L 285.178,53.578 L 284.975,53.5831
 L 280.104,52.9938 L 287.567,47.1104 L 301.59,46.7331 L 294.806,54.023 z
M 296.975,56.7 L 296.841,55.7524 L 304.978,48.0731 L 308.182,56.7 z
M 277.841,56.7 L 278.206,54.8974 L 284.6,56.0605 L 284.794,56.1259 L 285.017,56.1595 L 285.242,56.1539
 L 285.463,56.1092 L 285.673,56.0269 L 285.723,55.9963 L 291.995,56.6445 L 291.93,56.7 z
M -165,66.7 L -154.99,66.7 L -154.99,70 L -144.98,70 L -144.98,66.7 L -134.97,66.7
 L -134.97,70 L -124.96,70 L -124.96,66.7 L -114.95,66.7 L -114.95,70 L -104.94,70
 L -104.94,66.7 L -94.93,66.7 L -94.93,70 L -84.92,70 L -84.92,66.7 L -74.91,66.7
 L -74.91,70 L -64.9,70 L -64.9,66.7 L -54.89,66.7 L -54.89,70 L -44.88,70
 L -44.88,66.7 L -34.87,66.7 L -34.87,70 L -24.86,70 L -24.86,66.7 L -14.85,66.7
 L -14.85,70 L -4.84001,70 L -4.84001,66.7 L 5.17,66.7 L 5.17,70 L 15.18,70
 L 15.18,66.7 L 25.19,66.7 L 25.19,70 L 35.2,70 L 35.2,66.7 L 45.21,66.7
 L 45.21,70 L 55.22,70 L 55.22,66.7 L 65.23,66.7 L 65.23,70 L 75.24,70
 L 75.24,66.7 L 85.25,66.7 L 85.25,70 L 95.26,70 L 95.26,66.7 L 105.27,66.7
 L 105.27,70 L 115.28,70 L 115.28,66.7 L 125.29,66.7 L 125.29,70 L 135.3,70
 L 135.3,66.7 L 145.31,66.7 L 145.31,70 L 155.32,70 L 155.32,66.7 L 165.33,66.7
 L 165.33,70 L 171.69,70 L 171.69,55 L 175,55 L 175,45 L 171.69,45
 L 171.69,35 L 175,35 L 175,25 L 171.69,25 L 171.69,15 L 175,15
 L 175,5 L 171.69,5 L 171.69,-5 L 175,-5 L 175,-15 L 171.69,-15
 L 171.69,-25 L 175,-25 L 175,-35 L 171.69,-35 L 171.69,-45 L 175,-45
 L 175,-55 L 171.69,-55 L 171.69,-70 L 165.33,-70 L 165.33,-66.71 L 155.32,-66.71
 L 155.32,-70 L 145.31,-70 L 145.31,-66.71 L 135.3,-66.71 L 135.3,-70 L 125.29,-70
 L 125.29,-66.71 L 115.28,-66.71 L 115.28,-70 L 105.27,-70 L 105.27,-66.71 L 95.26,-66.71
 L 95.26,-70 L 85.25,-70 L 85.25,-66.71 L 75.24,-66.71 L 75.24,-70 L 65.23,-70
 L 65.23,-66.71 L 55.22,-66.71 L 55.22,-70 L 45.21,-70 L 45.21,-66.71 L 35.2,-66.71
 L 35.2,-70 L 25.19,-70 L 25.19,-66.71 L 15.18,-66.71 L 15.18,-70 L 5.17,-70
 L 5.17,-66.71 L -4.84001,-66.71 L -4.84001,-70 L -14.85,-70 L -14.85,-66.71 L -24.86,-66.71
 L -24.86,-70 L -34.87,-70 L -34.87,-66.71 L -44.88,-66.71 L -44.88,-70 L -54.89,-70
 L -54.89,-66.71 L -64.9,-66.71 L -64.9,-70 L -74.91,-70 L -74.91,-66.71 L -84.92,-66.71
 L -84.92,-70 L -94.93,-70 L -94.93,-66.71 L -104.94,-66.71 L -104.94,-70 L -114.95,-70
 L -114.95,-66.71 L -124.96,-66.71 L -124.96,-70 L -134.97,-70 L -134.97,-66.71 L -144.98,-66.71
 L -144.98,-70 L -154.99,-70 L -154.99,-66.71 L -165,-66.71 L -165,-70 L -171.7,-70
 L -171.7,-55 L -175,-55 L -175,-45 L -171.7,-45 L -171.7,-35 L -175,-35
 L -175,-25 L -171.7,-25 L -171.7,-15 L -175,-15 L -175,-5 L -171.7,-5
 L -171.7,5 L -175,5 L -175,15 L -171.7,15 L -171.7,25 L -175,25
 L -175,35 L -171.7,35 L -171.7,45 L -175,45 L -175,55 L -171.7,55
 L -171.7,70 L -165,70 z
M 197.5,66.69 L 207.5,66.69 L 207.5,70 L 225,70 L 288,-70 L 269,-70
 L 269,-66.7 L 259,-66.7 L 259,-70 L 249,-70 L 249,-66.7 L 239,-66.7
 L 239,-70 L 229,-70 L 229,-66.7 L 219,-66.7 L 219,-70 L 209,-70
 L 209,-66.7 L 199,-66.7 L 199,-70 L 180,-70 L 180,-55 L 183.31,-55
 L 183.31,-45 L 180,-45 L 180,-35 L 183.31,-35 L 183.31,-25 L 180,-25
 L 180,-15 L 183.31,-15 L 183.31,-4.99998 L 180,-4.99998 L 180,5 L 183.31,5
 L 183.31,15 L 180,15 L 180,25 L 183.31,25 L 183.31,35 L 180,35
 L 180,45 L 183.31,45 L 183.31,55 L 180,55 L 180,70 L 197.5,70
 z
M 207.302,-56.6608 L 207.347,-56.7 L 220.025,-56.7 L 219.873,-56.6056 L 216.606,-56.1443 L 216.475,-56.5265
 L 215.142,-56.1291 L 215.189,-55.9443 L 212.349,-55.5432 L 212.355,-55.5119 z
M 223.343,-56.7 L 223.358,-56.7 L 223.351,-56.6863 z
M 224.618,-41.3763 L 224.674,-42.609 L 230.341,-46.0477 L 230.627,-46.012 L 230.742,-46.2578 L 230.939,-46.2855
 L 230.98,-46.2552 L 231.007,-46.295 L 236.628,-47.0837 L 236.519,-48.0739 L 231.98,-47.7125 L 235.115,-52.2783
 L 233.923,-53.1683 L 229.324,-47.4912 L 229.431,-47.4118 L 225.607,-45.5033 L 230.352,-55.5408 L 231.506,-56.6621
 L 231.513,-56.7 L 254.986,-56.7 L 251.723,-49.9098 L 251.348,-49.5201 L 251.37,-49.3518 L 242.123,-40.5817
 L 241.452,-40.379 z
M 258.546,-56.7 L 267.43,-56.7 L 266.353,-54.3061 L 256.657,-51.7194 z
M 194.785,-56.7 L 200.825,-56.7 L 194.646,-55.0407 z
M 219.689,-49.6652 L 219.685,-49.6382 L 218.462,-50.7152 L 217.241,-54.285 L 219.964,-54.91 L 220.233,-54.7814
 L 220.299,-54.8502 L 221.875,-54.1745 L 222.236,-53.4306 L 222.314,-53.4724 L 222.277,-52.0832 L 220.741,-49.4638
 z
M 193.3,-49.4992 L 193.389,-49.951 L 193.833,-50.6916 L 203.818,-54.347 L 204.423,-54.2135 L 204.605,-54.4122
 L 211.96,-53.4342 L 213.256,-52.4457 L 211.22,-53.1445 L 210.669,-51.7294 L 217.377,-48.8038 L 217.403,-48.8702
 L 219.137,-46.7272 L 215.575,-40.6509 L 215.353,-40.4632 L 215.299,-40.3113 L 193.3,-30.767 z
M 214.993,-53.7689 L 215.704,-53.9321 L 215.964,-52.9142 z
M 254.217,-47.03 L 254.796,-47.2455 L 264.709,-50.6513 L 260.878,-42.1399 L 260.354,-42.0897 L 260.059,-41.7901
 L 249.14,-41.2463 z
M 250.148,-32.2267 L 250.258,-33.1712 L 250.267,-33.1656 L 252.034,-36.092 L 257.002,-36.7982 L 255.13,-32.6104
 L 255.212,-32.5776 L 251.833,-29.8925 z
M 247.793,-35.4894 L 247.831,-35.4948 L 247.86,-35.3969 z
M 224.038,-29.8628 L 224.134,-29.9444 L 224.385,-30.2491 L 224.58,-30.5927 L 224.712,-30.9649 L 224.777,-31.3544
 L 224.774,-31.7493 L 224.702,-32.1377 L 224.564,-32.5078 L 224.364,-32.8482 L 224.239,-32.9945 L 224.336,-35.1399
 L 241.348,-35.435 L 241.623,-35.3395 L 247.532,-28.2552 L 247.052,-25.7906 L 238.931,-20.5388 L 238.716,-20.5748
 L 238.321,-20.5716 L 237.933,-20.4998 L 237.563,-20.3617 L 237.222,-20.1614 L 236.922,-19.905 L 236.67,-19.6004
 L 236.608,-19.4909 L 220,-12.17 z
M 193.3,-22.2939 L 217.886,-34.8203 L 218.038,-34.7657 L 219.662,-35.0588 L 221.297,-35.0871 L 221.069,-33.2638
 L 220.904,-33.1228 L 220.652,-32.8182 L 220.457,-32.4746 L 220.325,-32.1024 L 220.26,-31.7129 L 220.263,-31.3179
 L 220.335,-30.9295 L 220.379,-30.8117 L 214.089,-9.1853 L 193.3,-2.74565 z
M 253.3,-27.859 L 255.276,-29.6898 L 254.01,-26.8762 z
M 237.392,2.30412 L 237.379,2.36794 L 237.302,2.34933 L 237.08,2.33484 L 236.858,2.35919 L 236.792,2.37846
 L 225.226,-1.94992 L 225.203,-1.88126 L 220.006,-6.73029 L 238.234,-16.0777 L 238.358,-16.0568 L 238.753,-16.0601
 L 239.142,-16.1318 L 239.512,-16.2699 L 239.852,-16.4702 L 240.153,-16.7266 L 240.404,-17.0312 L 240.599,-17.3749
 L 240.731,-17.7472 L 240.763,-17.9369 L 248.408,-23.7852 L 252.061,-22.5453 L 240.513,3.11708 z
M 218.742,14.5521 L 199.08,0.99231 L 216.063,-5.45529 L 216.481,-5.4297 L 223.654,0.16214 L 223.759,0.598801
 L 223.97,0.615326 L 226.552,6.31129 L 225.883,13.4118 L 225.792,13.3542 L 225.196,14.3938 L 218.808,14.5694
 z
M 232.324,10.5367 L 228.226,5.65157 L 228.207,5.66962 L 226.781,1.5618 L 236.106,4.40245 L 236.147,4.45793
 L 236.308,4.61212 L 236.493,4.73596 L 236.697,4.82571 L 236.838,4.86005 L 236.824,4.92384 L 239.491,5.38821
 L 236.295,12.4901 z
M 193.3,23.6967 L 193.3,5.17444 L 215.984,18.8295 L 216.838,19.8776 L 219.844,24.5166 L 212.768,27.8174
 L 212.807,27.8947 L 200.677,28.4264 L 200.618,28.3901 L 200.493,28.4344 L 200.42,28.4376 z
M 227.301,13.4883 L 227.28,13.4974 L 228.137,8.32199 L 231.157,11.3547 L 231.185,11.6037 L 231.263,11.6196
 L 231.663,14.216 L 227.625,14.327 z
M 232.529,12.0401 L 235.867,13.4406 L 235.567,14.1087 L 232.677,14.1881 z
M 223.212,19.988 L 229.505,19.2539 L 226.588,21.0014 L 226.631,21.0666 L 226.551,21.116 L 226.353,21.2937
 L 226.188,21.5033 L 226.149,21.5758 L 224.496,22.3468 z
M 225.771,24.6899 L 227.301,23.8566 L 227.382,23.8684 L 227.649,23.86 L 227.91,23.8055 L 228.157,23.7065
 L 228.304,23.6154 L 228.347,23.6806 L 232.647,20.5972 L 228.527,29.7518 z
M 221.766,31.6254 L 221.765,31.6573 L 217.066,29.433 L 221.474,27.0312 L 224.596,31.8472 z
M 193.3,56.7 L 193.3,55.3044 L 194.035,56.3839 L 194.746,55.9424 L 193.325,53.4273 L 197.964,53.2041
 L 197.948,52.3391 L 193.3,52.2839 L 193.3,28.4588 L 198.707,31.5949 L 206.383,43.0244 L 203.036,53.7827
 L 202.933,53.878 L 202.699,54.0401 L 202.712,54.0825 L 199.88,56.7 z
M 208.938,41.6134 L 203.619,32.211 L 213.15,30.9414 L 213.714,31.2038 L 213.935,31.0487 L 220.926,33.6064
 L 224.752,38.1415 L 222.703,42.694 L 216.674,43.4579 L 216.679,43.49 z
M 223.97,33.9383 L 225.942,33.9243 L 226.359,34.5688 L 225.623,36.2044 z
M 219.346,45.3071 L 221.76,44.789 L 220.896,46.7106 z
M 216.17,50.6882 L 216.159,50.6127 L 215.899,50.5099 L 215.659,50.3513 L 215.638,50.3856 L 211.717,44.9367
 L 216.246,45.6046 L 220.049,48.5915 L 218.434,52.1817 z
M 205.577,56.7 L 205.184,54.4221 L 208.42,46.119 L 213.54,52.0132 L 214.469,56.7 z
M 216.673,54.2195 L 217.346,54.5857 L 216.783,55.0901 z
M 203.02,56.7 L 203.237,56.5302 L 203.278,56.7 z
M 171.7,102.5 L 175,102.5 L 175,92.5 L 171.7,92.5 L 171.7,78.3 L 165.165,78.3
 L 165.165,75 L 155.155,75 L 155.155,78.3 L 145.145,78.3 L 145.145,75 L 135.135,75
 L 135.135,78.3 L 125.125,78.3 L 125.125,75 L 115.115,75 L 115.115,78.3 L 105.105,78.3
 L 105.105,75 L 95.095,75 L 95.095,78.3 L 85.085,78.3 L 85.085,75 L 75.075,75
 L 75.075,78.3 L 65.065,78.3 L 65.065,75 L 55.055,75 L 55.055,78.3 L 45.045,78.3
 L 45.045,75 L 35.035,75 L 35.035,78.3 L 25.025,78.3 L 25.025,75 L 15.015,75
 L 15.015,78.3 L 5.005,78.3 L 5.005,75 L -5.00497,75 L -5.00497,78.3 L -15.015,78.3
 L -15.015,75 L -25.025,75 L -25.025,78.3 L -35.035,78.3 L -35.035,75 L -45.045,75
 L -45.045,78.3 L -55.055,78.3 L -55.055,75 L -65.065,75 L -65.065,78.3 L -75.075,78.3
 L -75.075,75 L -85.085,75 L -85.085,78.3 L -95.095,78.3 L -95.095,75 L -105.105,75
 L -105.105,78.3 L -115.115,78.3 L -115.115,75 L -125.125,75 L -125.125,78.3 L -135.135,78.3
 L -135.135,75 L -145.145,75 L -145.145,78.3 L -155.155,78.3 L -155.155,75 L -165.165,75
 L -165.165,78.3 L -171.69,78.3 L -171.69,92.5 L -175,92.5 L -175,102.5 L -171.69,102.5
 L -171.69,120 L 171.7,120 z
M -158.4,103.4 L -158.4,91.6 L -143.29,91.6 L -157.301,103.4 z
M -123.87,103.4 L -122.427,91.6 L -63.5891,91.6 L -67.0146,99.9081 L -67.3217,100.091 L -68.2197,100.864
 L -68.9698,101.781 L -69.5493,102.815 L -69.7538,103.4 z
M -56.0755,103.4 L -50.2847,91.6 L -26.8169,91.6 L -24.251,98.8723 L -24.3447,99.1705 L -24.4787,100.198
 L -24.4323,101.234 L -24.2067,102.245 L -23.809,103.202 L -23.6828,103.4 z
M -12.5588,103.4 L -12.9171,102.322 L -12.7313,101.731 L -12.5972,100.703 L -12.6437,99.6674 L -12.8692,98.6558
 L -13.267,97.6987 L -13.8249,96.8252 L -14.5261,96.0618 L -14.7742,95.8719 L -15.9752,91.6 L 14.3347,91.6
 L 13.4662,100.181 L 13.2843,100.378 L 12.8039,101.128 L 12.461,101.95 L 12.2661,102.819 L 12.2392,103.4
 z
M 77.84,103.4 L 74.1857,91.6 L 98.7581,91.6 L 118.99,103.4 z
M 122.859,99.0568 L 122.843,99.199 L 122.654,99.2002 L 111.582,91.6 L 158.4,91.6 L 158.4,98.4917
 L 149.297,102.608 L 149.404,102.821 z
M 22.4285,103.4 L 22.4336,103.289 L 22.3197,102.406 L 22.054,101.556 L 21.9306,101.317 L 23.5588,91.6
 L 63.2221,91.6 L 67.8911,103.4 z
M -143.954,103.4 L -131.978,94.6781 L -132.425,103.4 z
M 190,75 L 180,75 L 180,95 L 190,95 z
" stroke="black" fill="lightgray" stroke-width="0.5"/>
</svg>
