<?xml version="1.0" standalone="no"?>
<!DOCTYPE svg PUBLIC "-//W3C//DTD SVG 1.1//EN" "http://www.w3.org/Graphics/SVG/1.1/DTD/svg11.dtd">
<svg width="513mm" height="375mm" viewBox="-175 -255 513 375" xmlns="http://www.w3.org/2000/svg" version="1.1">
<title>OpenSCAD Model</title>
<path d="
M -156,-80.51 L -148,-80.51 L -148,-75 L -140,-75 L -140,-80.51 L -132,-80.51
 L -132,-75 L -124,-75 L -124,-80.51 L -116,-80.51 L -116,-75 L -108,-75
 L -108,-80.51 L -100,-80.51 L -100,-75 L -92,-75 L -92,-80.51 L -84,-80.51
 L -84,-75 L -76,-75 L -76,-80.51 L -68,-80.51 L -68,-75 L -60,-75
 L -60,-80.51 L -52,-80.51 L -52,-75 L -44,-75 L -44,-80.51 L -36,-80.51
 L -36,-75 L -28,-75 L -28,-80.51 L -20,-80.51 L -20,-75 L -12,-75
 L -12,-80.51 L -4,-80.51 L -4,-75 L 4,-75 L 4,-80.51 L 12,-80.51
 L 12,-75 L 20,-75 L 20,-80.51 L 28,-80.51 L 28,-75 L 36,-75
 L 36,-80.51 L 44,-80.51 L 44,-75 L 52,-75 L 52,-80.51 L 60,-80.51
 L 60,-75 L 68,-75 L 68,-80.51 L 76,-80.51 L 76,-75 L 84,-75
 L 84,-80.51 L 92,-80.51 L 92,-75 L 100,-75 L 100,-80.51 L 108,-80.51
 L 108,-75 L 116,-75 L 116,-80.51 L 124,-80.51 L 124,-75 L 132,-75
 L 132,-80.51 L 140,-80.51 L 140,-75 L 148,-75 L 148,-80.51 L 156,-80.51
 L 156,-75 L 164,-75 L 164,-80.51 L 169.49,-80.51 L 169.49,-85 L 175,-85
 L 175,-93 L 169.49,-93 L 169.49,-101 L 175,-101 L 175,-109 L 169.49,-109
 L 169.49,-117 L 175,-117 L 175,-125 L 169.49,-125 L 169.49,-133 L 175,-133
 L 175,-141 L 169.49,-141 L 169.49,-149 L 175,-149 L 175,-157 L 169.49,-157
 L 169.49,-165 L 175,-165 L 175,-173 L 169.49,-173 L 169.49,-183 L 175,-183
 L 175,-205 L 173.907,-215.396 L 170.677,-225.337 L 165.451,-234.389 L 158.457,-242.157 L 150,-248.301
 L 140.451,-252.553 L 130.226,-254.726 L -130.226,-254.726 L -140.451,-252.553 L -150,-248.301 L -158.457,-242.157
 L -165.451,-234.389 L -170.677,-225.337 L -173.907,-215.396 L -175,-205 L -175,-183 L -169.5,-183
 L -169.5,-173 L -175,-173 L -175,-165 L -169.5,-165 L -169.5,-157 L -175,-157
 L -175,-149 L -169.5,-149 L -169.5,-141 L -175,-141 L -175,-133 L -169.5,-133
 L -169.5,-125 L -175,-125 L -175,-117 L -169.5,-117 L -169.5,-109 L -175,-109
 L -175,-101 L -169.5,-101 L -169.5,-93 L -175,-93 L -175,-85 L -169.5,-85
 L -169.5,-80.51 L -164,-80.51 L -164,-75 L -156,-75 z
M 135.955,-197.555 L 133.91,-197.989 L 132,-198.84 L 130.309,-200.069 L 128.91,-201.622 L 127.865,-203.433
 L 127.219,-205.421 L 127,-207.5 L 127,-235.5 L 147,-235.5 L 147,-207.5 L 146.781,-205.421
 L 146.135,-203.433 L 145.09,-201.622 L 143.691,-200.069 L 142,-198.84 L 140.09,-197.989 L 138.045,-197.555
 z
M -138.045,-197.555 L -140.09,-197.989 L -142,-198.84 L -143.691,-200.069 L -145.09,-201.622 L -146.135,-203.433
 L -146.781,-205.421 L -147,-207.5 L -147,-235.5 L -127,-235.5 L -127,-207.5 L -127.219,-205.421
 L -127.865,-203.433 L -128.91,-201.622 L -130.309,-200.069 L -132,-198.84 L -133.91,-197.989 L -135.955,-197.555
 z
M -20.882,-210.842 L -20.9556,-210.908 L -21.1667,-211.042 L -21.3978,-211.137 L -21.6419,-211.19 L -21.8914,-211.2
 L -22.1389,-211.166 L -22.3769,-211.09 L -22.598,-210.974 L -22.6458,-210.937 L -27.6175,-210.921 L -28.4465,-212.152
 L -24.9586,-218.881 L -24.8908,-218.913 L -24.646,-219.086 L -24.4349,-219.298 L -24.2638,-219.544 L -24.138,-219.816
 L -24.0614,-220.105 L -24.0361,-220.403 L -24.0547,-220.609 L -19.7319,-226.888 L -21.2077,-227.995 L -26.0241,-222.092
 L -26.057,-222.089 L -26.346,-222.011 L -26.617,-221.884 L -26.8618,-221.711 L -27.0729,-221.499 L -27.244,-221.253
 L -27.3698,-220.982 L -27.4465,-220.692 L -27.4718,-220.394 L -27.465,-220.319 L -30.6018,-215.353 L -37.1731,-225.114
 L -37.1671,-225.134 L -37.325,-225.698 L -38.2249,-235.158 L -38.1829,-235.226 L -11.7059,-235.226 L -11.2959,-224.969
 L -11.2879,-224.97 L -20.2095,-210.752 z
M 72.8624,-232.86 L 73.2822,-233.068 L 74.1884,-234.232 L 75.2715,-235.226 L 93.7232,-235.226 L 94.041,-234.192
 L 92.1365,-227.473 L 89.9943,-220.602 L 75.9956,-208.457 L 74.4389,-207.943 L 73.9751,-207.371 L 60.2661,-203.458
 z
M 54.4226,-215.178 L 54.1713,-215.708 L 59.2131,-235.226 L 65.7736,-235.226 L 54.6351,-213.29 z
M 32.3193,-235.226 L 50.8572,-235.226 L 46.6027,-222.295 z
M 16.4854,-235.226 L 20.2502,-235.226 L 18.7404,-232.365 z
M -5.85669,-235.226 L 1.60483,-235.226 L -5.37048,-230.599 z
M -54.7934,-235.015 L -54.8017,-235.022 L -55.0679,-235.194 L -55.1432,-235.226 L -49.9773,-235.226 L -51.1462,-233.383
 z
M 101.574,-232.124 L 102.052,-232.505 L 102.711,-233.774 L 103.839,-235.226 L 113,-235.226 L 113,-226.691
 L 106.366,-225.768 L 106.339,-225.789 L 106.059,-225.936 L 105.759,-226.032 L 105.446,-226.074 L 105.13,-226.062
 L 104.822,-225.994 L 104.53,-225.875 L 104.263,-225.706 L 104.029,-225.493 L 103.981,-225.431 L 99.6809,-224.291
 z
M -56.0976,-190.949 L -68.0865,-215.706 L -68.0452,-215.816 L -68.2172,-217.225 L -67.7354,-234.542 L -65.838,-234.836
 L -55.1048,-229.211 L -54.4791,-228.129 L -57.6295,-223.162 L -54.0193,-220.642 L -51.815,-223.52 L -49.4846,-219.489
 L -49.4851,-219.469 L -49.4619,-219.45 L -49.3539,-219.263 L -50.3164,-202.047 L -50.7015,-201.646 L -50.9133,-200.115
 L -55.9339,-190.757 z
M -113,-216.372 L -113,-233.913 L -108.88,-233.76 L -110.949,-214.996 z
M -46.0184,-231.089 L -44.1082,-233.584 L -44.0155,-230.507 L -44.1563,-230.256 z
M -99.2066,-194.286 L -99.3337,-194.605 L -95.7021,-199.099 L -97.2283,-200.438 L -100.353,-197.158 L -104.626,-207.858
 L -104.559,-208.001 L -104.676,-209.366 L -103.623,-233.565 L -103.096,-233.545 L -103.051,-233.492 L -101.303,-232.862
 L -101.149,-232.89 L -96.3044,-229.283 L -100.875,-224.912 L -98.6603,-222.381 L -93.0554,-226.864 L -74.4317,-213
 L -74.0127,-211.959 L -67.2624,-192.285 z
M -85.0379,-231.855 L -76.4209,-233.193 L -77.1284,-226.872 z
M -16.3299,-157.917 L -16.4269,-159.377 L -17.1336,-161.145 L -17.4465,-161.52 L -19.894,-196.082 L -19.5621,-196.575
 L -19.2348,-198.43 L -19.3378,-198.844 L -14.3375,-208.1 L -12.1889,-207.962 L -12.0217,-209.665 L -13.3933,-209.848
 L -6.6346,-222.358 L -6.6125,-222.363 L -5.71596,-223.21 L 7.05911,-232.964 L 13.6879,-223.257 L 13.8148,-222.106
 L 14.6217,-220.394 L 14.8978,-220.11 L 18.4511,-172.175 L 18.8876,-172.224 L 18.8879,-172.206 L -1.07269,-134.762
 z
M 24.4624,-221.19 L 24.9576,-222.408 L 25.0627,-224.298 L 24.9083,-224.845 L 26.779,-229.029 L 43.031,-212.161
 L 43.3582,-211.012 L 44.4737,-209.409 L 44.8034,-209.168 L 47.4171,-198.562 L 29.8943,-184.144 z
M -48.9356,-225.978 L -47.0966,-225.014 L -47.6306,-224.063 z
M 94.2648,-201.879 L 98.7188,-220.309 L 104.887,-222.522 L 104.962,-222.498 L 105.275,-222.456 L 105.59,-222.468
 L 105.899,-222.536 L 106.191,-222.655 L 106.458,-222.824 L 106.691,-223.037 L 106.824,-223.209 L 113,-224.588
 L 113,-212.741 L 108.96,-207.832 L 107.465,-207.041 L 107.092,-206.379 L 98.7175,-202.378 L 95.3613,-201.673
 L 95.2276,-201.713 L 95.0882,-201.616 L 95.0623,-201.611 z
M -45.8734,-219.555 L -45.5022,-220.284 L -45.5316,-220.348 L -44.1218,-223.455 L -42.9722,-222.853 L -42.8345,-222.633
 L -42.1224,-222.296 L -34.8545,-209.727 L -45.711,-204.128 z
M 81.0695,-206.313 L 87.5389,-212.725 L 85.116,-204.953 z
M -25.8039,-208.227 L -22.5315,-208.527 L -22.4804,-208.495 L -22.2493,-208.4 L -22.0052,-208.347 L -21.7556,-208.337
 L -21.7222,-208.342 L -23.7286,-205.144 z
M -113.853,-201.332 L -113.295,-203.957 L -113.077,-206.037 L -113,-207.5 L -113,-207.658 L -110.346,-205.617
 L -110.341,-205.624 L -108.051,-198.593 z
M -51.4642,-186.435 L -46.4491,-197.949 L -45.3773,-199.064 L -45.3418,-199.32 L -33.1307,-206.746 L -28.1976,-198.214
 L -28.1613,-197.176 L -27.4718,-195.762 L -27.4959,-168.79 z
M 59.4745,-196.082 L 75.4753,-202.099 L 75.4789,-202.097 L 77.317,-202.158 L 77.5576,-202.324 L 83.7918,-200.706
 L 81.6229,-193.748 L 81.7803,-193.705 L 81.7211,-192.995 L 66.2498,-175.163 z
M 67.2717,-158.113 L 68.3745,-159.274 L 69.2285,-161.064 L 69.2972,-161.585 L 88.3428,-187.726 L 89.069,-187.958
 L 90.5696,-189.228 L 91.3119,-190.669 L 98.3608,-194.773 L 102.362,-191.343 L 102.375,-191.277 L 102.478,-191.022
 L 102.623,-190.788 L 102.807,-190.582 L 103.024,-190.412 L 103.267,-190.282 L 103.46,-190.219 L 109.861,-182.721
 L 111.338,-183.897 L 105.461,-191.815 L 105.458,-191.925 L 105.401,-192.194 L 105.298,-192.45 L 105.153,-192.684
 L 104.969,-192.889 L 104.752,-193.059 L 104.509,-193.189 L 104.247,-193.275 L 104.181,-193.285 L 101.144,-196.394
 L 109.272,-201.127 L 109.426,-201.125 L 109.752,-201.178 L 110.064,-201.288 L 110.327,-201.436 L 111.389,-201.652
 L 111.605,-201.862 L 113.781,-201.674 L 113.904,-201.095 L 114.55,-199.106 L 115.74,-196.433 L 116.785,-194.622
 L 118.506,-192.254 L 119.905,-190.701 L 122.08,-188.742 L 123.771,-187.514 L 126.306,-186.05 L 128.216,-185.2
 L 130.999,-184.295 L 133.044,-183.861 L 135.955,-183.555 L 136.853,-183.555 L 117.774,-148.821 L 117.988,-148.713
 L 117.71,-148.251 L 117.634,-147.895 L 85.8937,-123.462 L 86.3189,-122.955 L 85.9468,-122.696 L 85.7219,-122.388
 L 56.1268,-115.228 z
M -114.38,-193.154 L -110.09,-190.793 L -112.379,-189.206 z
M -129.636,-182.888 L -129.827,-183.11 L -130.423,-183.347 L -131.615,-184.164 L -130.999,-184.295 L -128.216,-185.2
 L -126.306,-186.05 L -123.771,-187.514 L -122.08,-188.742 L -119.905,-190.701 L -118.506,-192.254 L -118.274,-192.574
 L -115.861,-186.791 L -122.546,-182.155 z
M -155.5,-182.897 L -155.5,-192.262 L -155.494,-192.254 L -154.095,-190.701 L -151.92,-188.742 L -150.229,-187.514
 L -147.694,-186.05 L -145.784,-185.2 L -144.338,-184.73 L -139.333,-180.802 z
M 148.462,-186.493 L 150.229,-187.514 L 151.92,-188.742 L 154.095,-190.701 L 155.494,-192.254 L 155.5,-192.262
 L 155.5,-161.576 L 151.634,-158.436 L 151.617,-158.439 L 149.852,-157.919 L 149.064,-157.155 L 146.354,-156.476
 L 145.57,-160.929 L 145.608,-161.004 L 145.696,-161.289 L 145.733,-161.585 L 145.718,-161.882 L 145.651,-162.173
 L 145.535,-162.448 L 145.373,-162.699 L 145.217,-162.867 L 143.973,-170.775 L 142.012,-170.551 L 142.583,-162.571
 L 142.573,-162.558 L 142.437,-162.293 L 142.35,-162.007 L 142.313,-161.711 L 142.327,-161.414 L 142.394,-161.123
 L 142.51,-160.848 L 142.672,-160.597 L 142.728,-160.536 L 143.217,-155.69 L 132.851,-153.092 z
M 6.53398,-94.5 L 5.5787,-117.385 L 5.69922,-117.535 L 6.45972,-119.317 L 6.48273,-119.492 L 28.1133,-167.683
 L 29.3551,-168.615 L 30.4606,-170.187 L 30.6106,-170.674 L 49.6969,-189.312 L 56.6697,-161.019 L 57.1054,-161.143
 L 57.1087,-161.126 L 40.5876,-111.623 L 40.4205,-111.486 L 39.2566,-109.924 L 38.5003,-108.129 L 38.396,-107.471
 L 25.0506,-94.5 z
M -91.1662,-176.729 L -91.4965,-177.618 L -92.7671,-179.051 L -93.2147,-179.282 L -96.2971,-187 L -64.0775,-183.002
 L -62.3612,-177.999 L -62.196,-178.062 L -62.1577,-177.857 L -61.9009,-177.508 L -63.5978,-156.844 z
M -108.352,-180.687 L -106.776,-183.231 L -103.638,-185.044 L -102.006,-180.031 z
M -30.6139,-94.5 L -35.525,-98.8839 L -36.1404,-100.529 L -36.2956,-100.731 L -54.0407,-145.359 L -53.8348,-146.496
 L -54.1619,-148.402 L -54.384,-148.791 L -54.4709,-177.215 L -54.1874,-177.543 L -54.1811,-177.566 L -27.6884,-155.176
 L -27.5841,-154.915 L -26.3659,-153.453 L -25.1272,-152.673 L -7.14964,-119.165 L -6.90666,-118.318 L -6.33014,-117.383
 L -6.99753,-94.5 z
M -155.5,-176.592 L -154.395,-176.368 L -154.187,-176.194 L -155.5,-175.458 z
M -125.328,-170.497 L -124.89,-172.095 L -124.42,-172.393 L -123.869,-173.349 L -121.338,-174.812 L -114.147,-173.568
 L -116.079,-163.233 z
M -155.5,-165.089 L -155.5,-166.289 L -139.35,-172.975 L -136.953,-172.667 L -150.552,-163.528 L -152.113,-163.142
 L -152.419,-162.779 L -154.647,-162.472 z
M -75.7791,-110.231 L -76.5682,-110.976 L -78.3264,-111.734 L -78.7584,-111.76 L -102.773,-131.977 L -102.807,-132.277
 L -103.906,-133.906 L -104.235,-134.083 L -111.548,-157.31 L -111.513,-158.155 L -109.77,-172.811 L -99.2339,-170.988
 L -98.3525,-170.303 L -96.5178,-169.754 L -96.42,-169.761 L -63.0369,-141.845 L -62.787,-142.167 L -51.0262,-105.526
 z
M -151.024,-153.747 L -147.948,-159.145 L -147.877,-159.229 L -131.596,-168.584 L -134.66,-153.262 L -135.37,-152.182
 L -135.323,-151.782 L -140.353,-145.195 z
M -126.433,-137.977 L -130.156,-151.768 L -130.13,-151.878 L -130.25,-152.119 L -130.308,-152.332 L -126.749,-165.313
 L -116.157,-155.825 L -116.153,-155.83 L -111.111,-135.222 z
M 147.212,-145.722 L 147.812,-146.203 L 147.812,-146.27 L 153.267,-151.066 L 155.5,-150.408 L 155.5,-134.101
 L 153.959,-133.083 L 141.382,-132.422 z
M -155.5,-145.895 L -153.279,-149.791 L -140.203,-137.843 L -155.5,-131.738 z
M 103.214,-121.605 L 123.879,-140.514 L 125.129,-140.77 L 126.76,-141.733 L 127.99,-143.173 L 128.002,-143.205
 L 143.931,-148.612 L 144.087,-147.062 L 144.079,-147.045 L 144.092,-147.02 L 144.112,-146.818 L 136.617,-132.403
 L 135.516,-131.484 L 135.438,-131.047 L 121.974,-120.711 L 120.83,-120.645 L 120.876,-120.177 L 120.586,-120.198
 L 119.523,-119.735 z
M -132.704,-139.105 L -132.883,-139.208 L -137.658,-143.035 L -133.911,-147.134 L -130.87,-138.775 z
M -120.495,-105.064 L -122.309,-105.204 L -150.101,-114.398 L -150.164,-114.534 L -150.664,-114.888 L -155.5,-120.041
 L -155.5,-127.071 L -134.436,-133.996 L -133.79,-134.063 L -109.363,-127.925 L -108.61,-127.243 L -107.455,-126.946
 L -89.8413,-109.821 L -119.971,-104.78 z
M 138.457,-127.495 L 139.709,-127.948 L 139.828,-128.152 L 154.603,-129.975 L 155.192,-129.701 L 155.393,-129.842
 L 155.5,-129.805 L 155.5,-124.765 L 152.42,-123.106 L 152.405,-123.112 L 150.526,-122.926 L 149.586,-122.307
 L 131.585,-121.267 z
M 150.735,-94.5 L 135.864,-98.5693 L 134.905,-99.3626 L 127.298,-112.508 L 150.14,-115.714 L 150.362,-115.553
 L 152.23,-115.284 L 152.577,-115.406 L 155.5,-113.906 L 155.5,-95.6084 L 151.402,-94.5 L 151.267,-94.5
 L 151.213,-94.5125 L 151.198,-94.5 z
M 45.0086,-94.5 L 48.2054,-98.1229 L 48.8579,-98.2588 L 50.6142,-99.1006 L 52.118,-100.338 L 52.5292,-100.89
 L 88.4983,-112.816 L 89.7896,-112.531 L 91.7302,-112.752 L 93.494,-113.591 L 93.6265,-113.72 L 94.0866,-113.706
 L 94.3015,-113.45 L 94.5648,-113.691 L 118.925,-112.928 L 119.122,-112.727 L 119.691,-112.541 L 130.432,-97.0704
 L 130.1,-94.5 z
M -155.5,-94.5 L -155.5,-108.423 L -153.215,-108.829 L -152.301,-108.745 L -152.165,-108.808 L -129.423,-99.5189
 L -134.944,-94.5 z
M -122.799,-94.5 L -120.267,-96.5346 L -120.261,-96.5354 L -118.924,-97.3569 L -81.0984,-101.102 L -80.8719,-101.004
 L -78.9601,-100.892 L -77.9207,-101.203 L -54.4341,-94.5 z
M 244.647,-118.23 L 244.984,-118.321 L 245.3,-118.468 L 245.586,-118.668 L 245.832,-118.914 L 246.032,-119.2
 L 246.179,-119.516 L 246.27,-119.853 L 246.3,-120.2 L 246.3,-152.2 L 246.27,-152.547 L 246.179,-152.884
 L 246.032,-153.2 L 245.832,-153.486 L 245.586,-153.732 L 245.3,-153.932 L 244.984,-154.079 L 244.647,-154.17
 L 244.3,-154.2 L 228.8,-154.2 L 228.453,-154.17 L 228.116,-154.079 L 227.8,-153.932 L 227.514,-153.732
 L 227.268,-153.486 L 227.068,-153.2 L 226.921,-152.884 L 226.83,-152.547 L 226.8,-152.2 L 226.8,-120.2
 L 226.83,-119.853 L 226.921,-119.516 L 227.068,-119.2 L 227.268,-118.914 L 227.514,-118.668 L 227.8,-118.468
 L 228.116,-118.321 L 228.453,-118.23 L 228.8,-118.2 L 244.3,-118.2 z
M 230.022,-120.171 L 229.646,-120.276 L 229.356,-120.45 L 229.149,-120.695 L 229.027,-121.009 L 229.478,-121.099
 L 229.516,-120.982 L 229.568,-120.877 L 229.635,-120.786 L 229.715,-120.709 L 229.809,-120.644 L 229.917,-120.592
 L 230.041,-120.551 L 230.178,-120.522 L 230.331,-120.505 L 230.498,-120.499 L 230.67,-120.505 L 230.826,-120.524
 L 230.965,-120.556 L 231.087,-120.6 L 231.193,-120.657 L 231.281,-120.726 L 231.35,-120.807 L 231.399,-120.9
 L 231.428,-121.005 L 231.438,-121.122 L 231.435,-121.188 L 231.426,-121.248 L 231.41,-121.304 L 231.389,-121.354
 L 231.361,-121.399 L 231.328,-121.44 L 231.29,-121.478 L 231.247,-121.513 L 231.199,-121.545 L 231.146,-121.574
 L 231.088,-121.601 L 231.026,-121.626 L 230.96,-121.65 L 230.889,-121.671 L 230.814,-121.691 L 230.233,-121.828
 L 230.094,-121.865 L 229.97,-121.901 L 229.862,-121.938 L 229.77,-121.974 L 229.689,-122.012 L 229.616,-122.051
 L 229.55,-122.092 L 229.49,-122.134 L 229.438,-122.178 L 229.391,-122.225 L 229.35,-122.274 L 229.312,-122.327
 L 229.279,-122.383 L 229.251,-122.442 L 229.228,-122.504 L 229.21,-122.57 L 229.197,-122.639 L 229.19,-122.712
 L 229.187,-122.788 L 229.2,-122.959 L 229.241,-123.113 L 229.308,-123.251 L 229.403,-123.373 L 229.524,-123.478
 L 229.671,-123.565 L 229.841,-123.633 L 230.034,-123.681 L 230.251,-123.71 L 230.491,-123.72 L 230.714,-123.713
 L 230.915,-123.691 L 231.094,-123.655 L 231.25,-123.605 L 231.385,-123.54 L 231.502,-123.458 L 231.603,-123.356
 L 231.69,-123.234 L 231.762,-123.092 L 231.819,-122.93 L 231.361,-122.849 L 231.325,-122.952 L 231.278,-123.043
 L 231.221,-123.123 L 231.152,-123.19 L 231.073,-123.245 L 230.982,-123.29 L 230.877,-123.324 L 230.76,-123.349
 L 230.629,-123.364 L 230.486,-123.369 L 230.329,-123.363 L 230.188,-123.347 L 230.062,-123.319 L 229.952,-123.279
 L 229.857,-123.229 L 229.779,-123.168 L 229.718,-123.096 L 229.675,-123.013 L 229.649,-122.918 L 229.64,-122.813
 L 229.643,-122.751 L 229.653,-122.693 L 229.67,-122.64 L 229.694,-122.591 L 229.724,-122.547 L 229.761,-122.506
 L 229.803,-122.468 L 229.851,-122.433 L 229.906,-122.399 L 229.966,-122.369 L 230.042,-122.338 L 230.143,-122.305
 L 230.27,-122.27 L 230.421,-122.231 L 230.598,-122.19 L 230.975,-122.098 L 231.097,-122.063 L 231.214,-122.023
 L 231.326,-121.978 L 231.38,-121.953 L 231.432,-121.926 L 231.483,-121.898 L 231.532,-121.868 L 231.578,-121.836
 L 231.622,-121.801 L 231.663,-121.763 L 231.701,-121.723 L 231.737,-121.68 L 231.769,-121.634 L 231.798,-121.585
 L 231.824,-121.533 L 231.846,-121.478 L 231.865,-121.42 L 231.88,-121.357 L 231.891,-121.291 L 231.897,-121.221
 L 231.899,-121.147 L 231.884,-120.963 L 231.839,-120.796 L 231.765,-120.647 L 231.661,-120.515 L 231.527,-120.4
 L 231.366,-120.305 L 231.182,-120.231 L 230.972,-120.178 L 230.739,-120.147 L 230.481,-120.136 z
M 221.247,-118.23 L 221.584,-118.321 L 221.9,-118.468 L 222.186,-118.668 L 222.432,-118.914 L 222.632,-119.2
 L 222.779,-119.516 L 222.87,-119.853 L 222.9,-120.2 L 222.9,-152.2 L 222.87,-152.547 L 222.779,-152.884
 L 222.632,-153.2 L 222.432,-153.486 L 222.186,-153.732 L 221.9,-153.932 L 221.584,-154.079 L 221.247,-154.17
 L 220.9,-154.2 L 205.4,-154.2 L 205.053,-154.17 L 204.716,-154.079 L 204.4,-153.932 L 204.114,-153.732
 L 203.868,-153.486 L 203.668,-153.2 L 203.521,-152.884 L 203.43,-152.547 L 203.4,-152.2 L 203.4,-120.2
 L 203.43,-119.853 L 203.521,-119.516 L 203.668,-119.2 L 203.868,-118.914 L 204.114,-118.668 L 204.4,-118.468
 L 204.716,-118.321 L 205.053,-118.23 L 205.4,-118.2 L 220.9,-118.2 z
M 206.622,-120.171 L 206.246,-120.276 L 205.956,-120.45 L 205.749,-120.695 L 205.627,-121.009 L 206.078,-121.099
 L 206.116,-120.982 L 206.168,-120.877 L 206.235,-120.786 L 206.315,-120.709 L 206.409,-120.644 L 206.518,-120.592
 L 206.641,-120.551 L 206.778,-120.522 L 206.931,-120.505 L 207.098,-120.499 L 207.27,-120.505 L 207.426,-120.524
 L 207.565,-120.556 L 207.687,-120.6 L 207.793,-120.657 L 207.881,-120.726 L 207.95,-120.807 L 207.999,-120.9
 L 208.028,-121.005 L 208.038,-121.122 L 208.035,-121.188 L 208.026,-121.248 L 208.01,-121.304 L 207.989,-121.354
 L 207.961,-121.399 L 207.928,-121.44 L 207.89,-121.478 L 207.847,-121.513 L 207.799,-121.545 L 207.746,-121.574
 L 207.688,-121.601 L 207.626,-121.626 L 207.56,-121.65 L 207.489,-121.671 L 207.414,-121.691 L 206.833,-121.828
 L 206.694,-121.865 L 206.57,-121.901 L 206.462,-121.938 L 206.37,-121.974 L 206.29,-122.012 L 206.216,-122.051
 L 206.15,-122.092 L 206.09,-122.134 L 206.038,-122.178 L 205.991,-122.225 L 205.95,-122.274 L 205.912,-122.327
 L 205.879,-122.383 L 205.851,-122.442 L 205.828,-122.504 L 205.81,-122.57 L 205.797,-122.639 L 205.79,-122.712
 L 205.787,-122.788 L 205.8,-122.959 L 205.841,-123.113 L 205.908,-123.251 L 206.003,-123.373 L 206.124,-123.478
 L 206.271,-123.565 L 206.441,-123.633 L 206.634,-123.681 L 206.851,-123.71 L 207.091,-123.72 L 207.314,-123.713
 L 207.515,-123.691 L 207.694,-123.655 L 207.85,-123.605 L 207.985,-123.54 L 208.102,-123.458 L 208.203,-123.356
 L 208.29,-123.234 L 208.362,-123.092 L 208.419,-122.93 L 207.961,-122.849 L 207.925,-122.952 L 207.878,-123.043
 L 207.821,-123.123 L 207.752,-123.19 L 207.673,-123.245 L 207.582,-123.29 L 207.477,-123.324 L 207.36,-123.349
 L 207.229,-123.364 L 207.086,-123.369 L 206.929,-123.363 L 206.788,-123.347 L 206.662,-123.319 L 206.552,-123.279
 L 206.457,-123.229 L 206.379,-123.168 L 206.318,-123.096 L 206.275,-123.013 L 206.249,-122.918 L 206.24,-122.813
 L 206.243,-122.751 L 206.253,-122.693 L 206.27,-122.64 L 206.294,-122.591 L 206.324,-122.547 L 206.361,-122.506
 L 206.403,-122.468 L 206.451,-122.433 L 206.506,-122.399 L 206.566,-122.369 L 206.642,-122.338 L 206.743,-122.305
 L 206.87,-122.27 L 207.021,-122.231 L 207.198,-122.19 L 207.575,-122.098 L 207.697,-122.063 L 207.814,-122.023
 L 207.926,-121.978 L 207.98,-121.953 L 208.032,-121.926 L 208.083,-121.898 L 208.132,-121.868 L 208.178,-121.836
 L 208.222,-121.801 L 208.263,-121.763 L 208.301,-121.723 L 208.337,-121.68 L 208.369,-121.634 L 208.398,-121.585
 L 208.424,-121.533 L 208.446,-121.478 L 208.465,-121.42 L 208.48,-121.357 L 208.491,-121.291 L 208.497,-121.221
 L 208.499,-121.147 L 208.484,-120.963 L 208.439,-120.796 L 208.365,-120.647 L 208.261,-120.515 L 208.127,-120.4
 L 207.966,-120.305 L 207.782,-120.231 L 207.572,-120.178 L 207.339,-120.147 L 207.081,-120.136 z
M 197.847,-118.23 L 198.184,-118.321 L 198.5,-118.468 L 198.786,-118.668 L 199.032,-118.914 L 199.232,-119.2
 L 199.379,-119.516 L 199.47,-119.853 L 199.5,-120.2 L 199.5,-152.2 L 199.47,-152.547 L 199.379,-152.884
 L 199.232,-153.2 L 199.032,-153.486 L 198.786,-153.732 L 198.5,-153.932 L 198.184,-154.079 L 197.847,-154.17
 L 197.5,-154.2 L 182,-154.2 L 181.653,-154.17 L 181.316,-154.079 L 181,-153.932 L 180.714,-153.732
 L 180.468,-153.486 L 180.268,-153.2 L 180.121,-152.884 L 180.03,-152.547 L 180,-152.2 L 180,-120.2
 L 180.03,-119.853 L 180.121,-119.516 L 180.268,-119.2 L 180.468,-118.914 L 180.714,-118.668 L 181,-118.468
 L 181.316,-118.321 L 181.653,-118.23 L 182,-118.2 L 197.5,-118.2 z
M 183.222,-120.171 L 182.846,-120.276 L 182.556,-120.45 L 182.349,-120.695 L 182.227,-121.009 L 182.678,-121.099
 L 182.716,-120.982 L 182.768,-120.877 L 182.835,-120.786 L 182.915,-120.709 L 183.009,-120.644 L 183.118,-120.592
 L 183.241,-120.551 L 183.378,-120.522 L 183.531,-120.505 L 183.698,-120.499 L 183.87,-120.505 L 184.026,-120.524
 L 184.165,-120.556 L 184.287,-120.6 L 184.393,-120.657 L 184.481,-120.726 L 184.55,-120.807 L 184.599,-120.9
 L 184.628,-121.005 L 184.638,-121.122 L 184.635,-121.188 L 184.626,-121.248 L 184.61,-121.304 L 184.589,-121.354
 L 184.561,-121.399 L 184.528,-121.44 L 184.49,-121.478 L 184.447,-121.513 L 184.399,-121.545 L 184.346,-121.574
 L 184.288,-121.601 L 184.226,-121.626 L 184.16,-121.65 L 184.089,-121.671 L 184.014,-121.691 L 183.433,-121.828
 L 183.294,-121.865 L 183.17,-121.901 L 183.062,-121.938 L 182.97,-121.974 L 182.89,-122.012 L 182.816,-122.051
 L 182.75,-122.092 L 182.69,-122.134 L 182.638,-122.178 L 182.591,-122.225 L 182.55,-122.274 L 182.512,-122.327
 L 182.479,-122.383 L 182.451,-122.442 L 182.428,-122.504 L 182.41,-122.57 L 182.397,-122.639 L 182.39,-122.712
 L 182.387,-122.788 L 182.4,-122.959 L 182.441,-123.113 L 182.508,-123.251 L 182.603,-123.373 L 182.724,-123.478
 L 182.871,-123.565 L 183.041,-123.633 L 183.234,-123.681 L 183.451,-123.71 L 183.691,-123.72 L 183.914,-123.713
 L 184.115,-123.691 L 184.294,-123.655 L 184.45,-123.605 L 184.585,-123.54 L 184.702,-123.458 L 184.803,-123.356
 L 184.89,-123.234 L 184.962,-123.092 L 185.019,-122.93 L 184.561,-122.849 L 184.525,-122.952 L 184.478,-123.043
 L 184.421,-123.123 L 184.352,-123.19 L 184.273,-123.245 L 184.182,-123.29 L 184.077,-123.324 L 183.96,-123.349
 L 183.829,-123.364 L 183.686,-123.369 L 183.529,-123.363 L 183.388,-123.347 L 183.262,-123.319 L 183.152,-123.279
 L 183.057,-123.229 L 182.979,-123.168 L 182.918,-123.096 L 182.875,-123.013 L 182.849,-122.918 L 182.84,-122.813
 L 182.843,-122.751 L 182.853,-122.693 L 182.87,-122.64 L 182.894,-122.591 L 182.924,-122.547 L 182.961,-122.506
 L 183.003,-122.468 L 183.051,-122.433 L 183.106,-122.399 L 183.166,-122.369 L 183.242,-122.338 L 183.343,-122.305
 L 183.47,-122.27 L 183.621,-122.231 L 183.798,-122.19 L 184.175,-122.098 L 184.297,-122.063 L 184.414,-122.023
 L 184.526,-121.978 L 184.58,-121.953 L 184.632,-121.926 L 184.683,-121.898 L 184.732,-121.868 L 184.778,-121.836
 L 184.822,-121.801 L 184.863,-121.763 L 184.901,-121.723 L 184.937,-121.68 L 184.969,-121.634 L 184.998,-121.585
 L 185.024,-121.533 L 185.046,-121.478 L 185.065,-121.42 L 185.08,-121.357 L 185.091,-121.291 L 185.097,-121.221
 L 185.099,-121.147 L 185.084,-120.963 L 185.039,-120.796 L 184.965,-120.647 L 184.861,-120.515 L 184.727,-120.4
 L 184.566,-120.305 L 184.382,-120.231 L 184.172,-120.178 L 183.939,-120.147 L 183.681,-120.136 z
M 244.647,-75.0304 L 244.984,-75.1206 L 245.3,-75.268 L 245.586,-75.4679 L 245.832,-75.7144 L 246.032,-76
 L 246.179,-76.316 L 246.27,-76.6527 L 246.3,-77 L 246.3,-109 L 246.27,-109.347 L 246.179,-109.684
 L 246.032,-110 L 245.832,-110.286 L 245.586,-110.532 L 245.3,-110.732 L 244.984,-110.879 L 244.647,-110.97
 L 244.3,-111 L 228.8,-111 L 228.453,-110.97 L 228.116,-110.879 L 227.8,-110.732 L 227.514,-110.532
 L 227.268,-110.286 L 227.068,-110 L 226.921,-109.684 L 226.83,-109.347 L 226.8,-109 L 226.8,-77
 L 226.83,-76.6527 L 226.921,-76.316 L 227.068,-76 L 227.268,-75.7144 L 227.514,-75.4679 L 227.8,-75.268
 L 228.116,-75.1206 L 228.453,-75.0304 L 228.8,-75 L 244.3,-75 z
M 230.022,-76.9709 L 229.646,-77.0757 L 229.356,-77.2503 L 229.149,-77.4947 L 229.027,-77.809 L 229.478,-77.899
 L 229.516,-77.7816 L 229.568,-77.6774 L 229.635,-77.5864 L 229.715,-77.5086 L 229.809,-77.444 L 229.917,-77.3918
 L 230.041,-77.3512 L 230.178,-77.3222 L 230.331,-77.3048 L 230.498,-77.299 L 230.67,-77.3053 L 230.826,-77.3243
 L 230.965,-77.3559 L 231.087,-77.4001 L 231.193,-77.457 L 231.281,-77.5262 L 231.35,-77.6072 L 231.399,-77.7002
 L 231.428,-77.8051 L 231.438,-77.922 L 231.435,-77.9878 L 231.426,-78.0484 L 231.41,-78.1038 L 231.389,-78.154
 L 231.361,-78.199 L 231.328,-78.2399 L 231.29,-78.2779 L 231.247,-78.3129 L 231.199,-78.3449 L 231.146,-78.374
 L 231.088,-78.4011 L 231.026,-78.4263 L 230.96,-78.4497 L 230.889,-78.4713 L 230.814,-78.491 L 230.233,-78.6284
 L 230.094,-78.6648 L 229.97,-78.7012 L 229.862,-78.7376 L 229.77,-78.774 L 229.689,-78.8116 L 229.616,-78.8508
 L 229.55,-78.8916 L 229.49,-78.934 L 229.438,-78.978 L 229.391,-79.0247 L 229.35,-79.0745 L 229.312,-79.1273
 L 229.279,-79.1831 L 229.251,-79.242 L 229.228,-79.3042 L 229.21,-79.3698 L 229.197,-79.439 L 229.19,-79.5117
 L 229.187,-79.588 L 229.2,-79.759 L 229.241,-79.9134 L 229.308,-80.0514 L 229.403,-80.173 L 229.524,-80.278
 L 229.671,-80.3651 L 229.841,-80.4329 L 230.034,-80.4813 L 230.251,-80.5103 L 230.491,-80.52 L 230.714,-80.5128
 L 230.915,-80.4912 L 231.094,-80.4552 L 231.25,-80.4048 L 231.385,-80.34 L 231.502,-80.2583 L 231.603,-80.1565
 L 231.69,-80.0345 L 231.762,-79.8923 L 231.819,-79.73 L 231.361,-79.649 L 231.325,-79.7522 L 231.278,-79.8434
 L 231.221,-79.9226 L 231.152,-79.9898 L 231.073,-80.045 L 230.982,-80.0896 L 230.877,-80.1244 L 230.76,-80.1492
 L 230.629,-80.164 L 230.486,-80.169 L 230.329,-80.1634 L 230.188,-80.1466 L 230.062,-80.1186 L 229.952,-80.0794
 L 229.857,-80.029 L 229.779,-79.9679 L 229.718,-79.8957 L 229.675,-79.8125 L 229.649,-79.7183 L 229.64,-79.613
 L 229.643,-79.5508 L 229.653,-79.4931 L 229.67,-79.44 L 229.694,-79.3912 L 229.724,-79.347 L 229.761,-79.3063
 L 229.803,-79.2681 L 229.851,-79.2325 L 229.906,-79.1995 L 229.966,-79.169 L 230.042,-79.1385 L 230.143,-79.1053
 L 230.27,-79.0695 L 230.421,-79.0311 L 230.598,-78.99 L 230.975,-78.8982 L 231.097,-78.863 L 231.214,-78.823
 L 231.326,-78.7776 L 231.38,-78.7525 L 231.432,-78.726 L 231.483,-78.698 L 231.532,-78.6683 L 231.578,-78.6359
 L 231.622,-78.6009 L 231.663,-78.5633 L 231.701,-78.523 L 231.737,-78.4799 L 231.769,-78.4339 L 231.798,-78.3849
 L 231.824,-78.3329 L 231.846,-78.278 L 231.865,-78.2196 L 231.88,-78.1573 L 231.891,-78.0912 L 231.897,-78.021
 L 231.899,-77.947 L 231.884,-77.7629 L 231.839,-77.5961 L 231.765,-77.4467 L 231.661,-77.3147 L 231.527,-77.2
 L 231.366,-77.1049 L 231.182,-77.031 L 230.972,-76.9782 L 230.739,-76.9466 L 230.481,-76.936 z
M 221.247,-75.0304 L 221.584,-75.1206 L 221.9,-75.268 L 222.186,-75.4679 L 222.432,-75.7144 L 222.632,-76
 L 222.779,-76.316 L 222.87,-76.6527 L 222.9,-77 L 222.9,-109 L 222.87,-109.347 L 222.779,-109.684
 L 222.632,-110 L 222.432,-110.286 L 222.186,-110.532 L 221.9,-110.732 L 221.584,-110.879 L 221.247,-110.97
 L 220.9,-111 L 205.4,-111 L 205.053,-110.97 L 204.716,-110.879 L 204.4,-110.732 L 204.114,-110.532
 L 203.868,-110.286 L 203.668,-110 L 203.521,-109.684 L 203.43,-109.347 L 203.4,-109 L 203.4,-77
 L 203.43,-76.6527 L 203.521,-76.316 L 203.668,-76 L 203.868,-75.7144 L 204.114,-75.4679 L 204.4,-75.268
 L 204.716,-75.1206 L 205.053,-75.0304 L 205.4,-75 L 220.9,-75 z
M 206.622,-76.9709 L 206.246,-77.0757 L 205.956,-77.2503 L 205.749,-77.4947 L 205.627,-77.809 L 206.078,-77.899
 L 206.116,-77.7816 L 206.168,-77.6774 L 206.235,-77.5864 L 206.315,-77.5086 L 206.409,-77.444 L 206.518,-77.3918
 L 206.641,-77.3512 L 206.778,-77.3222 L 206.931,-77.3048 L 207.098,-77.299 L 207.27,-77.3053 L 207.426,-77.3243
 L 207.565,-77.3559 L 207.687,-77.4001 L 207.793,-77.457 L 207.881,-77.5262 L 207.95,-77.6072 L 207.999,-77.7002
 L 208.028,-77.8051 L 208.038,-77.922 L 208.035,-77.9878 L 208.026,-78.0484 L 208.01,-78.1038 L 207.989,-78.154
 L 207.961,-78.199 L 207.928,-78.2399 L 207.89,-78.2779 L 207.847,-78.3129 L 207.799,-78.3449 L 207.746,-78.374
 L 207.688,-78.4011 L 207.626,-78.4263 L 207.56,-78.4497 L 207.489,-78.4713 L 207.414,-78.491 L 206.833,-78.6284
 L 206.694,-78.6648 L 206.57,-78.7012 L 206.462,-78.7376 L 206.37,-78.774 L 206.29,-78.8116 L 206.216,-78.8508
 L 206.15,-78.8916 L 206.09,-78.934 L 206.038,-78.978 L 205.991,-79.0247 L 205.95,-79.0745 L 205.912,-79.1273
 L 205.879,-79.1831 L 205.851,-79.242 L 205.828,-79.3042 L 205.81,-79.3698 L 205.797,-79.439 L 205.79,-79.5117
 L 205.787,-79.588 L 205.8,-79.759 L 205.841,-79.9134 L 205.908,-80.0514 L 206.003,-80.173 L 206.124,-80.278
 L 206.271,-80.3651 L 206.441,-80.4329 L 206.634,-80.4813 L 206.851,-80.5103 L 207.091,-80.52 L 207.314,-80.5128
 L 207.515,-80.4912 L 207.694,-80.4552 L 207.85,-80.4048 L 207.985,-80.34 L 208.102,-80.2583 L 208.203,-80.1565
 L 208.29,-80.0345 L 208.362,-79.8923 L 208.419,-79.73 L 207.961,-79.649 L 207.925,-79.7522 L 207.878,-79.8434
 L 207.821,-79.9226 L 207.752,-79.9898 L 207.673,-80.045 L 207.582,-80.0896 L 207.477,-80.1244 L 207.36,-80.1492
 L 207.229,-80.164 L 207.086,-80.169 L 206.929,-80.1634 L 206.788,-80.1466 L 206.662,-80.1186 L 206.552,-80.0794
 L 206.457,-80.029 L 206.379,-79.9679 L 206.318,-79.8957 L 206.275,-79.8125 L 206.249,-79.7183 L 206.24,-79.613
 L 206.243,-79.5508 L 206.253,-79.4931 L 206.27,-79.44 L 206.294,-79.3912 L 206.324,-79.347 L 206.361,-79.3063
 L 206.403,-79.2681 L 206.451,-79.2325 L 206.506,-79.1995 L 206.566,-79.169 L 206.642,-79.1385 L 206.743,-79.1053
 L 206.87,-79.0695 L 207.021,-79.0311 L 207.198,-78.99 L 207.575,-78.8982 L 207.697,-78.863 L 207.814,-78.823
 L 207.926,-78.7776 L 207.98,-78.7525 L 208.032,-78.726 L 208.083,-78.698 L 208.132,-78.6683 L 208.178,-78.6359
 L 208.222,-78.6009 L 208.263,-78.5633 L 208.301,-78.523 L 208.337,-78.4799 L 208.369,-78.4339 L 208.398,-78.3849
 L 208.424,-78.3329 L 208.446,-78.278 L 208.465,-78.2196 L 208.48,-78.1573 L 208.491,-78.0912 L 208.497,-78.021
 L 208.499,-77.947 L 208.484,-77.7629 L 208.439,-77.5961 L 208.365,-77.4467 L 208.261,-77.3147 L 208.127,-77.2
 L 207.966,-77.1049 L 207.782,-77.031 L 207.572,-76.9782 L 207.339,-76.9466 L 207.081,-76.936 z
M 197.847,-75.0304 L 198.184,-75.1206 L 198.5,-75.268 L 198.786,-75.4679 L 199.032,-75.7144 L 199.232,-76
 L 199.379,-76.316 L 199.47,-76.6527 L 199.5,-77 L 199.5,-109 L 199.47,-109.347 L 199.379,-109.684
 L 199.232,-110 L 199.032,-110.286 L 198.786,-110.532 L 198.5,-110.732 L 198.184,-110.879 L 197.847,-110.97
 L 197.5,-111 L 182,-111 L 181.653,-110.97 L 181.316,-110.879 L 181,-110.732 L 180.714,-110.532
 L 180.468,-110.286 L 180.268,-110 L 180.121,-109.684 L 180.03,-109.347 L 180,-109 L 180,-77
 L 180.03,-76.6527 L 180.121,-76.316 L 180.268,-76 L 180.468,-75.7144 L 180.714,-75.4679 L 181,-75.268
 L 181.316,-75.1206 L 181.653,-75.0304 L 182,-75 L 197.5,-75 z
M 183.222,-76.9709 L 182.846,-77.0757 L 182.556,-77.2503 L 182.349,-77.4947 L 182.227,-77.809 L 182.678,-77.899
 L 182.716,-77.7816 L 182.768,-77.6774 L 182.835,-77.5864 L 182.915,-77.5086 L 183.009,-77.444 L 183.118,-77.3918
 L 183.241,-77.3512 L 183.378,-77.3222 L 183.531,-77.3048 L 183.698,-77.299 L 183.87,-77.3053 L 184.026,-77.3243
 L 184.165,-77.3559 L 184.287,-77.4001 L 184.393,-77.457 L 184.481,-77.5262 L 184.55,-77.6072 L 184.599,-77.7002
 L 184.628,-77.8051 L 184.638,-77.922 L 184.635,-77.9878 L 184.626,-78.0484 L 184.61,-78.1038 L 184.589,-78.154
 L 184.561,-78.199 L 184.528,-78.2399 L 184.49,-78.2779 L 184.447,-78.3129 L 184.399,-78.3449 L 184.346,-78.374
 L 184.288,-78.4011 L 184.226,-78.4263 L 184.16,-78.4497 L 184.089,-78.4713 L 184.014,-78.491 L 183.433,-78.6284
 L 183.294,-78.6648 L 183.17,-78.7012 L 183.062,-78.7376 L 182.97,-78.774 L 182.89,-78.8116 L 182.816,-78.8508
 L 182.75,-78.8916 L 182.69,-78.934 L 182.638,-78.978 L 182.591,-79.0247 L 182.55,-79.0745 L 182.512,-79.1273
 L 182.479,-79.1831 L 182.451,-79.242 L 182.428,-79.3042 L 182.41,-79.3698 L 182.397,-79.439 L 182.39,-79.5117
 L 182.387,-79.588 L 182.4,-79.759 L 182.441,-79.9134 L 182.508,-80.0514 L 182.603,-80.173 L 182.724,-80.278
 L 182.871,-80.3651 L 183.041,-80.4329 L 183.234,-80.4813 L 183.451,-80.5103 L 183.691,-80.52 L 183.914,-80.5128
 L 184.115,-80.4912 L 184.294,-80.4552 L 184.45,-80.4048 L 184.585,-80.34 L 184.702,-80.2583 L 184.803,-80.1565
 L 184.89,-80.0345 L 184.962,-79.8923 L 185.019,-79.73 L 184.561,-79.649 L 184.525,-79.7522 L 184.478,-79.8434
 L 184.421,-79.9226 L 184.352,-79.9898 L 184.273,-80.045 L 184.182,-80.0896 L 184.077,-80.1244 L 183.96,-80.1492
 L 183.829,-80.164 L 183.686,-80.169 L 183.529,-80.1634 L 183.388,-80.1466 L 183.262,-80.1186 L 183.152,-80.0794
 L 183.057,-80.029 L 182.979,-79.9679 L 182.918,-79.8957 L 182.875,-79.8125 L 182.849,-79.7183 L 182.84,-79.613
 L 182.843,-79.5508 L 182.853,-79.4931 L 182.87,-79.44 L 182.894,-79.3912 L 182.924,-79.347 L 182.961,-79.3063
 L 183.003,-79.2681 L 183.051,-79.2325 L 183.106,-79.1995 L 183.166,-79.169 L 183.242,-79.1385 L 183.343,-79.1053
 L 183.47,-79.0695 L 183.621,-79.0311 L 183.798,-78.99 L 184.175,-78.8982 L 184.297,-78.863 L 184.414,-78.823
 L 184.526,-78.7776 L 184.58,-78.7525 L 184.632,-78.726 L 184.683,-78.698 L 184.732,-78.6683 L 184.778,-78.6359
 L 184.822,-78.6009 L 184.863,-78.5633 L 184.901,-78.523 L 184.937,-78.4799 L 184.969,-78.4339 L 184.998,-78.3849
 L 185.024,-78.3329 L 185.046,-78.278 L 185.065,-78.2196 L 185.08,-78.1573 L 185.091,-78.0912 L 185.097,-78.021
 L 185.099,-77.947 L 185.084,-77.7629 L 185.039,-77.5961 L 184.965,-77.4467 L 184.861,-77.3147 L 184.727,-77.2
 L 184.566,-77.1049 L 184.382,-77.031 L 184.172,-76.9782 L 183.939,-76.9466 L 183.681,-76.936 z
M -164,64.5 L -155.99,64.5 L -155.99,70 L -147.98,70 L -147.98,64.5 L -139.97,64.5
 L -139.97,70 L -131.96,70 L -131.96,64.5 L -123.95,64.5 L -123.95,70 L -115.94,70
 L -115.94,64.5 L -107.93,64.5 L -107.93,70 L -99.92,70 L -99.92,64.5 L -91.91,64.5
 L -91.91,70 L -83.9,70 L -83.9,64.5 L -75.89,64.5 L -75.89,70 L -67.88,70
 L -67.88,64.5 L -59.87,64.5 L -59.87,70 L -51.86,70 L -51.86,64.5 L -43.85,64.5
 L -43.85,70 L -35.84,70 L -35.84,64.5 L -27.83,64.5 L -27.83,70 L -19.82,70
 L -19.82,64.5 L -11.81,64.5 L -11.81,70 L -3.8,70 L -3.8,64.5 L 4.20999,64.5
 L 4.20999,70 L 12.22,70 L 12.22,64.5 L 20.23,64.5 L 20.23,70 L 28.24,70
 L 28.24,64.5 L 36.25,64.5 L 36.25,70 L 44.26,70 L 44.26,64.5 L 52.27,64.5
 L 52.27,70 L 60.28,70 L 60.28,64.5 L 68.29,64.5 L 68.29,70 L 76.3,70
 L 76.3,64.5 L 84.31,64.5 L 84.31,70 L 92.32,70 L 92.32,64.5 L 100.33,64.5
 L 100.33,70 L 108.34,70 L 108.34,64.5 L 116.35,64.5 L 116.35,70 L 124.36,70
 L 124.36,64.5 L 132.37,64.5 L 132.37,70 L 140.38,70 L 140.38,64.5 L 148.39,64.5
 L 148.39,70 L 156.4,70 L 156.4,64.5 L 164.41,64.5 L 164.41,70 L 169.49,70
 L 169.49,60 L 175,60 L 175,52 L 169.49,52 L 169.49,44 L 175,44
 L 175,36 L 169.49,36 L 169.49,28 L 175,28 L 175,20 L 169.49,20
 L 169.49,12 L 175,12 L 175,4 L 169.49,4 L 169.49,-4 L 175,-4
 L 175,-12 L 169.49,-12 L 169.49,-20 L 175,-20 L 175,-28 L 169.49,-28
 L 169.49,-36 L 175,-36 L 175,-44 L 169.49,-44 L 169.49,-52 L 175,-52
 L 175,-60 L 169.49,-60 L 169.49,-70 L 164.41,-70 L 164.41,-64.51 L 156.4,-64.51
 L 156.4,-70 L 148.39,-70 L 148.39,-64.51 L 140.38,-64.51 L 140.38,-70 L 132.37,-70
 L 132.37,-64.51 L 124.36,-64.51 L 124.36,-70 L 116.35,-70 L 116.35,-64.51 L 108.34,-64.51
 L 108.34,-70 L 100.33,-70 L 100.33,-64.51 L 92.32,-64.51 L 92.32,-70 L 84.31,-70
 L 84.31,-64.51 L 76.3,-64.51 L 76.3,-70 L 68.29,-70 L 68.29,-64.51 L 60.28,-64.51
 L 60.28,-70 L 52.27,-70 L 52.27,-64.51 L 44.26,-64.51 L 44.26,-70 L 36.25,-70
 L 36.25,-64.51 L 28.24,-64.51 L 28.24,-70 L 20.23,-70 L 20.23,-64.51 L 12.22,-64.51
 L 12.22,-70 L 4.20999,-70 L 4.20999,-64.51 L -3.8,-64.51 L -3.8,-70 L -11.81,-70
 L -11.81,-64.51 L -19.82,-64.51 L -19.82,-70 L -27.83,-70 L -27.83,-64.51 L -35.84,-64.51
 L -35.84,-70 L -43.85,-70 L -43.85,-64.51 L -51.86,-64.51 L -51.86,-70 L -59.87,-70
 L -59.87,-64.51 L -67.88,-64.51 L -67.88,-70 L -75.89,-70 L -75.89,-64.51 L -83.9,-64.51
 L -83.9,-70 L -91.91,-70 L -91.91,-64.51 L -99.92,-64.51 L -99.92,-70 L -107.93,-70
 L -107.93,-64.51 L -115.94,-64.51 L -115.94,-70 L -123.95,-70 L -123.95,-64.51 L -131.96,-64.51
 L -131.96,-70 L -139.97,-70 L -139.97,-64.51 L -147.98,-64.51 L -147.98,-70 L -155.99,-70
 L -155.99,-64.51 L -164,-64.51 L -164,-70 L -169.5,-70 L -169.5,-60 L -175,-60
 L -175,-52 L -169.5,-52 L -169.5,-44 L -175,-44 L -175,-36 L -169.5,-36
 L -169.5,-28 L -175,-28 L -175,-20 L -169.5,-20 L -169.5,-12 L -175,-12
 L -175,-4 L -169.5,-4 L -169.5,4 L -175,4 L -175,12 L -169.5,12
 L -169.5,20 L -175,20 L -175,28 L -169.5,28 L -169.5,36 L -175,36
 L -175,44 L -169.5,44 L -169.5,52 L -175,52 L -175,60 L -169.5,60
 L -169.5,70 L -164,70 z
M 190.5,64.49 L 198.5,64.49 L 198.5,70 L 206.5,70 L 206.5,64.49 L 214.5,64.49
 L 214.5,70 L 225,70 L 288,-70 L 278,-70 L 278,-64.5 L 270,-64.5
 L 270,-70 L 262,-70 L 262,-64.5 L 254,-64.5 L 254,-70 L 246,-70
 L 246,-64.5 L 238,-64.5 L 238,-70 L 230,-70 L 230,-64.5 L 222,-64.5
 L 222,-70 L 214,-70 L 214,-64.5 L 206,-64.5 L 206,-70 L 198,-70
 L 198,-64.5 L 190,-64.5 L 190,-70 L 180,-70 L 180,-60 L 185.51,-60
 L 185.51,-52 L 180,-52 L 180,-44 L 185.51,-44 L 185.51,-36 L 180,-36
 L 180,-28 L 185.51,-28 L 185.51,-20 L 180,-20 L 180,-12 L 185.51,-12
 L 185.51,-3.99998 L 180,-3.99998 L 180,4 L 185.51,4 L 185.51,12 L 180,12
 L 180,20 L 185.51,20 L 185.51,28 L 180,28 L 180,36 L 185.51,36
 L 185.51,44 L 180,44 L 180,52 L 185.51,52 L 185.51,60 L 180,60
 L 180,70 L 190.5,70 z
M 258.28,-56 L 266.348,-56 L 265.481,-54.0734 L 256.657,-51.7194 z
M 224.618,-41.3763 L 224.674,-42.609 L 230.341,-46.0477 L 230.627,-46.012 L 230.742,-46.2578 L 230.939,-46.2855
 L 230.98,-46.2552 L 231.007,-46.295 L 236.628,-47.0837 L 236.519,-48.0739 L 231.98,-47.7125 L 235.115,-52.2783
 L 233.923,-53.1683 L 229.324,-47.4912 L 229.431,-47.4118 L 225.607,-45.5033 L 230.352,-55.5408 L 230.824,-56
 L 254.649,-56 L 251.723,-49.9098 L 251.348,-49.5201 L 251.37,-49.3518 L 242.123,-40.5817 L 241.452,-40.379
 z
M 194.726,-56 L 198.218,-56 L 194.646,-55.0407 z
M 210.208,-56 L 215.175,-56 L 215.189,-55.9443 L 212.349,-55.5432 L 212.355,-55.5119 z
M 219.689,-49.6652 L 219.685,-49.6382 L 218.462,-50.7152 L 217.241,-54.285 L 219.964,-54.91 L 220.233,-54.7814
 L 220.299,-54.8502 L 221.875,-54.1745 L 222.236,-53.4306 L 222.314,-53.4724 L 222.277,-52.0832 L 220.741,-49.4638
 z
M 194,-50.7526 L 203.818,-54.347 L 204.423,-54.2135 L 204.605,-54.4122 L 211.96,-53.4342 L 213.256,-52.4457
 L 211.22,-53.1445 L 210.669,-51.7294 L 217.377,-48.8038 L 217.403,-48.8702 L 219.137,-46.7272 L 215.575,-40.6509
 L 215.353,-40.4632 L 215.299,-40.3113 L 194,-31.0707 z
M 214.993,-53.7689 L 215.704,-53.9321 L 215.964,-52.9142 z
M 254.217,-47.03 L 254.796,-47.2455 L 263.8,-50.3393 L 259.951,-41.7847 L 249.14,-41.2463 z
M 250.148,-32.2267 L 250.258,-33.1712 L 250.267,-33.1656 L 252.034,-36.092 L 257.002,-36.7982 L 255.13,-32.6104
 L 255.212,-32.5776 L 251.833,-29.8925 z
M 247.793,-35.4894 L 247.831,-35.4948 L 247.86,-35.3969 z
M 224.038,-29.8628 L 224.134,-29.9444 L 224.385,-30.2491 L 224.58,-30.5927 L 224.712,-30.9649 L 224.777,-31.3544
 L 224.774,-31.7493 L 224.702,-32.1377 L 224.564,-32.5078 L 224.364,-32.8482 L 224.239,-32.9945 L 224.336,-35.1399
 L 241.348,-35.435 L 241.623,-35.3395 L 247.532,-28.2552 L 247.052,-25.7906 L 238.931,-20.5388 L 238.716,-20.5748
 L 238.321,-20.5716 L 237.933,-20.4998 L 237.563,-20.3617 L 237.222,-20.1614 L 236.922,-19.905 L 236.67,-19.6004
 L 236.608,-19.4909 L 220,-12.17 z
M 194,-22.6505 L 217.886,-34.8203 L 218.038,-34.7657 L 219.662,-35.0588 L 221.297,-35.0871 L 221.069,-33.2638
 L 220.904,-33.1228 L 220.652,-32.8182 L 220.457,-32.4746 L 220.325,-32.1024 L 220.26,-31.7129 L 220.263,-31.3179
 L 220.335,-30.9295 L 220.379,-30.8117 L 214.089,-9.1853 L 194,-2.96248 z
M 253.3,-27.859 L 253.959,-28.4695 L 253.537,-27.5313 z
M 237.392,2.30412 L 237.379,2.36794 L 237.302,2.34933 L 237.08,2.33484 L 236.858,2.35919 L 236.792,2.37846
 L 225.226,-1.94992 L 225.203,-1.88126 L 220.006,-6.73029 L 238.234,-16.0777 L 238.358,-16.0568 L 238.753,-16.0601
 L 239.142,-16.1318 L 239.512,-16.2699 L 239.852,-16.4702 L 240.153,-16.7266 L 240.404,-17.0312 L 240.599,-17.3749
 L 240.731,-17.7472 L 240.763,-17.9369 L 248.408,-23.7852 L 251.395,-22.7713 L 239.826,2.93808 z
M 218.742,14.5521 L 199.08,0.99231 L 216.063,-5.45529 L 216.481,-5.4297 L 223.654,0.16214 L 223.759,0.598801
 L 223.97,0.615326 L 226.552,6.31129 L 225.883,13.4118 L 225.792,13.3542 L 225.196,14.3938 L 218.808,14.5694
 z
M 232.324,10.5367 L 228.226,5.65157 L 228.207,5.66962 L 226.781,1.5618 L 236.106,4.40245 L 236.147,4.45793
 L 236.308,4.61212 L 236.493,4.73596 L 236.697,4.82571 L 236.838,4.86005 L 236.824,4.92384 L 238.779,5.26425
 L 235.666,12.1809 z
M 194,24.1628 L 194,5.59583 L 215.984,18.8295 L 216.838,19.8776 L 219.844,24.5166 L 212.768,27.8174
 L 212.807,27.8947 L 200.677,28.4264 L 200.618,28.3901 L 200.493,28.4344 L 200.42,28.4376 z
M 227.301,13.4883 L 227.28,13.4974 L 228.137,8.32199 L 231.157,11.3547 L 231.185,11.6037 L 231.263,11.6196
 L 231.663,14.216 L 227.625,14.327 z
M 232.529,12.0401 L 235.221,13.1697 L 234.789,14.13 L 232.677,14.1881 z
M 223.212,19.988 L 229.505,19.2539 L 226.588,21.0014 L 226.631,21.0666 L 226.551,21.116 L 226.353,21.2937
 L 226.188,21.5033 L 226.149,21.5758 L 224.496,22.3468 z
M 225.771,24.6899 L 227.301,23.8566 L 227.382,23.8684 L 227.649,23.86 L 227.91,23.8055 L 228.157,23.7065
 L 228.304,23.6154 L 228.347,23.6806 L 231.513,21.41 L 228.107,28.9799 z
M 221.766,31.6254 L 221.765,31.6573 L 217.066,29.433 L 221.474,27.0312 L 224.596,31.8472 z
M 194.653,56 L 194.746,55.9424 L 194,54.6217 L 194,53.3948 L 197.964,53.2041 L 197.948,52.3391
 L 194,52.2922 L 194,28.8648 L 198.707,31.5949 L 206.383,43.0244 L 203.036,53.7827 L 202.933,53.878
 L 202.699,54.0401 L 202.712,54.0825 L 200.637,56 z
M 208.938,41.6134 L 203.619,32.211 L 213.15,30.9414 L 213.714,31.2038 L 213.935,31.0487 L 220.926,33.6064
 L 224.251,37.5481 L 221.889,42.7971 L 216.674,43.4579 L 216.679,43.49 z
M 223.97,33.9383 L 225.882,33.9247 L 225.149,35.5537 z
M 216.17,50.6882 L 216.159,50.6127 L 215.899,50.5099 L 215.659,50.3513 L 215.638,50.3856 L 211.717,44.9367
 L 216.246,45.6046 L 219.482,48.1461 L 217.842,51.7912 z
M 219.346,45.3071 L 220.911,44.9714 L 220.35,46.2166 z
M 205.456,56 L 205.184,54.4221 L 208.42,46.119 L 213.54,52.0132 L 214.33,56 z
M 216.673,54.2195 L 216.734,54.2529 L 216.689,54.352 z
M 272,64.5 L 280,64.5 L 280,70 L 288,70 L 288,64.5 L 296,64.5
 L 296,70 L 304,70 L 304,64.5 L 312,64.5 L 312,70 L 320,70
 L 320,64.5 L 328,64.5 L 328,70 L 338,70 L 338,60 L 332.49,60
 L 332.49,52 L 338,52 L 338,44 L 332.49,44 L 332.49,36 L 338,36
 L 338,28 L 332.49,28 L 332.49,20 L 338,20 L 338,12 L 332.49,12
 L 332.49,4 L 338,4 L 338,-3.99998 L 332.49,-3.99998 L 332.49,-12 L 338,-12
 L 338,-20 L 332.49,-20 L 332.49,-28 L 338,-28 L 338,-36 L 332.49,-36
 L 332.49,-44 L 338,-44 L 338,-52 L 332.49,-52 L 332.49,-60 L 338,-60
 L 338,-70 L 327.5,-70 L 327.5,-64.49 L 319.5,-64.49 L 319.5,-70 L 311.5,-70
 L 311.5,-64.49 L 303.5,-64.49 L 303.5,-70 L 293,-70 L 230,70 L 240,70
 L 240,64.5 L 248,64.5 L 248,70 L 256,70 L 256,64.5 L 264,64.5
 L 264,70 L 272,70 z
M 302.288,-56 L 306.15,-56 L 306.541,-54.8456 z
M 312.596,-51.9662 L 312.036,-53.0777 L 311.993,-53.0965 L 310.744,-56 L 324,-56 L 324,-48.8872
 L 323.389,-42.5787 z
M 300.766,-51.761 L 302.561,-51.1413 L 300.318,-49.6318 z
M 317.88,-19.1551 L 316.922,-19.658 L 316.509,-19.5294 L 305.276,-25.2383 L 304.967,-25.6433 L 304.898,-25.7592
 L 311.238,-29.9362 L 310.24,-31.5921 L 304.671,-28.5383 L 306.059,-33.058 L 304.647,-33.5502 L 302.711,-28.6007
 L 298.953,-33.525 L 299.822,-46.2276 L 304.948,-50.3175 L 309.177,-48.8581 L 309.233,-48.8055 L 309.349,-48.799
 L 309.506,-48.7448 L 309.519,-48.7892 L 309.649,-48.7818 L 323.496,-34.6779 L 323.546,-34.7315 L 323.761,-34.4805
 L 324,-33.8311 L 324,-18.8787 z
M 295.006,-40.3407 L 297.449,-45.7705 L 296.373,-37.7408 z
M 292.772,-35.377 L 294.176,-38.4968 L 295.695,-35.012 z
M 289.672,-26.2945 L 289.313,-26.5855 L 289.162,-26.4878 L 288.833,-26.6247 L 291.944,-33.5369 L 294.786,-32.9684
 L 294.762,-32.9456 L 300.827,-26.0782 z
M 291.651,-15.3277 L 291.452,-15.569 L 291.388,-15.5438 L 287.075,-19.6041 L 286.183,-18.7252 L 289.567,-15.0241
 L 286.195,-14.0089 L 283.345,-14.4277 L 286.676,-21.8307 L 290.063,-23.5737 L 290.005,-23.6743 L 292.049,-23.4967
 L 292.045,-23.4921 L 296.714,-19.2278 L 298.424,-14.07 L 298.01,-13.9391 z
M 294.144,-23.3146 L 297.3,-23.0404 L 296.874,-21.1522 z
M 298.125,-19.8176 L 298.198,-20.0795 L 298.148,-20.1124 L 298.565,-22.9305 L 300.861,-22.731 L 299.463,-16.5938
 z
M 303.426,-22.5081 L 303.892,-22.4677 L 303.897,-22.5688 L 311.191,-18.1073 L 302.268,-15.2854 z
M 320.114,4.7018 L 319.042,4.0732 L 318.578,4.15187 L 307.506,-2.80469 L 307.224,-3.25317 L 307.135,-3.44023
 L 307.105,-3.44249 L 302.413,-10.9103 L 317.396,-14.6561 L 317.329,-14.8925 L 317.498,-14.9453 L 324,-14.0572
 L 324,5.23325 z
M 290.357,-13.3973 L 291.28,-13.6057 L 293.58,-12.9238 z
M 282.475,-10.0788 L 282.329,-10.405 L 282.251,-10.3966 L 281.837,-11.0782 L 281.884,-11.1827 L 290.329,-9.35464
 L 288.579,-6.85959 z
M 292.486,-5.25453 L 295.647,-9.21887 L 299.794,-10.2557 L 303.016,-4.08992 z
M 277.66,-1.79576 L 280.606,-8.34271 L 281.541,-8.29781 L 287.136,-4.80194 L 286.398,-3.74988 L 281.4,-1.17479
 z
M 295.046,9.05849 L 295.05,9.0452 L 283.841,6.34158 L 283.866,5.55705 L 289.688,-1.74454 L 291.591,-2.51492
 L 291.541,-2.6246 L 305.811,-0.0654297 L 305.826,-0.169617 L 312.961,5.1391 L 295.051,9.05942 z
M 275.382,3.26614 L 276.478,0.831772 L 278.651,1.35167 L 276.309,3.91586 z
M 278.012,4.9359 L 281.678,1.48885 L 281.681,1.49559 L 283.131,0.908737 L 280.986,3.9669 L 280.302,4.3226
 L 280.239,4.64685 L 279.28,5.24161 z
M 264.162,28.2012 L 269.691,15.9145 L 273.946,11.221 L 273.949,11.2269 L 279.094,8.65135 L 280.037,8.94736
 L 280.496,18.3482 L 280.451,18.414 L 280.324,18.6931 L 280.247,18.99 L 280.222,19.2958 L 280.249,19.5709
 L 279.994,24.6817 L 279.593,25.155 L 278.852,25.4589 L 278.755,25.7888 L 271.382,29.4833 z
M 286.24,43.6529 L 285.956,43.8103 L 280.797,42.1265 L 280.853,41.8497 L 280.951,41.5765 L 281.005,41.262
 L 281.003,40.943 L 280.947,40.6291 L 280.836,40.3298 L 280.794,40.2581 L 281.392,35.4302 L 281.931,35.4732
 L 282.909,26.57 L 296.022,12.8798 L 319.062,9.29877 L 319.048,9.22795 L 319.365,9.04803 L 324,10.1164
 L 324,20.6984 L 321.213,23.9643 L 321.094,23.9907 L 320.709,24.1507 L 320.357,24.3751 L 320.05,24.6572
 L 320.005,24.7157 L 319.896,24.6219 L 305.594,42.2889 L 286.939,43.9415 z
M 283.647,19.8429 L 283.717,19.5727 L 283.742,19.2669 L 283.712,18.9616 L 283.631,18.6659 L 283.499,18.389
 L 283.452,18.324 L 283.719,10.1022 L 290.527,12.2378 L 283.581,20.4434 z
M 312.199,56 L 308.722,44.3744 L 323.736,27.923 L 323.627,27.8292 L 323.835,27.5566 L 324,27.2397
 L 324,56 z
M 251.652,56 L 263.156,30.4368 L 268.757,31.843 L 264.717,36.1673 L 265.85,37.3089 L 271.617,32.0047
 L 271.62,32.0111 L 278.174,29.4438 L 277.73,40.0045 L 277.677,40.0684 L 277.65,40.1152 L 272.215,32.4221
 L 270.547,33.5152 L 275.225,41.235 L 269.642,41.4549 L 269.644,42.9733 L 277.037,43.2428 L 277.035,43.2489
 L 277.073,43.2654 L 275.77,52.4694 L 273.502,52.1949 L 273.23,53.9921 L 273.681,54.0742 L 271.149,56
 z
M 280.285,44.6487 L 283.139,45.8775 L 279.315,49.4308 z
M 285.859,53.8279 L 285.813,53.7912 L 285.615,53.6834 L 285.401,53.6116 L 285.178,53.578 L 284.975,53.5831
 L 280.104,52.9938 L 287.567,47.1104 L 301.59,46.7331 L 294.806,54.023 z
M 296.876,56 L 296.841,55.7524 L 304.978,48.0731 L 307.922,56 z
M 277.983,56 L 278.206,54.8974 L 284.267,56 z
M 285.717,56 L 285.723,55.9963 L 285.759,56 z
M 169.5,109.5 L 175,109.5 L 175,101.5 L 169.5,101.5 L 169.5,93.5 L 175,93.5
 L 175,85.5 L 169.5,85.5 L 169.5,80.5 L 164.205,80.5 L 164.205,75 L 156.195,75
 L 156.195,80.5 L 148.185,80.5 L 148.185,75 L 140.175,75 L 140.175,80.5 L 132.165,80.5
 L 132.165,75 L 124.155,75 L 124.155,80.5 L 116.145,80.5 L 116.145,75 L 108.135,75
 L 108.135,80.5 L 100.125,80.5 L 100.125,75 L 92.115,75 L 92.115,80.5 L 84.105,80.5
 L 84.105,75 L 76.095,75 L 76.095,80.5 L 68.085,80.5 L 68.085,75 L 60.075,75
 L 60.075,80.5 L 52.065,80.5 L 52.065,75 L 44.055,75 L 44.055,80.5 L 36.045,80.5
 L 36.045,75 L 28.035,75 L 28.035,80.5 L 20.025,80.5 L 20.025,75 L 12.015,75
 L 12.015,80.5 L 4.005,80.5 L 4.005,75 L -4.00497,75 L -4.00497,80.5 L -12.015,80.5
 L -12.015,75 L -20.025,75 L -20.025,80.5 L -28.035,80.5 L -28.035,75 L -36.045,75
 L -36.045,80.5 L -44.055,80.5 L -44.055,75 L -52.065,75 L -52.065,80.5 L -60.075,80.5
 L -60.075,75 L -68.085,75 L -68.085,80.5 L -76.095,80.5 L -76.095,75 L -84.105,75
 L -84.105,80.5 L -92.115,80.5 L -92.115,75 L -100.125,75 L -100.125,80.5 L -108.135,80.5
 L -108.135,75 L -116.145,75 L -116.145,80.5 L -124.155,80.5 L -124.155,75 L -132.165,75
 L -132.165,80.5 L -140.175,80.5 L -140.175,75 L -148.185,75 L -148.185,80.5 L -156.195,80.5
 L -156.195,75 L -164.205,75 L -164.205,80.5 L -169.49,80.5 L -169.49,85.5 L -175,85.5
 L -175,93.5 L -169.49,93.5 L -169.49,101.5 L -175,101.5 L -175,109.5 L -169.49,109.5
 L -169.49,120 L 169.5,120 z
M -155.5,100.5 L -155.5,94.5 L -146.733,94.5 L -153.857,100.5 z
M -123.515,100.5 L -122.782,94.5 L -64.7847,94.5 L -67.0146,99.9081 L -67.3217,100.091 L -67.7971,100.5
 z
M -54.6523,100.5 L -51.7079,94.5 L -25.7937,94.5 L -24.251,98.8723 L -24.3447,99.1705 L -24.4787,100.198
 L -24.4652,100.5 z
M -12.6063,100.5 L -12.6437,99.6674 L -12.8692,98.6558 L -13.267,97.6987 L -13.8249,96.8252 L -14.5261,96.0618
 L -14.7742,95.8719 L -15.1599,94.5 L 14.0411,94.5 L 13.4662,100.181 L 13.2843,100.378 L 13.2063,100.5
 z
M 22.0676,100.5 L 23.0729,94.5 L 64.3696,94.5 L 66.7436,100.5 z
M 76.9419,100.5 L 75.0838,94.5 L 103.73,94.5 L 114.018,100.5 z
M 133.036,100.5 L 122.859,99.0568 L 122.843,99.199 L 122.654,99.2002 L 115.807,94.5 L 155.5,94.5
 L 155.5,99.8032 L 153.959,100.5 z
M -139.972,100.5 L -131.978,94.6781 L -132.277,100.5 z
M 190,75 L 180,75 L 180,95 L 190,95 z
" stroke="black" fill="lightgray" stroke-width="0.5"/>
</svg>
