<?xml version="1.0" standalone="no"?>
<!DOCTYPE svg PUBLIC "-//W3C//DTD SVG 1.1//EN" "http://www.w3.org/Graphics/SVG/1.1/DTD/svg11.dtd">
<svg width="24mm" height="75mm" viewBox="-12 -63 24 75" xmlns="http://www.w3.org/2000/svg" version="1.1">
<title>OpenSCAD Model</title>
<path d="
M -2,-62.1758 L -3.70819,-61.8127 L -5.99998,-60.7923 L -8.02956,-59.3177 L -9.70819,-57.4534 L -10.9625,-55.2808
 L -11.7378,-52.8949 L -12,-50.4 L -11.7378,-47.9051 L -10.9625,-45.5192 L -9.70819,-43.3466 L -8.02956,-41.4823
 L -6,-40.0077 L -3.70819,-38.9873 L -2,-38.6242 z
M 11.2,-62.1758 L 9.49181,-61.8127 L 7.20001,-60.7923 L 5.17044,-59.3177 L 3.49181,-57.4534 L 2.23746,-55.2808
 L 1.46223,-52.8949 L 1.2,-50.4 L 1.46223,-47.9051 L 2.23746,-45.5192 L 3.49181,-43.3466 L 5.17044,-41.4823
 L 7.2,-40.0077 L 9.49181,-38.9873 L 11.2,-38.6242 z
M -2,-36.9758 L -3.70819,-36.6127 L -5.99998,-35.5923 L -8.02956,-34.1177 L -9.70819,-32.2534 L -10.9625,-30.0808
 L -11.7378,-27.6949 L -12,-25.2 L -11.7378,-22.7051 L -10.9625,-20.3192 L -9.70819,-18.1466 L -8.02956,-16.2823
 L -6,-14.8077 L -3.70819,-13.7873 L -2,-13.4242 z
M 11.2,-36.9758 L 9.49181,-36.6127 L 7.20001,-35.5923 L 5.17044,-34.1177 L 3.49181,-32.2534 L 2.23746,-30.0808
 L 1.46223,-27.6949 L 1.2,-25.2 L 1.46223,-22.7051 L 2.23746,-20.3192 L 3.49181,-18.1466 L 5.17044,-16.2823
 L 7.2,-14.8077 L 9.49181,-13.7873 L 11.2,-13.4242 z
M -2,-11.7758 L -3.70819,-11.4127 L -5.99998,-10.3923 L -8.02956,-8.91772 L -9.70819,-7.05342 L -10.9625,-4.88083
 L -11.7378,-2.49493 L -12,-0 L -11.7378,2.49493 L -10.9625,4.88083 L -9.70819,7.05342 L -8.02956,8.91772
 L -6,10.3923 L -3.70819,11.4127 L -2,11.7758 z
M 11.2,-11.7758 L 9.49181,-11.4127 L 7.20001,-10.3923 L 5.17044,-8.91772 L 3.49181,-7.05342 L 2.23746,-4.88083
 L 1.46223,-2.49493 L 1.2,-0 L 1.46223,2.49493 L 2.23746,4.88083 L 3.49181,7.05342 L 5.17044,8.91772
 L 7.2,10.3923 L 9.49181,11.4127 L 11.2,11.7758 z
" stroke="black" fill="lightgray" stroke-width="0.5"/>
</svg>
